<svg xmlns="http://www.w3.org/2000/svg" viewBox="0 0 328.863 328.863"><path d="M104 220.4V131H83.4v-22.7h49v112H104zM239.6 137.2c0 9.8-5.3 18.4-14 23.2 12.2 5 20 16 20 28.4 0 20-18 33-46 33s-46-12.7-46-32.6c0-12.8 8.4-23.6 21.3-28.8-9.5-5.2-15.6-14.2-15.6-24 0-18 15.7-29.2 40-29.2 24.6 0 40.2 11.6 40.2 30zm-59 49.2c0 9.4 6.6 14.7 19 14.7 12.3 0 19.2-5 19.2-14.6 0-9.3-7-14.6-19.2-14.6-12.4 0-19 5.3-19 14.6zm2.8-47.6c0 8 5.8 12.5 16.2 12.5 10.4 0 16-4.5 16-12.5 0-8.3-5.6-13-16-13s-16.2 4.7-16.2 13z"/><path d="M293 121c4.6 14 7 28.5 7 43.4 0 74.8-60.8 135.6-135.6 135.6S29 239.2 29 164.4C29 89.7 89.6 29 164.3 29c15 0 29.6 2.3 43.5 7V5.8C193.7 2 179 0 164.3 0 73.8 0 0 73.8 0 164.4S73.8 329 164.4 329 329 255 329 164.3c0-14.8-2-29.4-6-43.5h-30z"/><path d="M284.7 44V12.7H262V44h-31.4V67H262v31.5h22.7V66.8h31.5V44"/></svg>