<?xml version="1.0" standalone="no"?><!-- Generator: Adobe Fireworks CS6, Export SVG Extension by Aaron Beall (http://fireworks.abeall.com) . Version: 0.6.1  --><!DOCTYPE svg PUBLIC "-//W3C//DTD SVG 1.1//EN" "http://www.w3.org/Graphics/SVG/1.1/DTD/svg11.dtd"><svg id="Untitled-Page%201" viewBox="0 0 191 64" style="background-color:#ffffff00" version="1.1"	xmlns="http://www.w3.org/2000/svg" xmlns:xlink="http://www.w3.org/1999/xlink" xml:space="preserve"	x="0px" y="0px" width="191px" height="64px">	<g id="Layer%201">		<path d="M 160.1615 63.945 C 160.5707 63.8535 160.9599 63.6478 161.2781 63.3279 L 190.3314 34.1225 C 191.2229 33.2264 191.2229 31.7736 190.3315 30.8775 L 161.2781 1.6721 C 160.3867 0.7759 158.9414 0.776 158.05 1.6721 L 155.7346 4 L 2.9843 4 C 1.3361 4 0 5.3431 0 7 L 0 61 C 0 62.6569 1.3361 64 2.9843 64 L 154.1927 64 L 156.1823 64 L 159.669 64 C 159.8342 63.9996 159.9994 63.9813 160.1615 63.945 ZM 160.1615 64 L 160.1615 63.945 C 159.9994 63.9813 159.8342 63.9996 159.669 64 L 160.1615 64 Z" fill="#2077af"/>		<rect x="0" y="0" width="160" height="60" fill="#3398d9" rx="2" ry="2"/>		<rect x="129" y="0.0003" width="60" height="60" fill="#2b97dc" rx="2" ry="2"/>	</g></svg>