<svg id="c6d73e35-4110-4902-8f4a-b5a8b4c3f7e3" data-name="Layer 1" xmlns="http://www.w3.org/2000/svg" viewBox="0 0 18.094 16.817"><title>chat</title><path d="M14.357,0.073H3.737A3.741,3.741,0,0,0,0,3.81V9.663A3.741,3.741,0,0,0,3.737,13.4h0.1v3.279a0.211,0.211,0,0,0,.13.2,0.215,0.215,0,0,0,.081.016A0.211,0.211,0,0,0,4.2,16.828L7.627,13.4h6.73a3.741,3.741,0,0,0,3.737-3.737V3.81A3.741,3.741,0,0,0,14.357.073ZM5.521,8.008A1.234,1.234,0,1,1,6.755,6.774,1.235,1.235,0,0,1,5.521,8.008Zm3.526,0a1.234,1.234,0,1,1,1.234-1.234A1.235,1.235,0,0,1,9.047,8.008Zm3.525,0a1.234,1.234,0,1,1,1.234-1.234A1.235,1.235,0,0,1,12.572,8.008Z" transform="translate(0 -0.073)"/></svg>