<?xml version="1.0" standalone="no"?><!-- Generator: Adobe Fireworks CS6, Export SVG Extension by Aaron Beall (http://fireworks.abeall.com) . Version: 0.6.1  --><!DOCTYPE svg PUBLIC "-//W3C//DTD SVG 1.1//EN" "http://www.w3.org/Graphics/SVG/1.1/DTD/svg11.dtd"><svg id="Untitled-Page%201" viewBox="0 0 14 11" style="background-color:#ffffff00" version="1.1"	xmlns="http://www.w3.org/2000/svg"  xml:space="preserve"	x="0px" y="0px" width="14px" height="11px">	<g id="Layer%201">		<path d="M 0.4877 6.2938 C 0.4828 6.2889 0.4763 6.2881 0.4714 6.2833 L 0.2128 6.0379 C 0.0698 5.9014 -0.001 5.7232 0 5.5441 C -0.001 5.3659 0.0698 5.1868 0.2128 5.0522 L 0.4714 4.8067 C 0.4763 4.802 0.4818 4.8001 0.4877 4.7953 L 4.4496 1.2033 C 4.7349 0.9322 5.1965 0.9322 5.4828 1.2033 L 5.6498 1.4478 C 5.9352 1.7189 5.8425 2.1577 5.5573 2.4288 L 3.187 4.5636 L 13.0229 4.5636 C 13.5625 4.5636 14 4.9982 14 5.5341 C 14 6.0701 13.5625 6.5045 13.0229 6.5045 L 3.1769 6.5045 L 5.4962 8.5703 C 5.7815 8.8413 5.874 9.2811 5.5887 9.5522 L 5.4218 9.7967 C 5.1355 10.0678 4.6737 10.0678 4.3884 9.7967 L 0.4877 6.2938 Z" />	</g></svg>