<?xml version="1.0" standalone="no"?><!-- Generator: Adobe Fireworks CS6, Export SVG Extension by Aaron Beall (http://fireworks.abeall.com) . Version: 0.6.1  --><!DOCTYPE svg PUBLIC "-//W3C//DTD SVG 1.1//EN" "http://www.w3.org/Graphics/SVG/1.1/DTD/svg11.dtd"><svg id="Untitled-Page%201" viewBox="0 0 14 11" style="background-color:#ffffff00" version="1.1"	xmlns="http://www.w3.org/2000/svg" xmlns:xlink="http://www.w3.org/1999/xlink" xml:space="preserve"	x="0px" y="0px" width="14px" height="11px">	<g id="Layer%201">		<path d="M 13.5123 6.2938 C 13.5172 6.2889 13.5237 6.2881 13.5286 6.2833 L 13.7872 6.0379 C 13.9302 5.9014 14.001 5.7232 14 5.5441 C 14.001 5.3659 13.9302 5.1868 13.7872 5.0522 L 13.5286 4.8067 C 13.5237 4.802 13.5182 4.8001 13.5123 4.7953 L 9.5504 1.2033 C 9.2651 0.9322 8.8035 0.9322 8.5172 1.2033 L 8.3502 1.4478 C 8.0648 1.7189 8.1575 2.1577 8.4427 2.4288 L 10.813 4.5636 L 0.9771 4.5636 C 0.4375 4.5636 0 4.9982 0 5.5341 C 0 6.0701 0.4375 6.5045 0.9771 6.5045 L 10.8231 6.5045 L 8.5038 8.5703 C 8.2185 8.8413 8.126 9.2811 8.4113 9.5522 L 8.5782 9.7967 C 8.8645 10.0678 9.3263 10.0678 9.6116 9.7967 L 13.5123 6.2938 Z" fill="#ffffff"/>	</g></svg>