<?xml version="1.0" standalone="no"?><!-- Generator: Adobe Fireworks CS6, Export SVG Extension by Aaron Beall (http://fireworks.abeall.com) . Version: 0.6.1  --><!DOCTYPE svg PUBLIC "-//W3C//DTD SVG 1.1//EN" "http://www.w3.org/Graphics/SVG/1.1/DTD/svg11.dtd"><svg id="Untitled-Page%201" viewBox="0 0 20 16" style="background-color:#ffffff00" version="1.1"	xmlns="http://www.w3.org/2000/svg" xmlns:xlink="http://www.w3.org/1999/xlink" xml:space="preserve"	x="0px" y="0px" width="20px" height="16px">	<g id="Layer%201">		<path d="M 0 1 L 0 2 L 0 5 L 2 5 L 2 2 L 5 2 L 5 0 L 0 0 L 0 1 Z" fill="#ffffff"/>		<path d="M 0 15 L 0 16 L 5 16 L 5 14 L 2 14 L 2 11 L 0 11 L 0 14 L 0 15 Z" fill="#ffffff"/>		<path d="M 20 1 L 20 0 L 15 0 L 15 2 L 18 2 L 18 5 L 20 5 L 20 2 L 20 1 Z" fill="#ffffff"/>		<path d="M 20 15 L 20 14 L 20 11 L 18 11 L 18 14 L 15 14 L 15 16 L 20 16 L 20 15 Z" fill="#ffffff"/>	</g></svg>