<?xml version="1.0" standalone="no"?>
<!-- Generator: Adobe Fireworks CS6, Export SVG Extension by Aaron Beall (http://fireworks.abeall.com) . Version: 0.6.1  -->
<!DOCTYPE svg PUBLIC "-//W3C//DTD SVG 1.1//EN" "http://www.w3.org/Graphics/SVG/1.1/DTD/svg11.dtd">
<svg id="Untitled-Page%201" viewBox="0 0 34 36" style="background-color:#ffffff00" version="1.1"
	xmlns="http://www.w3.org/2000/svg" xmlns:xlink="http://www.w3.org/1999/xlink" xml:space="preserve"
	x="0px" y="0px" width="34px" height="36px"
>
	<g id="Layer%201">
		<path id="Male%20User" d="M 17 2.2512 C 20.6101 2.2512 24.4387 5.4707 24.4387 7.8741 L 24.4387 13.4993 C 24.4387 15.6642 23.5885 19.8066 21.3077 21.7081 C 20.7264 22.1929 20.4243 22.9634 20.5115 23.7417 C 20.5987 24.5211 21.0627 25.1948 21.7354 25.5224 L 30.9873 30.1677 C 31.0596 30.2026 31.8739 30.3477 31.8739 31.5515 L 31.8749 33.7488 L 2.1261 33.7499 L 2.1261 31.4657 C 2.1261 30.5712 2.7606 30.2899 3.0137 30.1666 L 12.3502 25.5015 C 13.0193 25.1761 13.4813 24.5057 13.571 23.7318 C 13.6613 22.958 13.3666 22.1897 12.7919 21.7016 C 10.5833 19.8241 9.5545 15.6971 9.5545 13.4993 L 9.5545 7.8741 C 9.5545 5.5224 13.4216 2.2512 17 2.2512 M 17 0 C 12.3055 0 7.4284 4.1484 7.4284 7.8741 L 7.4284 13.4993 C 7.4284 15.9572 8.4878 20.9299 11.461 23.457 L 2.1245 28.1221 C 2.1245 28.1221 0 29.1245 0 30.3721 L 0 33.7499 C 0 34.9931 0.9515 36 2.1245 36 L 31.8749 36 C 33.0491 36 34 34.9931 34 33.7499 L 34 30.3721 C 34 29.0496 31.8749 28.1221 31.8749 28.1221 L 22.623 23.4767 C 25.5682 21.0223 26.5648 16.2012 26.5648 13.4993 L 26.5648 7.8741 C 26.5648 4.1484 21.6939 0 17 0 L 17 0 Z"/>
	</g>
</svg>
