<?xml version="1.0" standalone="no"?>
<!-- Generator: Adobe Fireworks CS6, Export SVG Extension by Aaron Beall (http://fireworks.abeall.com) . Version: 0.6.1  -->
<!DOCTYPE svg PUBLIC "-//W3C//DTD SVG 1.1//EN" "http://www.w3.org/Graphics/SVG/1.1/DTD/svg11.dtd">
<svg id="Untitled-Page%201" viewBox="0 0 30 28" style="background-color:#ffffff00" version="1.1"
	xmlns="http://www.w3.org/2000/svg" xmlns:xlink="http://www.w3.org/1999/xlink" xml:space="preserve"
	x="0px" y="0px" width="30px" height="28px"
>
	<g id="Layer%201">
		<g>
			<path d="M 22.2638 7.7994 L 19.0748 7.7994 L 19.0748 8.5895 C 17.9708 7.9348 16.4682 7.5294 14.7652 7.5294 C 11.0254 7.5294 7.7362 9.656 7.7362 13.981 C 7.7362 18.3373 11.0254 20.4706 14.7652 20.4706 C 16.8355 20.4706 18.6053 19.8918 19.8917 18.9346 C 20.7085 19.8261 22.1867 20.4706 24.8066 20.4706 C 28.8326 20.4706 30 17.8993 30 13.4635 C 30 5.7884 24.1064 0 15.4998 0 C 6.9938 0 0 5.9818 0 13.7592 C 0 21.8286 7.0376 28 15.3997 28 C 18.6386 28 22.1867 27.2512 24.9171 25.4892 L 23.5167 23.1447 C 21.0975 25.2013 18.1378 26.3529 15.3663 26.3529 C 8.6476 26.3529 1.6536 20.3035 1.6536 13.7592 C 1.6536 7.551 8.6097 1.6471 15.4998 1.6471 C 22.5955 1.6471 28.3464 7.3746 28.3464 13.5374 C 28.3464 16.7164 27.1651 18.8235 24.8066 18.8235 C 23.0745 18.8235 22.2638 17.5667 22.2638 15.1269 L 22.2638 7.7994 L 22.2638 7.7994 ZM 15.1993 18.8235 C 12.9621 18.8235 10.9252 16.9911 10.9252 13.9993 C 10.9252 11.0076 12.9955 9.1765 15.1993 9.1765 C 16.6352 9.1765 18.1044 9.9605 19.0748 11.606 L 19.0748 14.5229 C 19.0748 15.1212 19.1137 15.7196 19.1526 16.2805 C 18.1378 18.113 16.5684 18.8235 15.1993 18.8235 L 15.1993 18.8235 Z"/>
		</g>
	</g>
</svg>
