<?xml version="1.0" standalone="no"?>
<!-- Generator: Adobe Fireworks CS6, Export SVG Extension by Aaron Beall (http://fireworks.abeall.com) . Version: 0.6.1  -->
<!DOCTYPE svg PUBLIC "-//W3C//DTD SVG 1.1//EN" "http://www.w3.org/Graphics/SVG/1.1/DTD/svg11.dtd">
<svg id="Untitled-Page%201" viewBox="0 0 21 14" style="background-color:#ffffff00" version="1.1"
	xmlns="http://www.w3.org/2000/svg" xmlns:xlink="http://www.w3.org/1999/xlink" xml:space="preserve"
	x="0px" y="0px" width="21px" height="14px"
>
		<path d="M 19.0319 14 L 1.9683 14 C 0.881 14 0 13.1048 0 12 L 0 2 C 0 0.8952 0.881 0 1.9683 0 L 19.0319 0 C 20.1191 0 21 0.8952 21 2 L 21 12 C 21 13.1048 20.1191 14 19.0319 14 ZM 1.9683 12.6667 L 19.0319 12.6667 C 19.3938 12.6667 19.6879 12.3679 19.6879 12 L 19.6879 6 L 1.3123 6 L 1.3123 12 C 1.3123 12.3679 1.6062 12.6667 1.9683 12.6667 ZM 19.0319 1.3333 L 1.9683 1.3333 C 1.6062 1.3333 1.3123 1.6321 1.3123 2 L 1.3123 3.3333 L 19.6879 3.3333 L 19.6879 2 C 19.6879 1.6321 19.3938 1.3333 19.0319 1.3333 Z"/>
</svg>
