<?xml version="1.0" standalone="no"?>
<!-- Generator: Adobe Fireworks CS6, Export SVG Extension by Aaron Beall (http://fireworks.abeall.com) . Version: 0.6.1  -->
<!DOCTYPE svg PUBLIC "-//W3C//DTD SVG 1.1//EN" "http://www.w3.org/Graphics/SVG/1.1/DTD/svg11.dtd">
<svg id="Untitled-Page%201" viewBox="0 0 28 36" style="background-color:#ffffff00" version="1.1"
	xmlns="http://www.w3.org/2000/svg" xmlns:xlink="http://www.w3.org/1999/xlink" xml:space="preserve"
	x="0px" y="0px" width="28px" height="36px"
>
	<g id="Layer%201">
		<path id="Lock%20" d="M 23.6923 36 L 4.3077 36 C 1.9318 36 0 33.9819 0 31.5 L 0 18 C 0 15.5182 1.9318 13.5 4.3077 13.5 L 5.3845 13.5 L 5.3845 9.2065 C 5.3845 4.1298 8.8605 0 13.9601 0 C 19.0396 0 22.6155 4.0439 22.6155 9.2065 L 22.6155 13.5 L 23.6923 13.5 C 26.0681 13.5 28 15.5182 28 18 L 28 31.5 C 28 33.9819 26.0681 36 23.6923 36 ZM 20.4614 9.2065 C 20.4614 5.3054 17.8323 2.25 13.9601 2.25 C 10.0477 2.25 7.5386 5.3712 7.5386 9.2065 L 7.5386 13.5 L 20.4614 13.5 L 20.4614 9.2065 ZM 25.8462 18 C 25.8462 16.7596 24.8796 15.75 23.6923 15.75 L 4.3077 15.75 C 3.1202 15.75 2.1538 16.7596 2.1538 18 L 2.1538 31.5 C 2.1538 32.7404 3.1202 33.75 4.3077 33.75 L 23.6923 33.75 C 24.8796 33.75 25.8462 32.7404 25.8462 31.5 L 25.8462 18 ZM 15.077 24.4379 L 15.077 28.125 C 15.077 28.7463 14.5947 29.25 14 29.25 C 13.4052 29.25 12.923 28.7463 12.923 28.125 L 12.923 24.4379 C 12.282 24.0482 11.8462 23.3308 11.8462 22.5 C 11.8462 21.2573 12.8104 20.25 14 20.25 C 15.1896 20.25 16.1538 21.2573 16.1538 22.5 C 16.1538 23.3308 15.718 24.0482 15.077 24.4379 Z"/>
	</g>
</svg>
