<?xml version="1.0" standalone="no"?>
<!-- Generator: Adobe Fireworks CS6, Export SVG Extension by Aaron Beall (http://fireworks.abeall.com) . Version: 0.6.1  -->
<!DOCTYPE svg PUBLIC "-//W3C//DTD SVG 1.1//EN" "http://www.w3.org/Graphics/SVG/1.1/DTD/svg11.dtd">
<svg id="Untitled-Page%201" viewBox="0 0 36 36" style="background-color:#ffffff00" version="1.1"
	xmlns="http://www.w3.org/2000/svg" xmlns:xlink="http://www.w3.org/1999/xlink" xml:space="preserve"
	x="0px" y="0px" width="36px" height="36px"
>
	<g id="Layer%201">
		<path id="Calendar" d="M 33.75 36 L 2.25 36 C 1.0073 36 0 34.9923 0 33.7494 L 0 5.6182 C 0 4.3752 1.0073 3.3676 2.25 3.3676 L 11.2422 3.3676 L 11.2422 1.1252 C 11.2422 0.5033 11.7454 0 12.3672 0 C 12.9889 0 13.4922 0.5033 13.4922 1.1252 L 13.4922 3.3676 L 22.4922 3.3676 L 22.4922 1.1252 C 22.4922 0.5033 22.9954 0 23.6172 0 C 24.239 0 24.7422 0.5033 24.7422 1.1252 L 24.7422 3.3676 L 33.75 3.3676 C 34.9927 3.3676 36 4.3752 36 5.6182 L 36 33.7494 C 36 34.9923 34.9927 36 33.75 36 ZM 33.75 5.6182 L 24.7422 5.6182 L 24.7422 6.7515 C 24.7422 7.3735 24.239 7.8768 23.6172 7.8768 C 22.9954 7.8768 22.4922 7.3735 22.4922 6.7515 L 22.4922 5.6182 L 13.4922 5.6182 L 13.4922 6.7515 C 13.4922 7.3735 12.9889 7.8768 12.3672 7.8768 C 11.7454 7.8768 11.2422 7.3735 11.2422 6.7515 L 11.2422 5.6182 L 2.25 5.6182 L 2.25 33.7494 L 33.75 33.7494 L 33.75 5.6182 ZM 7.875 13.4948 L 10.125 13.4948 C 10.7463 13.4948 11.25 13.9987 11.25 14.6201 L 11.25 16.8706 C 11.25 17.4921 10.7463 17.9958 10.125 17.9958 L 7.875 17.9958 C 7.2537 17.9958 6.75 17.4921 6.75 16.8706 L 6.75 14.6201 C 6.75 13.9987 7.2537 13.4948 7.875 13.4948 ZM 7.875 22.4969 L 10.125 22.4969 C 10.7463 22.4969 11.25 23.0006 11.25 23.6221 L 11.25 25.8726 C 11.25 26.4941 10.7463 26.9979 10.125 26.9979 L 7.875 26.9979 C 7.2537 26.9979 6.75 26.4941 6.75 25.8726 L 6.75 23.6221 C 6.75 23.0006 7.2537 22.4969 7.875 22.4969 ZM 16.875 13.4948 L 19.125 13.4948 C 19.7463 13.4948 20.25 13.9987 20.25 14.6201 L 20.25 16.8706 C 20.25 17.4921 19.7463 17.9958 19.125 17.9958 L 16.875 17.9958 C 16.2537 17.9958 15.75 17.4921 15.75 16.8706 L 15.75 14.6201 C 15.75 13.9987 16.2537 13.4948 16.875 13.4948 ZM 16.875 22.4969 L 19.125 22.4969 C 19.7463 22.4969 20.25 23.0006 20.25 23.6221 L 20.25 25.8726 C 20.25 26.4941 19.7463 26.9979 19.125 26.9979 L 16.875 26.9979 C 16.2537 26.9979 15.75 26.4941 15.75 25.8726 L 15.75 23.6221 C 15.75 23.0006 16.2537 22.4969 16.875 22.4969 ZM 25.875 13.4948 L 28.125 13.4948 C 28.7463 13.4948 29.25 13.9987 29.25 14.6201 L 29.25 16.8706 C 29.25 17.4921 28.7463 17.9958 28.125 17.9958 L 25.875 17.9958 C 25.2537 17.9958 24.75 17.4921 24.75 16.8706 L 24.75 14.6201 C 24.75 13.9987 25.2537 13.4948 25.875 13.4948 ZM 25.875 22.4969 L 28.125 22.4969 C 28.7463 22.4969 29.25 23.0006 29.25 23.6221 L 29.25 25.8726 C 29.25 26.4941 28.7463 26.9979 28.125 26.9979 L 25.875 26.9979 C 25.2537 26.9979 24.75 26.4941 24.75 25.8726 L 24.75 23.6221 C 24.75 23.0006 25.2537 22.4969 25.875 22.4969 Z"/>
	</g>
</svg>
