<?xml version="1.0" encoding="UTF-8"?>
<svg width="53px" height="35px" viewBox="0 0 53 35" version="1.1" xmlns="http://www.w3.org/2000/svg">
    <!-- Generator: Sketch 49.3 (51167) - http://www.bohemiancoding.com/sketch -->
    <title>game-jackpot</title>
    <desc>Created with Sketch.</desc>
    <defs></defs>
    <g id="game-jackpot" stroke="none" stroke-width="1" fill="none" fill-rule="evenodd">
        <g id="Group-1288" transform="translate(10.000000, 1.000000)">
            <ellipse id="Oval" fill="#FFDE07" cx="16.7031873" cy="16.6716867" rx="11.1354582" ry="11.1144578"></ellipse>
            <path d="M24.1086845,15.1235817 L20.2892224,18.2773091 L22.2031292,23.373288 C22.310308,23.6608746 22.2184405,23.9831939 21.9762443,24.1693611 C21.7326561,24.3569175 21.3985924,24.3583069 21.1480446,24.1832541 L16.7036048,21.0045192 L12.2577732,24.1832541 C12.0086173,24.3583069 11.6731616,24.3569175 11.4309654,24.1693611 C11.1887692,23.9831939 11.0955097,23.6608746 11.2040804,23.373288 L13.1179873,18.2773091 L9.29713322,15.1235817 C9.07303212,14.9360252 8.98951619,14.6303776 9.08973531,14.3539055 C9.1885625,14.0788227 9.45024577,13.8982127 9.74394348,13.8982127 L14.1577607,13.8982127 L16.063316,9.45242959 C16.1732786,9.19818637 16.4252184,9.0300802 16.7036048,9.0300802 C16.9805994,9.0300802 17.233931,9.19818637 17.3438937,9.45242959 L19.249449,13.8982127 L23.6632662,13.8982127 C23.9569639,13.8982127 24.2172552,14.0788227 24.3160824,14.3539055 C24.4176935,14.6303776 24.3327856,14.9360252 24.1086845,15.1235817 M33.1548523,16.1252722 L30.5032214,13.9190523 L32.1067273,10.8681337 C32.3099495,10.4846849 32.1122951,10.0109311 31.6988912,9.88172553 L28.4014036,8.85641679 L28.7145884,5.42482794 C28.7535625,5.00108923 28.4014036,4.63709074 27.9587692,4.67043411 L24.5193045,4.98163893 L23.4920585,1.69175941 C23.3612169,1.27079932 22.8810002,1.08463215 22.5051785,1.28469239 L19.4471033,2.88378502 L17.2367149,0.237154744 C16.9722478,-0.078217997 16.432178,-0.078217997 16.1677109,0.237154744 L13.9573225,2.88378502 L10.9006392,1.28469239 C10.513682,1.08046423 10.040425,1.28052447 9.91236728,1.69175941 L8.88512126,4.98163893 L5.44704856,4.67043411 C5.00580603,4.63709074 4.65225523,4.99692131 4.6898374,5.42482794 L5.00163023,8.85641679 L1.70692654,9.88172553 C1.29073879,10.0109311 1.09726021,10.4846849 1.29630652,10.8681337 L2.90259636,13.9190523 L0.249573456,16.1252722 C-0.0844902888,16.4031337 -0.0817064243,16.9185666 0.249573456,17.1922602 L2.90259636,19.39848 L1.29630652,22.450788 C1.09586828,22.8356261 1.29213073,23.3093799 1.70692654,23.4358069 L5.00163023,24.4625049 L4.6898374,27.8940937 C4.65225523,28.3206111 5.00302216,28.6859989 5.44704856,28.6484876 L8.88512126,28.3358934 L9.91236728,31.6271623 C10.0390331,32.03284 10.5081143,32.2384575 10.9006392,32.0356186 L13.9573225,30.4337474 L16.1677109,33.0817669 C16.4488812,33.41659 16.9611123,33.4124221 17.2367149,33.0817669 L19.4471033,30.4337474 L22.5051785,32.0356186 C22.886568,32.2342895 23.3626088,32.0439544 23.4920585,31.6271623 L24.5193045,28.3358934 L27.9587692,28.6484876 C28.4055794,28.6859989 28.7535625,28.3164431 28.7145884,27.8940937 L28.4014036,24.4625049 L31.6988912,23.4358069 C32.113687,23.3066013 32.3085575,22.8328475 32.1067273,22.450788 L30.5032214,19.39848 L33.1548523,17.1922602 C33.4889161,16.9171773 33.490308,16.404523 33.1548523,16.1252722" id="Fill-2404" fill="#662482"></path>
        </g>
    </g>
</svg>
