<?xml version="1.0" encoding="UTF-8"?>
<svg width="53px" height="35px" viewBox="0 0 53 35" version="1.1" xmlns="http://www.w3.org/2000/svg">
    <!-- Generator: Sketch 49.3 (51167) - http://www.bohemiancoding.com/sketch -->
    <title>game-table</title>
    <desc>Created with Sketch.</desc>
    <defs></defs>
    <g id="game-table" stroke="none" stroke-width="1" fill="none" fill-rule="evenodd">
        <g id="noun_488125" transform="translate(10.000000, 1.000000)">
            <ellipse id="Oval" fill="#FFDE07" cx="16.7031873" cy="16.6716867" rx="15.311255" ry="15.2823795"></ellipse>
            <path d="M11.9788578,20.7202392 C11.8004677,20.7202392 11.6320996,20.7895934 11.5058235,20.9156313 C11.3795474,21.0416693 11.3107303,21.2083861 11.3107303,21.3871066 C11.3107303,21.5651602 11.3802155,21.7332108 11.5064916,21.8585819 C11.7583757,22.1093241 12.1980036,22.1106578 12.4512239,21.8585819 C12.5768319,21.7332108 12.6463171,21.5651602 12.6463171,21.3871066 C12.6463171,21.2083861 12.5768319,21.0410024 12.4512239,20.9156313 C12.3256159,20.7902602 12.1572478,20.7202392 11.9788578,20.7202392 Z" id="Shape" fill="#652381" fill-rule="nonzero"></path>
            <path d="M11.9788578,11.2893994 C11.7997996,11.2893994 11.6320996,11.3587536 11.5058235,11.4847916 C11.2452538,11.7448699 11.2452538,12.1676639 11.5058235,12.4277422 C11.7577076,12.6791512 12.1980036,12.6798181 12.4505558,12.4277422 C12.7111255,12.1676639 12.7111255,11.7448699 12.4505558,11.4847916 C12.3249478,11.3587536 12.1572478,11.2893994 11.9788578,11.2893994 Z" id="Shape" fill="#652381" fill-rule="nonzero"></path>
            <path d="M21.8998829,12.4277422 C22.1604526,12.1676639 22.1604526,11.7448699 21.8998829,11.4847916 C21.7742749,11.3594205 21.6059068,11.2900663 21.4275167,11.2900663 C21.2484586,11.2900663 21.0807586,11.3594205 20.9551506,11.4847916 C20.6945809,11.7448699 20.6945809,12.1676639 20.9551506,12.428409 C21.2063665,12.6798181 21.6473307,12.6804849 21.8998829,12.4277422 Z" id="Shape" fill="#652381" fill-rule="nonzero"></path>
            <path d="M21.4275167,20.7202392 C21.2484586,20.7202392 21.0814267,20.7895934 20.9558187,20.9156313 C20.8288745,21.0416693 20.7593892,21.2083861 20.7593892,21.3871066 C20.7593892,21.5651602 20.8288745,21.732544 20.9551506,21.8585819 C21.2077028,22.1113247 21.6459944,22.1106578 21.8998829,21.8585819 C22.0254908,21.732544 22.0956442,21.5651602 22.0956442,21.3871066 C22.0956442,21.2083861 22.026159,21.0416693 21.8998829,20.9162982 C21.7736068,20.7902602 21.6059068,20.7202392 21.4275167,20.7202392 Z" id="Shape" fill="#652381" fill-rule="nonzero"></path>
            <path d="M16.7031873,16.0048193 C16.5247972,16.0048193 16.3570972,16.0741735 16.2308211,16.2002114 C16.104545,16.3262494 16.0350598,16.4936331 16.0350598,16.6716867 C16.0350598,16.8497404 16.104545,17.0171241 16.2308211,17.143162 C16.4833733,17.3959048 16.9236693,17.395238 17.1755534,17.143162 C17.3018295,17.0171241 17.3713147,16.8497404 17.3713147,16.6716867 C17.3713147,16.4936331 17.3018295,16.3262494 17.1755534,16.2002114 C17.0492773,16.0741735 16.8815773,16.0048193 16.7031873,16.0048193 Z" id="Shape" fill="#652381" fill-rule="nonzero"></path>
            <path d="M16.7031873,0 C7.4930498,0 0,7.47891867 0,16.6716867 C0,25.8644548 7.4930498,33.3433735 16.7031873,33.3433735 C25.9133247,33.3433735 33.4063745,25.8644548 33.4063745,16.6716867 C33.4063745,7.47891867 25.9133247,0 16.7031873,0 Z M30.7338645,16.6716867 L29.3976096,16.6716867 C29.3976096,15.8240982 29.3134255,14.9771765 29.1470618,14.1549289 L30.4572598,13.8908494 C30.6403267,14.8004566 30.7338645,15.7360717 30.7338645,16.6716867 Z M29.0194494,9.9589988 C29.4684311,10.7785789 29.8359012,11.6448398 30.1111697,12.534441 L28.8350462,12.9285596 C28.5858347,12.1236506 28.2537753,11.3400813 27.8475538,10.5991916 L29.0194494,9.9589988 Z M26.4805649,6.62799578 C27.1506968,7.27685783 27.7573566,7.99574096 28.2858454,8.76597289 L27.1834351,9.51953313 C26.7057239,8.82332349 26.155855,8.17246084 25.5505315,7.5849506 L26.4805649,6.62799578 Z M19.0957518,2.87019759 C20.0177677,3.02824518 20.925753,3.28032108 21.7949869,3.61842289 L21.3092582,4.86079699 C20.5235402,4.55537169 19.7030797,4.32796988 18.8692566,4.18459337 L19.0957518,2.87019759 Z M17.7040422,2.70281386 L17.6098363,4.03321446 C16.7766813,3.97453012 15.9101199,3.99720361 15.0749606,4.10390241 L14.9052562,2.78150422 C15.8286084,2.66346867 16.7840307,2.63879458 17.7040422,2.70281386 Z M13.5255729,3.02891205 L13.8268984,4.32796988 C13.0030972,4.51869398 12.1966673,4.79277651 11.429657,5.1435488 L10.8731068,3.93118373 C11.7216287,3.5424 12.614247,3.2389753 13.5255729,3.02891205 Z M9.62905339,4.57537771 L10.3038622,5.72705783 C9.57560319,6.15251928 8.88609562,6.65333675 8.25471514,7.21550602 L7.36543745,6.22053976 C8.06229442,5.59901928 8.82395976,5.04551928 9.62905339,4.57537771 Z M6.36591873,7.20216867 L7.35007052,8.10444036 C6.77815339,8.72662771 6.26636773,9.4074994 5.83008048,10.1283831 L4.68624622,9.43884217 C5.16863426,8.64193554 5.73387012,7.88970904 6.36591873,7.20216867 Z M4.02212749,10.6718801 L5.22943386,11.2433855 C4.86730876,12.0042813 4.5813502,12.8051892 4.37823944,13.6247693 L3.08140398,13.3046729 C3.30455857,12.3990669 3.621251,11.5128 4.02212749,10.6718801 Z M2.67250996,16.6716867 C2.67317809,16.0028187 2.72061514,15.3326169 2.81348486,14.6790867 L4.13637729,14.8671434 C4.05219323,15.4586548 4.00876494,16.0661711 4.00809681,16.6723536 C4.00809681,16.9150934 4.01477809,17.1564994 4.02814064,17.3959048 L2.69389004,17.4699271 C2.67985936,17.2058476 2.67250996,16.9397675 2.67250996,16.6716867 Z M2.84288247,18.8616795 L4.16310239,18.6542837 C4.29405538,19.4872012 4.51052869,20.3101157 4.80517291,21.0996867 L3.55310199,21.5658271 C3.22705578,20.6928976 2.98853426,19.7832904 2.84288247,18.8616795 Z M4.10898406,22.8522145 L5.30760478,22.2620367 C5.67975179,23.0169307 6.13140598,23.7391482 6.64920478,24.40935 L5.59089084,25.2235952 C5.01897371,24.4833723 4.5205506,23.6851319 4.10898406,22.8522145 Z M8.61817649,28.1191337 C7.8551749,27.5816386 7.14361912,26.965453 6.50221673,26.2879157 L7.4736741,25.3723066 C8.05427689,25.9858247 8.69835179,26.5433259 9.38919562,27.0301392 L8.61817649,28.1191337 Z M12.3670398,29.9943651 C11.4804347,29.7069452 10.6172139,29.3281645 9.80276653,28.8686928 L10.460204,27.7083434 C11.1971486,28.1238018 11.9775215,28.4665717 12.7792745,28.7259831 L12.3670398,29.9943651 Z M16.5034171,30.6745699 C15.564698,30.6605657 14.6286514,30.5545337 13.7213343,30.3584747 L14.0039522,29.0547488 C14.8250809,29.2328024 15.6729347,29.3281645 16.5227928,29.3408349 L16.5034171,30.6745699 Z M17.9024761,30.6252217 L17.7902307,29.2968217 C18.6327394,29.2254669 19.4705713,29.0694199 20.2796737,28.8326819 L20.6551614,30.1130675 C19.7598705,30.3744795 18.8338458,30.5471982 17.9024761,30.6252217 Z M20.0097502,22.8015325 C19.6322582,22.4240855 19.4231343,21.9212675 19.4231343,21.3871066 C19.4231343,21.0843488 19.4966283,20.7949283 19.6235725,20.5295151 L17.5617311,18.471562 C17.2964845,18.5989337 17.0065171,18.6722892 16.7031873,18.6722892 C16.3998574,18.6722892 16.10989,18.5989337 15.8439753,18.471562 L13.782802,20.5301819 C13.9090781,20.7949283 13.9832402,21.0843488 13.9832402,21.3871066 C13.9832402,21.9212675 13.7747845,22.4240855 13.3966243,22.8015325 C13.017796,23.1789795 12.514696,23.387709 11.9788578,23.387709 C11.4430195,23.387709 10.9399195,23.1796464 10.5610912,22.8015325 C10.1829311,22.4240855 9.9744753,21.9212675 9.9744753,21.3871066 C9.9744753,20.8522789 10.1829311,20.3501277 10.5610912,19.9726807 C11.1537203,19.3811693 12.0877625,19.2597994 12.8300522,19.5939 L14.8985749,17.5292783 C14.7722988,17.2638651 14.6988048,16.9744446 14.6988048,16.6716867 C14.6988048,16.3689289 14.7722988,16.0795084 14.899243,15.8140952 L12.8374016,13.7561422 C12.5714869,13.882847 12.2815195,13.9562024 11.9788578,13.9562024 C11.4436876,13.9562024 10.9399195,13.7481398 10.5610912,13.3706928 C9.7800502,12.5904578 9.7800502,11.321409 10.5610912,10.5411741 C11.3187478,9.78561325 12.6382996,9.78561325 13.3959562,10.5411741 C14.0106335,11.155359 14.1335689,12.0696343 13.7814657,12.8125247 L15.8513247,14.8784801 C16.3878311,14.6370741 17.0192116,14.6370741 17.5557179,14.8784801 L19.6255769,12.8125247 C19.2728056,12.0696343 19.395741,11.155359 20.0110865,10.541841 C20.7680749,9.78694699 22.0876267,9.78628012 22.8452833,10.541841 C23.6269924,11.3220759 23.6269924,12.5917916 22.8452833,13.3713596 C22.4671231,13.7488066 21.963355,13.9568693 21.4281849,13.9568693 C21.124855,13.9568693 20.8348876,13.8835139 20.569641,13.756809 L18.5071315,15.8140952 C18.6340757,16.0795084 18.7075697,16.3689289 18.7075697,16.6716867 C18.7075697,16.9744446 18.6340757,17.2638651 18.5064633,17.5286114 L20.5756542,19.5939 C21.3172757,19.2604663 22.2526542,19.3818361 22.8446151,19.9726807 C23.2227753,20.3494608 23.4318992,20.8522789 23.4318992,21.3871066 C23.4318992,21.9212675 23.2234434,22.4240855 22.8446151,22.8015325 C22.4657869,23.1789795 21.9626869,23.387709 21.4275167,23.387709 C20.8923466,23.387709 20.3885785,23.1796464 20.0097502,22.8015325 Z M21.9807263,29.6515952 L21.4782944,28.4152229 C22.2600036,28.0984608 23.0129833,27.7016747 23.7178578,27.2342006 L24.4574749,28.3452018 C23.6784382,28.8613572 22.8452833,29.3008229 21.9807263,29.6515952 Z M22.4671231,5.37961988 L23.0737829,4.19126205 C23.9035972,4.61338916 24.6959964,5.12220904 25.4289323,5.70438434 L24.5977817,6.74803193 C23.9343311,6.22187349 23.2174303,5.76106807 22.4671231,5.37961988 Z M25.5852741,27.5129512 L24.7380884,26.4813072 C25.3921853,25.9464795 25.9955044,25.3449651 26.5313426,24.6914349 L27.5649359,25.5370229 C26.973643,26.2579066 26.3075199,26.9227735 25.5852741,27.5129512 Z M28.3980908,24.4106837 L27.2849904,23.6737952 C27.7526797,22.9695831 28.1515518,22.2173566 28.4689124,21.4371217 L29.7076207,21.9399398 C29.3561857,22.8015325 28.9152215,23.6331163 28.3980908,24.4106837 Z M30.1692968,20.6175416 L28.886492,20.242762 C29.1236773,19.4345187 29.2800191,18.5982669 29.3515088,17.757347 L30.6824187,17.8693807 C30.6049159,18.798994 30.4318709,19.7232723 30.1692968,20.6175416 Z" id="Shape" fill="#652381" fill-rule="nonzero"></path>
        </g>
    </g>
</svg>
