<?xml version="1.0" encoding="UTF-8"?>
<svg width="53px" height="35px" viewBox="0 0 53 35" version="1.1" xmlns="http://www.w3.org/2000/svg">
    <!-- Generator: Sketch 49.3 (51167) - http://www.bohemiancoding.com/sketch -->
    <title>game-slots</title>
    <desc>Created with Sketch.</desc>
    <defs></defs>
    <g id="game-slots" stroke="none" stroke-width="1" fill="none" fill-rule="evenodd">
        <g id="noun_488128" transform="translate(9.000000, 1.000000)">
            <rect id="Rectangle-10" fill="#FFDE07" x="0" y="8.25" width="9.70967742" height="11"></rect>
            <rect id="Rectangle-10" fill="#FFDE07" x="12.483871" y="9.625" width="9.70967742" height="11"></rect>
            <rect id="Rectangle-10" fill="#FFDE07" x="23.5806452" y="9.625" width="9.70967742" height="11"></rect>
            <rect id="Rectangle-10" fill="#FFDE07" x="0" y="24.75" width="33.2903226" height="6.875"></rect>
            <path d="M42.8018433,13.3571429 C42.8018433,12.0575714 41.7349677,11 40.4239631,11 C39.1129585,11 38.0460829,12.0575714 38.0460829,13.3571429 C38.0460829,14.3801429 38.7110968,15.2436429 39.6313364,15.5689286 L39.6313364,26.7142857 L34.875576,26.7142857 L34.875576,24.3571429 C34.875576,23.9226429 34.5212719,23.5714286 34.0829493,23.5714286 L0.792626728,23.5714286 C0.355096774,23.5714286 0,23.9226429 0,24.3571429 L0,32.2142857 C0,32.6487857 0.355096774,33 0.792626728,33 L34.0829493,33 C34.5212719,33 34.875576,32.6487857 34.875576,32.2142857 L34.875576,28.2857143 L40.4239631,28.2857143 C40.8622857,28.2857143 41.2165899,27.9345 41.2165899,27.5 L41.2165899,15.5697143 C42.1368295,15.2436429 42.8018433,14.3801429 42.8018433,13.3571429 Z M22.9861751,28.2857143 L13.4746544,28.2857143 C13.0371244,28.2857143 12.6820276,27.9345 12.6820276,27.5 C12.6820276,27.0655 13.0371244,26.7142857 13.4746544,26.7142857 L22.9861751,26.7142857 C23.4244977,26.7142857 23.7788018,27.0655 23.7788018,27.5 C23.7788018,27.9345 23.4244977,28.2857143 22.9861751,28.2857143 Z" id="Shape" fill="#632380" fill-rule="nonzero"></path>
            <path d="M22.1935484,22 L22.1935484,7.85714286 L12.6820276,7.85714286 L12.6820276,22 L22.1935484,22 Z M15.0599078,11 L19.8156682,11 C20.1160737,11 20.3911152,11.1681429 20.5250691,11.4352857 C20.659023,11.7016429 20.6296959,12.0206429 20.448977,12.2587143 C19.2846083,13.7908571 17.437788,16.7239286 17.437788,18.0714286 C17.437788,18.5059286 17.0826912,18.8571429 16.6451613,18.8571429 C16.2076313,18.8571429 15.8525346,18.5059286 15.8525346,18.0714286 C15.8525346,16.467 17.2919447,14.0501429 18.2874839,12.5714286 L15.0599078,12.5714286 C14.6223779,12.5714286 14.2672811,12.2194286 14.2672811,11.7857143 C14.2672811,11.352 14.6223779,11 15.0599078,11 Z" id="Shape" fill="#632380" fill-rule="nonzero"></path>
            <path d="M0.792626728,22 L11.0967742,22 L11.0967742,7.85714286 L0.792626728,7.85714286 C0.355096774,7.85714286 0,8.20914286 0,8.64285714 L0,21.2142857 C0,21.6487857 0.355096774,22 0.792626728,22 Z M3.96313364,11 L8.71889401,11 C9.01929954,11 9.29434101,11.1681429 9.42829493,11.4352857 C9.56224885,11.7016429 9.53292166,12.0206429 9.35220276,12.2587143 C8.1878341,13.7908571 6.34101382,16.7239286 6.34101382,18.0714286 C6.34101382,18.5059286 5.98591705,18.8571429 5.5483871,18.8571429 C5.11085714,18.8571429 4.75576037,18.5059286 4.75576037,18.0714286 C4.75576037,16.467 6.19517051,14.0501429 7.19070968,12.5714286 L3.96313364,12.5714286 C3.52560369,12.5714286 3.17050691,12.2194286 3.17050691,11.7857143 C3.17050691,11.352 3.52560369,11 3.96313364,11 Z" id="Shape" fill="#632380" fill-rule="nonzero"></path>
            <path d="M34.0829493,7.85714286 L23.7788018,7.85714286 L23.7788018,22 L34.0829493,22 C34.5212719,22 34.875576,21.6487857 34.875576,21.2142857 L34.875576,8.64285714 C34.875576,8.20914286 34.5212719,7.85714286 34.0829493,7.85714286 Z M31.5457512,12.2587143 C30.3813825,13.7908571 28.5345622,16.7239286 28.5345622,18.0714286 C28.5345622,18.5059286 28.1802581,18.8571429 27.7419355,18.8571429 C27.3036129,18.8571429 26.9493088,18.5059286 26.9493088,18.0714286 C26.9493088,16.467 28.3887189,14.0501429 29.3842581,12.5714286 L26.156682,12.5714286 C25.7183594,12.5714286 25.3640553,12.2194286 25.3640553,11.7857143 C25.3640553,11.352 25.7183594,11 26.156682,11 L30.9124424,11 C31.2128479,11 31.4878894,11.1681429 31.6218433,11.4352857 C31.7557972,11.7016429 31.7256774,12.0206429 31.5457512,12.2587143 Z" id="Shape" fill="#632380" fill-rule="nonzero"></path>
            <path d="M0.792626728,6.28571429 L34.0829493,6.28571429 C34.5212719,6.28571429 34.875576,5.93371429 34.875576,5.5 L34.875576,3.92857143 C34.875576,1.76235714 33.0977143,0 30.9124424,0 L3.96313364,0 C1.77786175,0 0,1.76235714 0,3.92857143 L0,5.5 C0,5.93371429 0.355096774,6.28571429 0.792626728,6.28571429 Z" id="Shape" fill="#632380" fill-rule="nonzero"></path>
        </g>
    </g>
</svg>
