<svg xmlns="http://www.w3.org/2000/svg" width="200" height="200" viewBox="0 0 200 200">
  <g fill="none" fill-rule="nonzero">
    <path fill="none" class="fp-fill-a fp-stroke" stroke-width="3" d="M150 135.9l2 .1h4c5.5 0 10-3.5 10-7.7v-13.6c0-4.2-4.5-7.7-10-7.7h-4l-2 .1V136z"/>
    <path fill="none" class="fp-fill-c" d="M161 83.8v24.4c0 1 .9 1.8 2 1.8s2-.8 2-1.8V83.8c0-1-.9-1.8-2-1.8s-2 .8-2 1.8z"/>
    <circle fill="none" cx="162.5" cy="75.5" r="6.5" class="fp-fill-a fp-stroke" stroke-width="3"/>
    <path fill="none" class="fp-fill-a fp-stroke" stroke-width="3" d="M40 58h104c4.4 0 8 3.5 8 7.8v68.4c0 2-.8 4-2.3 5.5a8 8 0 0 1-5.7 2.3H40c-4.4 0-8-3.5-8-7.8V65.8c0-4.3 3.6-7.8 8-7.8z"/>
    <path fill="none" class="fp-fill-b fp-fill-alt" d="M47 64h93a8 8 0 0 1 5.7 2.3A7.8 7.8 0 0 1 148 72V106c0 2.1-.8 4.1-2.3 5.6a8 8 0 0 1-5.7 2.3H47a8 8 0 0 1-5.7-2.3A7.8 7.8 0 0 1 39 106V72a8 8 0 0 1 8-7.9z"/>
    <path fill="none" class="fp-fill-c" d="M46.7 118h67.6c4.3 0 7.7 3.5 7.7 7.8v1.4a7.6 7.6 0 0 1-7.7 7.8H46.7c-2 0-4-.8-5.5-2.3a7.9 7.9 0 0 1-2.2-5.5v-1.4c0-4.3 3.4-7.8 7.7-7.8zM135.5 118h3c4.7 0 8.5 3.5 8.5 7.8v1.4c0 2-.9 4-2.5 5.5a9 9 0 0 1-6 2.3h-3a9 9 0 0 1-6-2.3 7.5 7.5 0 0 1-2.5-5.5v-1.4c0-4.3 3.8-7.8 8.5-7.8zM46.6 87.8l3.2-1.1s-.5-4 3.1-5c9.1-2.6 12.2 1 12.1 3 0 1.4-3 4.4-5.6 7.4-1.8 2.3-6.9 7.3-7.3 11.9h17.3c-.2-2.7-1.1-8-.5-10.6 2.5-9 4.1-17.3 4.1-17.3-.7-.4-1.5-.3-2.2 0-1.3.7-2.8 2.5-5.1.7-5.4-4.3-9.8-3-14.7.1-2.6 1.8-4.3.4-5.4 0-.6-.2-1.2 0-1.6.4l1 3.7 1.6 6.8zM78.6 87.8l3.1-1.1s-.4-4 3.2-5c9.1-2.6 12.2 1 12.1 3 0 1.4-3 4.4-5.6 7.4-1.8 2.3-6.9 7.3-7.3 11.9h17.3c-.2-2.7-1.1-8-.5-10.6 2.5-9 4.1-17.3 4.1-17.3-.7-.4-1.5-.3-2.2 0-1.3.7-2.8 2.5-5.1.7-5.4-4.3-9.8-3-14.7.1-2.6 1.8-4.3.4-5.4 0-.6-.2-1.2 0-1.6.4l1 3.7 1.6 6.8zM111.6 87.8l3.2-1.1s-.5-4 3.1-5c9.1-2.6 12.2 1 12.1 3 0 1.4-3 4.4-5.6 7.4-1.8 2.3-6.9 7.3-7.3 11.9h17.3c-.2-2.7-1.1-8-.5-10.6 2.5-9 4.1-17.3 4.1-17.3-.7-.4-1.5-.3-2.2 0-1.3.7-2.8 2.5-5.1.7-5.4-4.3-9.9-3-14.7.1-2.6 1.8-4.3.4-5.4 0-.6-.2-1.2 0-1.6.4l1 3.7 1.6 6.8z"/>
  </g>
</svg>
