<?xml version="1.0" encoding="UTF-8"?>
<svg width="53px" height="35px" viewBox="0 0 53 35" version="1.1" xmlns="http://www.w3.org/2000/svg">
    <!-- Generator: Sketch 49.3 (51167) - http://www.bohemiancoding.com/sketch -->
    <title>game-prov</title>
    <desc>Created with Sketch.</desc>
    <defs></defs>
    <g id="game-prov" stroke="none" stroke-width="1" fill="none" fill-rule="evenodd">
        <path d="M8,25 L8,28.0045714 C8,29.8132857 9.408,31.2857143 11.1428571,31.2857143 L26.0714286,31.2857143 L26.0714286,32.8571429 L15.8571429,32.8571429 C15.4234286,32.8571429 15.0714286,33.2091429 15.0714286,33.6428571 C15.0714286,34.0765714 15.4234286,34.4285714 15.8571429,34.4285714 L37.8571429,34.4285714 C38.2892857,34.4285714 38.6428571,34.0765714 38.6428571,33.6428571 C38.6428571,33.2091429 38.2892857,32.8571429 37.8571429,32.8571429 L27.6428571,32.8571429 L27.6428571,31.2857143 L42.5714286,31.2857143 C44.3047143,31.2857143 45.7142857,29.8132857 45.7142857,28.0045714 L45.7142857,25 L8,25 Z" id="Fill-1" fill="#662482"></path>
        <path d="M42.5714286,1 L11.1428571,1 C9.408,1 8,2.47242857 8,4.28114286 L8,23 L45.7142857,23 L45.7142857,4.28114286 C45.7142857,2.47242857 44.3047143,1 42.5714286,1" id="Fill-4" fill="#662482"></path>
        <path d="M28.6195714,27.309 C28.6195714,28.0318571 28.0334286,28.618 27.3105714,28.618 C26.5861429,28.618 26,28.0318571 26,27.309 C26,26.5861429 26.5861429,26 27.3105714,26 C28.0334286,26 28.6195714,26.5861429 28.6195714,27.309" id="Fill-17" fill="#F6D438"></path>
        <path d="M30.3722857,13.848 L28.5242857,12 L27,13.5242857 L28.8495714,15.3707143 C28.5557143,16.2412857 28.7741429,17.1998571 29.4325714,17.8567143 C29.8882857,18.314 30.498,18.5638571 31.1438571,18.5638571 C31.4707143,18.5638571 31.7897143,18.501 32.0914286,18.3737143 C32.1731429,18.3391429 32.2328571,18.2668571 32.2501429,18.1788571 C32.2674286,18.0924286 32.2407143,18.0028571 32.1794286,17.9384286 L31.1595714,16.8808571 L31.1595714,16.1815714 L31.862,16.1815714 L32.9462857,17.181 C33.0107143,17.2407143 33.0971429,17.2642857 33.1851429,17.247 C33.27,17.2281429 33.3422857,17.1684286 33.3752857,17.0882857 C33.7618571,16.1737143 33.5591429,15.1302857 32.8582857,14.431 C32.214,13.7851429 31.2287143,13.5588571 30.3722857,13.848" id="Fill-11" fill="#F6D438"></path>
        <path d="M33.5745714,6.88619317 L32.7668571,6.07847889 C32.6741429,5.98733603 32.5295714,5.97319317 32.4242857,6.04862174 L30.5165714,7.3717646 C30.4505714,7.41733603 30.4081429,7.48962174 30.4018571,7.5697646 C30.3955714,7.64833603 30.4238571,7.72690746 30.4788571,7.78347889 L30.9848571,8.28790746 L25.6168571,13.6574789 L24.6645714,12.7051932 C24.5592857,12.5999075 24.388,12.5999075 24.2842857,12.7051932 C24.179,12.8104789 24.179,12.9801932 24.2842857,13.0854789 L24.663,13.4657646 L21.3158571,16.8144789 C21.1115714,17.0187646 21,17.2890503 21,17.5766217 C21,17.8641932 21.1115714,18.1344789 21.3142857,18.3371932 C21.5185714,18.5414789 21.7888571,18.6530503 22.0764286,18.6530503 C22.364,18.6530503 22.6342857,18.5414789 22.8385714,18.3371932 L26.1857143,14.9900503 L26.566,15.370336 C26.6194286,15.4221932 26.6885714,15.4489075 26.7561429,15.4489075 C26.8252857,15.4489075 26.8944286,15.4221932 26.9462857,15.370336 C27.0531429,15.2650503 27.0531429,15.0937646 26.9462857,14.9900503 L25.9955714,14.0377646 L31.3651429,8.66819317 L31.8114286,9.11605031 C31.8617143,9.16633603 31.9308571,9.19462174 32.0031429,9.19462174 C32.0094286,9.19462174 32.0157143,9.19462174 32.022,9.19462174 C32.1005714,9.18990746 32.1697143,9.14905031 32.2184286,9.08619317 L33.5997143,7.23819317 C33.6798571,7.1297646 33.6704286,6.98205031 33.5745714,6.88619317" id="Fill-13" fill="#F6D438"></path>
        <path d="M24.194081,10.7228995 L26.1316525,12.6557567 L27.6575096,11.1314709 L25.7183667,9.19075666 C26.0122239,8.3186138 25.7922239,7.3616138 25.1353667,6.70318523 C24.4439382,6.01332808 23.4052239,5.8106138 22.5173667,6.18618523 C22.4372239,6.21918523 22.3775096,6.28989951 22.3586525,6.37475666 C22.3382239,6.4596138 22.3617953,6.5476138 22.4199382,6.61204237 L23.3596525,7.67275666 L23.3596525,8.37675666 L22.6556525,8.37675666 L21.6216525,7.41818523 C21.5572239,7.35847094 21.4692239,7.33489951 21.3827953,7.35218523 C21.2963667,7.3726138 21.224081,7.43075666 21.191081,7.51247094 C20.8076525,8.4176138 21.0119382,9.45318523 21.708081,10.1493281 C22.3492239,10.7920424 23.336081,11.0136138 24.194081,10.7228995" id="Fill-8" fill="#F6D438"></path>
    </g>
</svg>
