<svg xmlns="http://www.w3.org/2000/svg" width="200" height="200" viewBox="0 0 200 200">
  <g class="fp-fill-a fp-stroke" fill-rule="nonzero" stroke-width="3">
    <path d="M77.1 97.6l6.2-2s-1-7.7 6.2-9.7c18-5 24 1.8 23.8 5.9 0 2.6-6 8.3-11 14.3-3.6 4.3-13.5 14-14.4 22.9h34c-.4-5.2-2.2-15.6-.9-20.4 4.9-17.4 8-33.6 8-33.6s-1.8-1-4.3.1c-2.5 1.2-5.6 4.7-10 1.3-10.7-8.4-19.4-6-28.9.3-5.2 3.4-8.5.6-10.7-.1-2-.7-3.1.7-3.1.7l2.1 7.2 3 13.1zM140.1 97.6l6.2-2s-1-7.7 6.2-9.7c18-5 24 1.8 23.8 5.9 0 2.6-6 8.3-11 14.3-3.6 4.3-13.5 14-14.4 22.9h34c-.4-5.2-2.2-15.6-.9-20.4 4.9-17.4 8-33.6 8-33.6s-1.8-1-4.3.1c-2.5 1.2-5.6 4.7-10 1.3-10.7-8.4-19.4-6-28.9.3-5.2 3.4-8.5.6-10.7-.1-2-.7-3.1.7-3.1.7l2.1 7.2 3 13.1zM13.1 97.6l6.2-2s-1-7.7 6.2-9.7c18-5 24 1.8 23.8 5.9 0 2.6-6 8.3-11 14.3-3.6 4.3-13.5 14-14.4 22.9h34c-.4-5.2-2.2-15.6-.9-20.4C62 91.2 65 75 65 75s-1.8-1-4.3.1c-2.5 1.2-5.6 4.7-10 1.3-10.7-8.4-19.4-6-28.9.3-5.2 3.4-8.5.6-10.7-.1-2-.7-3.1.7-3.1.7l2.1 7.2 3 13.1z"/>
  </g>
</svg>
