<?xml version="1.0" encoding="UTF-8"?>
<svg width="53px" height="35px" viewBox="0 0 53 35" version="1.1" xmlns="http://www.w3.org/2000/svg">
    <!-- Generator: Sketch 49.3 (51167) - http://www.bohemiancoding.com/sketch -->
    <title>game-search</title>
    <desc>Created with Sketch.</desc>
    <defs></defs>
    <g id="game-search" stroke="none" stroke-width="1" fill="none" fill-rule="evenodd">
        <g id="Group-36" transform="translate(10.000000, 2.000000)">
            <ellipse id="Oval" fill="#FFDE07" cx="7.65562749" cy="23.3128765" rx="6.26369522" ry="6.25188253"></ellipse>
            <ellipse id="Oval" fill="#FFDE07" cx="25.750747" cy="23.3128765" rx="6.26369522" ry="6.25188253"></ellipse>
            <path d="M25.750747,29.6136627 C22.297363,29.6136627 19.4870518,26.8086514 19.4870518,23.3617801 C19.4870518,19.9121303 22.297363,17.1098976 25.750747,17.1098976 C29.202739,17.1098976 32.0144422,19.9121303 32.0144422,23.3617801 C32.0144422,26.8086514 29.202739,29.6136627 25.750747,29.6136627 M22.9668825,12.9419759 C22.9668825,13.3226461 22.6536977,13.6366295 22.2709163,13.6366295 C21.886743,13.6366295 21.5749502,13.3226461 21.5749502,12.9419759 C21.5749502,12.1292312 20.1551793,11.2386852 18.0951195,10.952488 L18.0951195,23.3617801 C18.0951195,27.5727703 21.5290164,31.0029699 25.750747,31.0029699 C29.9710857,31.0029699 33.4063745,27.5727703 33.4063745,23.3617801 C33.4063745,21.6890542 32.8593451,20.1469232 31.9434537,18.8882108 L27.7815762,9.193625 C27.7467779,9.11165587 27.6966683,9.03802259 27.6340314,8.97550377 L25.6519198,6.99851958 L23.6169148,1.66635843 C23.5807246,1.57327485 23.5264392,1.49130572 23.4582346,1.42184036 C22.1317231,0.0978305723 19.6248531,0.0978305723 18.2997336,1.42184036 C18.1688919,1.55243524 18.0951195,1.72887726 18.0951195,1.91226581 L18.0951195,9.54928765 C20.9499726,9.88133208 22.9668825,11.2275708 22.9668825,12.9419759" id="Fill-107" fill="#662482"></path>
            <path d="M7.65562749,29.6136627 C4.20224353,29.6136627 1.39193227,26.8086514 1.39193227,23.3617801 C1.39193227,19.9121303 4.20224353,17.1098976 7.65562749,17.1098976 C11.1076195,17.1098976 13.9193227,19.9121303 13.9193227,23.3617801 C13.9193227,26.8086514 11.1076195,29.6136627 7.65562749,29.6136627 M0,23.3617801 C0,27.5727703 3.43389691,31.0029699 7.65562749,31.0029699 C11.8759661,31.0029699 15.311255,27.5727703 15.311255,23.3617801 L15.311255,10.952488 C13.2511952,11.2386852 11.8314243,12.1292312 11.8314243,12.9419759 C11.8314243,13.3226461 11.5182395,13.6366295 11.1354582,13.6366295 C10.7512849,13.6366295 10.439492,13.3226461 10.439492,12.9419759 C10.439492,11.2275708 12.45501,9.88133208 15.311255,9.54928765 L15.311255,1.82751807 C15.311255,1.64274021 15.2374826,1.46490889 15.1066409,1.33431401 C13.7801295,0.0103042169 11.2732595,0.0103042169 9.94813994,1.33431401 C9.87715139,1.40377937 9.82286604,1.4871378 9.7866758,1.58161069 L7.75167082,6.99851958 L5.77234313,8.97550377 C5.70970618,9.03802259 5.65820468,9.11165587 5.62340637,9.193625 L1.46152888,18.8882108 C0.547029382,20.1469232 0,21.6890542 0,23.3617801" id="Fill-109" fill="#662482"></path>
            <path d="M7.65562749,19.888512 C8.03840886,19.888512 8.35159363,19.5745286 8.35159363,19.1938584 C8.35159363,18.8090203 8.03840886,18.4992048 7.65562749,18.4992048 C4.96780627,18.4992048 2.78386454,20.6776386 2.78386454,23.3617801 C2.78386454,23.7424503 3.09565737,24.0564337 3.47983068,24.0564337 C3.86261205,24.0564337 4.17579681,23.7424503 4.17579681,23.3617801 C4.17579681,21.4445361 5.73615289,19.888512 7.65562749,19.888512" id="Fill-111" fill="#662482"></path>
            <path d="M25.750747,19.888512 C26.1335284,19.888512 26.4467131,19.5745286 26.4467131,19.1938584 C26.4467131,18.8090203 26.1335284,18.4992048 25.750747,18.4992048 C23.0629258,18.4992048 20.8789841,20.6776386 20.8789841,23.3617801 C20.8789841,23.7424503 21.1907769,24.0564337 21.5749502,24.0564337 C21.9577316,24.0564337 22.2709163,23.7424503 22.2709163,23.3617801 C22.2709163,21.4445361 23.8312724,19.888512 25.750747,19.888512" id="Fill-113" fill="#662482"></path>
        </g>
    </g>
</svg>
