<?xml version="1.0" encoding="UTF-8"?>
<svg width="53px" height="35px" viewBox="0 0 53 35" version="1.1" xmlns="http://www.w3.org/2000/svg">
    <!-- Generator: Sketch 49.3 (51167) - http://www.bohemiancoding.com/sketch -->
    <title>game-slots-mostPopular</title>
    <desc>Created with Sketch.</desc>
    <defs></defs>
    <g id="game-slots-mostPopular" stroke="none" stroke-width="1" fill="none" fill-rule="evenodd">
        <g id="Group-1268" transform="translate(15.000000, 1.000000)">
            <ellipse id="Oval-2" fill="#FFDE07" cx="12.5765175" cy="25.0075301" rx="6.98695414" ry="6.94653614"></ellipse>
            <path d="M12.258611,29.1754518 C10.230997,29.1754518 8.49823233,27.7333509 8.14050027,25.7452523 C8.09857855,25.5146273 8.17683243,25.278445 8.34731412,25.1186747 C8.51919319,24.9575151 8.75814702,24.8936069 8.98871651,24.9477899 C9.065573,24.9644616 9.14941645,24.9741867 9.23884946,24.9741867 C10.1723065,24.9741867 11.4886487,24.0266792 12.1733702,22.8610505 C12.4752066,22.3497854 12.9070004,21.3605986 12.4109266,20.4853351 C12.2893536,20.2699925 12.2921484,20.0060241 12.4165162,19.7948494 C12.5422814,19.5808961 12.7728509,19.4503012 13.020189,19.4503012 C13.7943436,19.4503012 14.4944364,19.747613 15.043611,20.3116717 C16.1517419,21.448125 16.4968974,23.4945745 16.4507835,25.0283697 C16.3795166,27.3526807 14.5377555,29.1754518 12.258611,29.1754518 M8.38504367,0.048625753 C8.09298899,-0.066686747 7.76040997,0.0277861446 7.57176221,0.276472139 C7.38451184,0.522379518 7.38451184,0.866927711 7.57176221,1.1142244 C11.0470732,5.66837349 11.2399131,12.8510919 8.14329506,16.9926167 C7.420844,15.9937048 6.9624998,14.9475565 6.71795641,13.7541416 C6.67184251,13.5235166 6.51114257,13.3331815 6.28895743,13.2470444 C6.06816967,13.1609074 5.81943411,13.1900828 5.62659417,13.3290136 C1.66778595,16.1493072 0.0719656277,20.9535316 1.56437903,25.5660316 C3.09032982,30.2910655 7.3132449,33.3433735 12.3214936,33.3433735 C17.8984804,33.3433735 21.7091652,30.1340738 22.773977,24.5379443 C24.3921556,16.0590023 18.9940348,4.19570783 8.38504367,0.048625753" id="Fill-615" fill="#662482"></path>
        </g>
    </g>
</svg>
