<?xml version="1.0" encoding="UTF-8"?>
<svg width="25px" height="25px" viewBox="0 0 25 25" version="1.1" xmlns="http://www.w3.org/2000/svg">
    <rect x="11" y="0" width="3" height="11"></rect>
    <path d="M8.23501475,5.14583757 C5.70262511,6.61764859 4,9.35998959 4,12.5 C4,17.1944204 7.80557963,21 12.5,21 C17.1944204,21 21,17.1944204 21,12.5 C21,9.35998959 19.2973749,6.61764859 16.7649852,5.14583757 L18.574641,2.73349762 C21.8321775,4.76393739 24,8.37880767 24,12.5 C24,18.8512746 18.8512746,24 12.5,24 C6.14872538,24 1,18.8512746 1,12.5 C1,8.37880767 3.16782246,4.76393739 6.42535895,2.73349762 L8.23501475,5.14583757 Z" fill-rule="nonzero"></path>
</svg>
