<?xml version="1.0" encoding="UTF-8"?>
<svg width="25px" height="25px" viewBox="0 0 25 25" version="1.1" xmlns="http://www.w3.org/2000/svg">
    <!-- Generator: Sketch 49.3 (51167) - http://www.bohemiancoding.com/sketch -->
    <title>icon-pnp-casino</title>
    <desc>Created with Sketch.</desc>
    <defs></defs>
    <g id="icon-pnp-casino" stroke="none" stroke-width="1" fill="none" fill-rule="evenodd">
        <path d="M18.938,0.2568 C18.849,0.0988 18.682,-0.000199999999 18.501,-0.000199999999 L10.5,-0.000199999999 C10.27,-0.000199999999 10.071,0.1558 10.015,0.3788 L7.015,12.3788 C6.977,12.5278 7.011,12.6858 7.106,12.8068 C7.201,12.9288 7.346,12.9998 7.5,12.9998 L10.846,12.9998 L8.018,23.3678 C7.954,23.6048 8.07,23.8538 8.293,23.9558 C8.511,24.0548 8.777,23.9858 8.917,23.7778 L18.917,8.7778 C19.018,8.6238 19.028,8.4268 18.941,8.2638 C18.854,8.1018 18.684,7.9998 18.501,7.9998 L14.402,7.9998 L18.924,0.7648 C19.02,0.6108 19.026,0.4158 18.938,0.2568" id="Fill-47" fill="#E0D3E6"></path>
        <path d="M18.7391122,1.06061235 C18.6671588,1.02143271 18.585609,0.9998 18.501,0.9998 L10.5,0.9998 C10.27,0.9998 10.071,1.1558 10.015,1.3788 L7.14650743,12.8527703 C7.13218314,12.8383824 7.1186484,12.8230432 7.106,12.8068 C7.011,12.6858 6.977,12.5278 7.015,12.3788 L10.015,0.3788 C10.071,0.1558 10.27,-0.000199999999 10.5,-0.000199999999 L18.501,-0.000199999999 C18.682,-0.000199999999 18.849,0.0988 18.938,0.2568 C19.026,0.4158 19.02,0.6108 18.924,0.7648 L18.7391122,1.06061235 Z M15.0270173,7.9998 L18.501,7.9998 C18.684,7.9998 18.854,8.1018 18.941,8.2638 C19.028,8.4268 19.018,8.6238 18.917,8.7778 L18.731159,9.05656145 C18.6611049,9.01994971 18.5823365,8.9998 18.501,8.9998 L14.402,8.9998 L15.0270173,7.9998 Z M8.15573813,23.8628251 C8.02579337,23.7386744 7.9688786,23.5497027 8.018,23.3678 L10.5732377,13.9998 L10.846,13.9998 L8.15573813,23.8628251 Z" id="Combined-Shape" fill="#BBA9C2"></path>
    </g>
</svg>
