<?xml version="1.0" encoding="UTF-8"?>
<svg width="25px" height="25px" viewBox="0 0 25 25" version="1.1" xmlns="http://www.w3.org/2000/svg">
    <!-- Generator: Sketch 49.3 (51167) - http://www.bohemiancoding.com/sketch -->
    <title>icon-pnp-favorite</title>
    <desc>Created with Sketch.</desc>
    <defs></defs>
    <g id="icon-pnp-favorite" stroke="none" stroke-width="1" fill="none" fill-rule="evenodd">
        <path d="M25.0000274,9.99487112 L25.0000274,11.1120711 C24.9824499,11.1872661 24.9629174,11.2644161 24.9502224,11.3425411 C24.7929949,12.5651911 24.3955224,13.7439161 23.7802974,14.8122911 C23.2617474,15.6628661 22.6650724,16.4636661 22.0000224,17.2048661 C21.1464974,18.1833911 20.2275724,19.1033161 19.2500224,19.9578661 C18.3525724,20.7381411 17.4404474,21.5027911 16.5000224,22.2078661 C15.2500224,23.1482911 13.9502724,24.0301411 12.6747724,24.9431161 L12.6747724,24.9421394 C12.5878574,25.0192869 12.4569999,25.0192869 12.3700724,24.9421394 C11.2479974,24.1520886 10.0946724,23.3972136 9.00282236,22.5642136 C7.85242236,21.6862886 6.75282236,20.7595136 5.64257236,19.8142136 L5.64257236,19.8151911 C4.24609736,18.6267161 2.98832236,17.2849411 1.89257261,15.8151911 C1.06054761,14.7038661 0.484372609,13.4235911 0.202147509,12.0651911 C0.115232509,11.7448911 0.0576175085,11.4519161 0,11.1472161 L0,9.99486612 C0.014648501,9.92943612 0.0273450085,9.86693612 0.0429700085,9.80248362 C0.153322509,9.30248362 0.222657509,8.80248362 0.380870109,8.30248362 L0.379893359,8.30248362 C0.907243359,6.64818362 2.04689336,5.25748362 3.56539236,4.41473362 C4.97846736,3.58953362 6.64064236,3.29950862 8.24989236,3.59735862 C9.81921736,3.85615862 11.2508924,4.65205862 12.2996424,5.84735862 C12.3513999,5.91767112 12.3953449,5.99286612 12.4324549,6.07196862 C12.7049049,5.79951862 12.9070549,5.58954362 13.1199549,5.39226862 C14.4187799,4.17839362 16.1287049,3.50066862 17.9062049,3.49481862 C19.6837049,3.48896862 21.3984549,4.15496862 22.7049549,5.36004362 C23.7205799,6.28289362 24.4393299,7.48699362 24.7674549,8.82004362 C24.8778074,9.20186862 24.9276124,9.59739362 24.9998774,9.99484362 L25.0000274,9.99487112 Z" id="Page-1" class="fp-icon-svg__current-color"></path>
        <path d="M25.0000274,10.9948711 C24.9276124,10.5973936 24.8778074,10.2018686 24.7674549,9.82004362 C24.4393299,8.48699362 23.7205799,7.28289362 22.7049549,6.36004362 C21.3984549,5.15496862 19.6837049,4.48896862 17.9062049,4.49481862 C16.1287049,4.50066862 14.4187799,5.17839362 13.1199549,6.39226862 C12.9070549,6.58954362 12.7049049,6.79951862 12.4324549,7.07196862 C12.3953449,6.99286612 12.3513999,6.91767112 12.2996424,6.84735862 C11.2508924,5.65205862 9.81921736,4.85615862 8.24989236,4.59735862 C6.64064236,4.29950862 4.97846736,4.58953362 3.56539236,5.41473362 C2.04689336,6.25748362 0.907243359,7.64818362 0.379893359,9.30248362 L0.380870109,9.30248362 C0.222657509,9.80248362 0.153322509,10.3024836 0.0429700085,10.8024836 C0.0273450085,10.8669361 0.014648501,10.9294361 0,10.9948711 L0,9.99486612 C0.014648501,9.92943612 0.0273450085,9.86693612 0.0429700085,9.80248362 C0.153322509,9.30248362 0.222657509,8.80248362 0.380870109,8.30248362 L0.379893359,8.30248362 C0.907243359,6.64818362 2.04689336,5.25748362 3.56539236,4.41473362 C4.97846736,3.58953362 6.64064236,3.29950862 8.24989236,3.59735862 C9.81921736,3.85615862 11.2508924,4.65205862 12.2996424,5.84735862 C12.3513999,5.91767112 12.3953449,5.99286612 12.4324549,6.07196862 C12.7049049,5.79951862 12.9070549,5.58954362 13.1199549,5.39226862 C14.4187799,4.17839362 16.1287049,3.50066862 17.9062049,3.49481862 C19.6837049,3.48896862 21.3984549,4.15496862 22.7049549,5.36004362 C23.7205799,6.28289362 24.4393299,7.48699362 24.7674549,8.82004362 C24.8778074,9.20186862 24.9276124,9.59739362 24.9998774,9.99484362 L25.0000274,9.99487112 L25.0000274,10.9948711 Z" id="Combined-Shape" fill="#000000" opacity="0.4"></path>
    </g>
</svg>
