<?xml version="1.0" standalone="no"?><!-- Generator: Adobe Fireworks CS6, Export SVG Extension by Aaron Beall (http://fireworks.abeall.com) . Version: 0.6.1  --><!DOCTYPE svg PUBLIC "-//W3C//DTD SVG 1.1//EN" "http://www.w3.org/Graphics/SVG/1.1/DTD/svg11.dtd"><svg id="Untitled-Page%201" viewBox="0 0 18 21" style="background-color:#ffffff00" version="1.1"	xmlns="http://www.w3.org/2000/svg" xmlns:xlink="http://www.w3.org/1999/xlink" xml:space="preserve"	x="0px" y="0px" width="18px" height="21px">	<g id="Layer%201">		<path id="Refresh" d="M 17.0986 13.119 C 16.429 15.3081 14.979 17.0957 13.0154 18.1514 C 12.9292 18.1976 12.8372 18.2196 12.7469 18.2196 C 12.5349 18.2196 12.3311 18.0997 12.2271 17.8913 C 12.0784 17.5927 12.1904 17.2264 12.4773 17.072 C 14.1632 16.1648 15.4087 14.63 15.9834 12.7504 C 16.5587 10.8707 16.3948 8.8707 15.5223 7.1187 C 14.5991 5.2651 13.0143 3.8987 11.0701 3.3694 C 10.8315 3.3042 10.5876 3.2567 10.3425 3.2175 L 11.4575 5.0151 C 11.5803 5.2247 11.5667 5.5286 11.3591 5.6463 L 11.2233 5.7448 C 11.0154 5.8624 10.7485 5.7882 10.6257 5.578 L 8.8945 2.7668 C 8.8923 2.7632 8.8889 2.7608 8.8872 2.7572 L 8.7758 2.5672 C 8.7141 2.4628 8.7009 2.3429 8.7295 2.2348 C 8.7568 2.1267 8.8254 2.03 8.9294 1.9706 L 9.1174 1.8637 C 9.1208 1.8613 9.1248 1.8619 9.1282 1.8596 L 11.9312 0.3682 C 12.1379 0.2506 12.4053 0.3248 12.5287 0.535 L 12.5881 0.6947 C 12.7109 0.9049 12.5876 1.1709 12.3801 1.289 L 10.8763 2.0814 C 11.041 2.1154 11.2058 2.1492 11.3672 2.1933 C 13.6307 2.8095 15.4863 4.4013 16.561 6.56 C 17.5774 8.6 17.7683 10.9294 17.0986 13.119 ZM 8.8745 18.39 C 8.8472 18.4981 8.7786 18.5948 8.6746 18.6542 L 8.4867 18.7611 C 8.4832 18.7635 8.4792 18.7628 8.4758 18.7652 L 5.6729 20.2566 C 5.4661 20.3742 5.2535 20.3 5.1301 20.0898 L 5.0708 19.9301 C 4.948 19.7199 5.0165 19.4539 5.2239 19.3358 L 6.7554 18.5289 C 6.7295 18.5221 6.7029 18.5181 6.677 18.5111 C 4.4131 17.8948 2.498 16.3031 1.422 14.1438 C 0.4056 12.1032 0.2148 9.7737 0.8844 7.5844 C 1.554 5.3949 3.0634 3.6074 5.027 2.5516 C 5.3137 2.3966 5.6672 2.5135 5.8154 2.8122 C 5.9639 3.1102 5.8516 3.4771 5.5646 3.6315 C 3.8789 4.5381 2.5745 6.0729 1.9996 7.9526 C 1.4246 9.8325 1.5886 11.8325 2.4612 13.5845 C 3.385 15.4393 5.0293 16.806 6.9727 17.3344 C 7.066 17.3598 7.1616 17.3773 7.2561 17.3987 L 6.1466 15.6096 C 6.0237 15.4001 6.0192 15.0961 6.2266 14.9785 L 6.3809 14.88 C 6.5887 14.7624 6.8556 14.8366 6.9784 15.0468 L 8.7095 17.858 C 8.7117 17.8616 8.7152 17.864 8.7169 17.8676 L 8.8284 18.0575 C 8.89 18.162 8.9032 18.2819 8.8745 18.39 Z" fill="#197f4c"/>	</g></svg>