<?xml version="1.0" standalone="no"?><!-- Generator: Adobe Fireworks CS6, Export SVG Extension by Aaron Beall (http://fireworks.abeall.com) . Version: 0.6.1  --><!DOCTYPE svg PUBLIC "-//W3C//DTD SVG 1.1//EN" "http://www.w3.org/Graphics/SVG/1.1/DTD/svg11.dtd"><svg id="Untitled-Page%201" viewBox="0 0 31 37" style="background-color:#ffffff00" version="1.1"	xmlns="http://www.w3.org/2000/svg" xmlns:xlink="http://www.w3.org/1999/xlink" xml:space="preserve"	x="0px" y="0px" width="31px" height="37px">	<g id="Layer%201">		<path id="Freespins" d="M 30.298 23.3644 C 29.1164 27.3046 26.5578 30.5223 23.0924 32.4225 C 22.9403 32.5058 22.7778 32.5455 22.6187 32.5455 C 22.2445 32.5455 21.8848 32.3295 21.7012 31.9543 C 21.4388 31.4168 21.6366 30.7575 22.1428 30.4796 C 25.1179 28.8466 27.3159 26.0841 28.3303 22.7008 C 29.3454 19.3173 29.0561 15.7174 27.5163 12.5638 C 25.8874 9.2274 23.0905 6.7678 19.6595 5.8151 C 19.2385 5.6977 18.8081 5.6122 18.3756 5.5417 L 20.3433 8.7774 C 20.5599 9.1546 20.5358 9.7017 20.1696 9.9133 L 19.9298 10.0907 C 19.563 10.3024 19.092 10.1688 18.8754 9.7904 L 15.8203 4.7304 C 15.8164 4.7239 15.8104 4.7197 15.8074 4.7131 L 15.6107 4.3712 C 15.502 4.1832 15.4786 3.9672 15.5291 3.7728 C 15.5773 3.5783 15.6984 3.4041 15.882 3.2973 L 16.2136 3.1048 C 16.2197 3.1005 16.2266 3.1017 16.2327 3.0974 L 21.1791 0.4128 C 21.5439 0.2012 22.0157 0.3349 22.2335 0.7131 L 22.3384 1.0007 C 22.5552 1.379 22.3375 1.8577 21.9713 2.0704 L 19.3176 3.4966 C 19.6083 3.5578 19.899 3.6188 20.1838 3.6979 C 24.1784 4.8073 27.4528 7.6724 29.3493 11.558 C 31.143 15.2301 31.4799 19.4231 30.298 23.3644 ZM 15.785 32.8521 C 15.7367 33.0466 15.6157 33.2206 15.4321 33.3276 L 15.1006 33.52 C 15.0944 33.5242 15.0875 33.5233 15.0814 33.5274 L 10.135 36.212 C 9.7701 36.4236 9.395 36.29 9.1772 35.9117 L 9.0726 35.6241 C 8.8558 35.2459 8.9767 34.7672 9.3428 34.5545 L 12.0453 33.102 C 11.9996 33.0899 11.9528 33.0826 11.9071 33.0701 C 7.9118 31.9608 4.5324 29.0956 2.6335 25.2089 C 0.8399 21.5359 0.5032 17.3429 1.6848 13.4021 C 2.8664 9.4608 5.53 6.2436 8.9952 4.343 C 9.5012 4.0639 10.1251 4.2746 10.3866 4.8121 C 10.6486 5.3486 10.4504 6.009 9.944 6.2868 C 6.9692 7.9188 4.6673 10.6813 3.6529 14.0647 C 2.638 17.4486 2.9276 21.0485 4.4673 24.2023 C 6.0976 27.5407 8.9994 30.0008 12.4288 30.952 C 12.5936 30.9976 12.7622 31.0291 12.929 31.0677 L 10.9711 27.8474 C 10.7542 27.4703 10.7462 26.9231 11.1122 26.7114 L 11.3844 26.5341 C 11.7513 26.3224 12.2222 26.4561 12.439 26.8344 L 15.4938 31.8943 C 15.4977 31.9009 15.5039 31.9052 15.5068 31.9117 L 15.7036 32.2536 C 15.8124 32.4416 15.8356 32.6575 15.785 32.8521 Z" fill="#3398da"/>	</g></svg>