<?xml version="1.0" standalone="no"?><!-- Generator: Adobe Fireworks CS6, Export SVG Extension by Aaron Beall (http://fireworks.abeall.com) . Version: 0.6.1  --><!DOCTYPE svg PUBLIC "-//W3C//DTD SVG 1.1//EN" "http://www.w3.org/Graphics/SVG/1.1/DTD/svg11.dtd"><svg id="Untitled-Page%201" viewBox="0 0 24 24" style="background-color:#ffffff00" version="1.1"	xmlns="http://www.w3.org/2000/svg" xmlns:xlink="http://www.w3.org/1999/xlink" xml:space="preserve"	x="0px" y="0px" width="24px" height="24px">	<g id="Layer%201">		<path id="Present" d="M 22.0571 11.9858 L 22.0571 21.953 C 22.0571 22.7987 21.4135 23.4843 20.6196 23.4843 L 3.3766 23.4843 C 2.5828 23.4843 1.9391 22.7987 1.9391 21.953 L 1.9391 11.9858 L 0.489 11.9858 L 0.489 7.4023 C 0.489 6.5566 1.1326 5.871 1.9265 5.871 L 4.4218 5.871 C 3.7738 5.2038 3.3563 4.3287 3.3563 3.2517 C 3.3563 1.9252 4.0715 0.4843 6.079 0.4843 C 8.7203 0.4843 10.9944 3.4805 12.0318 5.1599 C 13.0685 3.4805 15.2753 0.4843 17.9166 0.4843 C 19.924 0.4843 20.6393 1.9252 20.6393 3.2517 C 20.6393 4.3322 20.2232 5.2031 19.5847 5.871 L 22.0515 5.871 C 22.8454 5.871 23.489 6.5566 23.489 7.4023 L 23.489 11.9858 L 22.0571 11.9858 ZM 20.6196 11.9858 L 12.7078 11.9858 L 12.7078 21.953 L 20.6196 21.953 L 20.6196 11.9858 ZM 6.079 2.0157 C 5.1904 2.0157 4.7938 2.3895 4.7938 3.2277 C 4.7938 4.9288 6.6433 5.8702 8.3195 5.8702 L 10.7537 5.8702 C 9.7324 4.2544 7.8668 2.0157 6.079 2.0157 ZM 11.2703 7.4023 L 1.9265 7.4023 L 1.9265 10.4545 L 11.2703 10.4545 L 11.2703 7.4023 ZM 3.3766 11.9858 L 3.3766 21.953 L 11.2703 21.953 L 11.2703 11.9858 L 3.3766 11.9858 ZM 17.9166 2.0157 C 16.1288 2.0157 14.3312 4.2544 13.31 5.8702 L 15.7435 5.8702 C 17.4196 5.8702 19.2018 4.9528 19.2018 3.2517 C 19.2018 2.4135 18.8052 2.0157 17.9166 2.0157 ZM 22.0515 7.4023 L 12.7078 7.4023 L 12.7078 10.4545 L 22.0515 10.4545 L 22.0515 7.4023 Z" fill="#3398da"/>	</g></svg>