<?xml version="1.0" encoding="UTF-8"?>
<svg width="20px" height="20px" viewBox="0 0 20 20" version="1.1" xmlns="http://www.w3.org/2000/svg">
    <!-- Generator: Sketch 49.3 (51167) - http://www.bohemiancoding.com/sketch -->
    <title>icon-pnp-info</title>
    <desc>Created with Sketch.</desc>
    <defs></defs>
    <g id="icon-pnp-info" stroke="none" stroke-width="1" fill="none" fill-rule="evenodd">
        <path d="M10.3647037,2.06275 C5.79396296,2.06275 2.07662963,5.7355 2.07662963,10.2505 C2.07662963,14.76475 5.79396296,18.4375 10.3647037,18.4375 C14.9354444,18.4375 18.6527778,14.76475 18.6527778,10.2505 C18.6527778,5.7355 14.9354444,2.06275 10.3647037,2.06275 M10.3647037,19.50025 C5.20098148,19.50025 1,15.3505 1,10.2505 C1,5.14975 5.20098148,1 10.3647037,1 C15.5284259,1 19.7294074,5.14975 19.7294074,10.2505 C19.7294074,15.3505 15.5284259,19.50025 10.3647037,19.50025" id="Fill-1" fill="#6F457F"></path>
        <path d="M10.3647037,15.75025 C10.0670741,15.75025 9.82638889,15.5125 9.82638889,15.21925 L9.82638889,8.65675 C9.82638889,8.36275 10.0670741,8.125 10.3647037,8.125 C10.6623333,8.125 10.9030185,8.36275 10.9030185,8.65675 L10.9030185,15.21925 C10.9030185,15.5125 10.6623333,15.75025 10.3647037,15.75025" id="Fill-3" fill="#6F457F"></path>
        <path d="M11.1818185,5.751925 C11.1818185,6.197425 10.8166148,6.558925 10.3648556,6.558925 C9.91385556,6.558925 9.54865185,6.197425 9.54865185,5.751925 C9.54865185,5.306425 9.91385556,4.945675 10.3648556,4.945675 C10.8166148,4.945675 11.1818185,5.306425 11.1818185,5.751925" id="Fill-5" fill="#6F457F"></path>
    </g>
</svg>
