<?xml version="1.0" standalone="no"?>
<!-- Generator: Adobe Fireworks CS6, Export SVG Extension by Aaron Beall (http://fireworks.abeall.com) . Version: 0.6.1  -->
<!DOCTYPE svg PUBLIC "-//W3C//DTD SVG 1.1//EN" "http://www.w3.org/Graphics/SVG/1.1/DTD/svg11.dtd">
<svg id="Untitled-Page%201" viewBox="0 0 43 40" version="1.1"
	xmlns="http://www.w3.org/2000/svg" xmlns:xlink="http://www.w3.org/1999/xlink" xml:space="preserve"
	x="0px" y="0px" width="43px" height="40px"
>
<path id="Heart" d="M 12.0698 2.7832 C 13.3848 2.7832 15.7619 3.433 19.6178 7.3535 L 21.5293 9.2969 L 23.4121 7.3223 C 26.0892 4.5143 28.9378 2.7695 30.8462 2.7695 C 33.4197 2.7695 35.4486 3.6785 37.4264 5.7164 C 39.2901 7.6367 40.3169 10.1892 40.3169 12.9049 C 40.3183 15.6218 39.2914 18.177 37.408 20.1178 C 37.2547 20.2787 29.1527 29.3043 22.3637 36.8694 C 22.0448 37.1832 21.678 37.2302 21.4848 37.2302 C 21.293 37.2302 20.9314 37.1843 20.6132 36.8802 C 18.959 34.9801 6.969 21.2145 5.5747 19.7761 C 3.7091 17.8539 2.6822 15.2992 2.6822 12.5824 C 2.6829 9.8668 3.7097 7.3142 5.576 5.3926 C 7.3908 3.5203 9.5151 2.7832 12.0698 2.7832 M 12.0698 0.0137 C 8.8623 0.0137 6.0345 1.0042 3.6802 3.433 C -1.2267 8.486 -1.2267 16.6804 3.6802 21.7363 C 5.0809 23.1823 18.6787 38.8005 18.6787 38.8005 C 19.4534 39.6012 20.4705 40 21.4848 40 C 22.4992 40 23.5143 39.6012 24.2884 38.8005 C 24.2884 38.8005 39.1618 22.226 39.3202 22.0598 C 44.2266 17.0033 44.2266 8.8086 39.3202 3.7555 C 36.8854 1.2455 34.1637 0 30.8462 0 C 27.6765 0 24.1403 2.6101 21.4999 5.3796 C 18.7756 2.6101 15.3493 0.0137 12.0698 0.0137 L 12.0698 0.0137 Z"/>
</svg>
