<?xml version="1.0" standalone="no"?><!-- Generator: Adobe Fireworks CS6, Export SVG Extension by Aaron Beall (http://fireworks.abeall.com) . Version: 0.6.1  --><!DOCTYPE svg PUBLIC "-//W3C//DTD SVG 1.1//EN" "http://www.w3.org/Graphics/SVG/1.1/DTD/svg11.dtd"><svg id="Untitled-Page%201" viewBox="0 0 26 20" style="background-color:#ffffff00" version="1.1"	xmlns="http://www.w3.org/2000/svg" xmlns:xlink="http://www.w3.org/1999/xlink" xml:space="preserve"	x="0px" y="0px" width="26px" height="20px">	<g id="Layer%201">		<path id="Check" d="M 9.2478 20 C 8.933 20 8.6671 19.8835 8.4502 19.65 L 1.0758 11.7233 C 0.6526 11.2568 0.4626 10.691 0.5061 10.026 C 0.5494 9.3611 0.7991 8.8536 1.2549 8.5037 C 1.7107 8.1422 2.1935 7.9962 2.7038 8.0662 C 3.2029 8.1362 3.6317 8.3696 3.9898 8.7662 L 8.4665 13.5606 C 8.6944 13.8057 8.9601 13.9281 9.2641 13.9281 C 9.5679 13.9281 9.8283 13.8057 10.0455 13.5606 L 22.0104 0.6994 C 22.3686 0.3145 22.7971 0.087 23.2965 0.017 C 23.7955 -0.053 24.2732 0.093 24.729 0.4545 C 25.1848 0.8044 25.4397 1.3119 25.4941 1.9768 C 25.5375 2.6418 25.342 3.2076 24.9081 3.6741 L 10.0455 19.65 C 9.8283 19.8835 9.5625 20 9.2478 20 Z" fill="#1d4982"/>	</g></svg>