<?xml version="1.0" encoding="UTF-8"?>
<svg width="20px" height="20px" viewBox="0 0 20 20" version="1.1" xmlns="http://www.w3.org/2000/svg">
    <!-- Generator: Sketch 49.3 (51167) - http://www.bohemiancoding.com/sketch -->
    <title>icon-pnp-arrow</title>
    <desc>Created with Sketch.</desc>
    <defs></defs>
    <g id="icon-pnp-arrow" stroke="none" stroke-width="1" fill="none" fill-rule="evenodd">
        <path d="M17.811463,10.1021 L0.538314815,10.1021 C0.240685185,10.1021 0,9.86435 0,9.5711 C0,9.2771 0.240685185,9.03935 0.538314815,9.03935 L17.811463,9.03935 C18.1090926,9.03935 18.3497778,9.2771 18.3497778,9.5711 C18.3497778,9.86435 18.1090926,10.1021 17.811463,10.1021" id="Fill-4" fill="#6F457F"></path>
        <path d="M14.9805648,13.273475 C14.8423796,13.273475 14.705713,13.221725 14.6001759,13.117475 C14.3898611,12.910475 14.3898611,12.573725 14.6001759,12.366725 L17.4899167,9.512225 L14.6001759,6.657725 C14.3898611,6.449975 14.3898611,6.113225 14.6001759,5.906225 C14.8104907,5.697725 15.1506389,5.697725 15.3609537,5.906225 L18.6310833,9.136475 C18.8413981,9.344225 18.8413981,9.680225 18.6310833,9.887975 L15.3609537,13.117475 C15.2554167,13.221725 15.11875,13.273475 14.9805648,13.273475" id="Fill-1" fill="#6F457F"></path>
    </g>
</svg>
