<?xml version="1.0" encoding="UTF-8"?>
<svg width="20px" height="20px" viewBox="0 0 20 20" version="1.1" xmlns="http://www.w3.org/2000/svg">
    <!-- Generator: Sketch 49.3 (51167) - http://www.bohemiancoding.com/sketch -->
    <title>icon-pnp-enlarge</title>
    <desc>Created with Sketch.</desc>
    <defs></defs>
    <g id="icon-pnp-enlarge" stroke="none" stroke-width="1" fill="none" fill-rule="evenodd">
        <path d="M1.53831481,7.094 C1.24068519,7.094 1,6.85625 1,6.563 L1,3.28175 C1,2.98775 1.24068519,2.75 1.53831481,2.75 L4.86007407,2.75 C5.1577037,2.75 5.39838889,2.98775 5.39838889,3.28175 C5.39838889,3.575 5.1577037,3.81275 4.86007407,3.81275 L2.07662963,3.81275 L2.07662963,6.563 C2.07662963,6.85625 1.83594444,7.094 1.53831481,7.094" id="Fill-1" fill="#6F457F"></path>
        <path d="M19.2385463,7.094 C18.9409167,7.094 18.7002315,6.85625 18.7002315,6.563 L18.7002315,3.81275 L15.916787,3.81275 C15.6191574,3.81275 15.3784722,3.575 15.3784722,3.28175 C15.3784722,2.98775 15.6191574,2.75 15.916787,2.75 L19.2385463,2.75 C19.5361759,2.75 19.7768611,2.98775 19.7768611,3.28175 L19.7768611,6.563 C19.7768611,6.85625 19.5361759,7.094 19.2385463,7.094" id="Fill-4" fill="#6F457F"></path>
        <path d="M19.2385463,16.515875 L15.916787,16.515875 C15.6191574,16.515875 15.3784722,16.278125 15.3784722,15.984875 C15.3784722,15.690875 15.6191574,15.453125 15.916787,15.453125 L18.7002315,15.453125 L18.7002315,12.703625 C18.7002315,12.409625 18.9409167,12.171875 19.2385463,12.171875 C19.5361759,12.171875 19.7768611,12.409625 19.7768611,12.703625 L19.7768611,15.984875 C19.7768611,16.278125 19.5361759,16.515875 19.2385463,16.515875" id="Fill-7" fill="#6F457F"></path>
        <path d="M4.86007407,16.515875 L1.53831481,16.515875 C1.24068519,16.515875 1,16.278125 1,15.984875 L1,12.703625 C1,12.409625 1.24068519,12.171875 1.53831481,12.171875 C1.83594444,12.171875 2.07662963,12.409625 2.07662963,12.703625 L2.07662963,15.453125 L4.86007407,15.453125 C5.1577037,15.453125 5.39838889,15.690875 5.39838889,15.984875 C5.39838889,16.278125 5.1577037,16.515875 4.86007407,16.515875" id="Fill-10" fill="#6F457F"></path>
    </g>
</svg>
