<svg id="4e27c296-d259-4952-a32d-99238d57418c" data-name="Layer 1" xmlns="http://www.w3.org/2000/svg" viewBox="0 0 20 16.083"><title>Untitled-1</title><path d="M14.322,0.792l-0.192-.135a0.551,0.551,0,0,0-.768.133l-1.2,1.71a9.431,9.431,0,0,0-1.84-.257,5.142,5.142,0,0,0-.572-0.035,4.748,4.748,0,0,0-1,.1C5.54,2.725,2.588,4.79.328,8.237L0,8.732,0.251,9.116a14.7,14.7,0,0,0,4.2,4.335L3.3,15.08a0.551,0.551,0,0,0,.133.768l0.192,0.135a0.551,0.551,0,0,0,.768-0.133L14.456,1.56A0.551,0.551,0,0,0,14.322.792Zm-5.308,2.9a8.3,8.3,0,0,1,.935-0.063H9.991a3.446,3.446,0,0,1,1.166.3L7.29,9.415A3.42,3.42,0,0,1,9.014,3.688ZM1.688,8.732a13.107,13.107,0,0,1,3.684-3.7,4.791,4.791,0,0,0,1.111,5.534L5.258,12.3A12.994,12.994,0,0,1,1.688,8.732Z" style="fill-rule:evenodd"/><path d="M19.571,8.237a14.042,14.042,0,0,0-5.026-4.822L12.914,5.73a3.38,3.38,0,0,1,.258,1.3,3.427,3.427,0,0,1-3.426,3.426c-0.053,0-.1,0-0.157,0l-0.9,1.274a4.818,4.818,0,0,0,5.275-7.04,12.616,12.616,0,0,1,4.186,3.935c-2.254,3.3-5.184,5.107-8.275,5.107a8,8,0,0,1-2.346-.355L6.69,14.57a9.442,9.442,0,0,0,3.175.554c3.663,0,7.082-2.135,9.614-6.007l0.328-.5Z" style="fill-rule:evenodd"/></svg>