<?xml version="1.0" encoding="UTF-8"?>
<svg width="25px" height="25px" viewBox="0 0 25 25" version="1.1" xmlns="http://www.w3.org/2000/svg">
    <!-- Generator: Sketch 49.3 (51167) - http://www.bohemiancoding.com/sketch -->
    <title>icon-pnp-star</title>
    <desc>Created with Sketch.</desc>
    <defs></defs>
    <g id="icon-pnp-star" stroke="none" stroke-width="1" fill="none" fill-rule="evenodd">
        <polygon id="Star" fill="#E0D3E6" points="12.5 18.75 5.15268435 22.6127124 6.55589677 14.4313562 0.611793546 8.63728757 8.82634217 7.44364379 12.5 0 16.1736578 7.44364379 24.3882065 8.63728757 18.4441032 14.4313562 19.8473157 22.6127124"></polygon>
        <path d="M5.34119584,22.5136061 L5.15268435,22.6127124 L6.40895046,15.288119 L6.55589677,15.4313562 L5.34119584,22.5136061 Z M1.50459681,9.50755566 L0.611793546,8.63728757 L8.82634217,7.44364379 L12.5,0 L16.1736578,7.44364379 L24.3882065,8.63728757 L23.4954032,9.50755566 L16.1736578,8.44364379 L12.5,1 L8.82634217,8.44364379 L1.50459681,9.50755566 Z M18.5910495,15.288119 L19.8473157,22.6127124 L19.6588042,22.5136061 L18.4441032,15.4313562 L18.5910495,15.288119 Z" id="Combined-Shape" fill="#BBA9C2"></path>
    </g>
</svg>
