<?xml version="1.0" encoding="UTF-8"?>
<svg width="25px" height="25px" viewBox="0 0 25 25" version="1.1" xmlns="http://www.w3.org/2000/svg">
    <!-- Generator: Sketch 49.3 (51167) - http://www.bohemiancoding.com/sketch -->
    <title>icon-pnp-sports</title>
    <desc>Created with Sketch.</desc>
    <defs></defs>
    <g id="icon-pnp-sports" stroke="none" stroke-width="1" fill="none" fill-rule="evenodd">
        <path d="M4.43014995,4.42233953 C2.22510168,6.6273878 1,9.56833018 1,12.6921894 C1,15.8160486 2.22516294,18.7570523 4.43014995,20.9620393 C6.69621133,23.2281006 9.69804431,24.3921892 12.6999998,24.3921892 C15.7019553,24.3921892 18.6726692,23.2591585 20.9698497,20.9620393 C23.1748979,18.756991 24.3999996,15.8160486 24.3999996,12.6921894 C24.3999996,9.56833018 23.1748367,6.62732654 20.9698497,4.42233953 C16.4067303,-0.140779845 8.99449449,-0.140779845 4.43014995,4.42233953 Z M19.6524932,5.73963473 C19.9276771,6.01481858 20.2040616,6.32109706 20.4493392,6.65850694 L19.4694539,9.93551152 L15.8861586,11.1917936 L13.2515682,9.26191693 L13.2515682,5.37233088 L15.9770656,3.41256024 C17.3254494,3.87080181 18.5805369,4.63652865 19.6525545,5.73966536 L19.6524932,5.73963473 Z M5.71626475,5.73963473 C6.81940146,4.63649802 8.13547149,3.8408772 9.54489894,3.3814411 L12.3326347,5.40345002 L12.3326347,9.29303607 L9.66815033,11.2528067 L5.83951614,10.119776 L4.73637943,6.96467516 C5.01275781,6.47411991 5.3489609,6.10681606 5.71626475,5.73951221 L5.71626475,5.73963473 Z M2.8376219,13.0296605 L5.56311938,10.9466385 L9.39175357,12.0796692 L10.432652,15.23477 L8.319736,18.5727265 L4.98177956,18.7868911 C3.66448437,17.1334112 2.92987667,15.1426439 2.83774441,13.0295441 L2.8376219,13.0296605 Z M10.3417449,22.2483991 L9.08546284,19.063588 L11.1995734,15.7553418 L14.5078196,15.7553418 L16.9581455,18.6962229 L16.1314055,21.9435173 C14.262542,22.6159173 12.2405943,22.7080496 10.3418981,22.2486104 L10.3417449,22.2483991 Z M22.5324225,12.6924344 C22.5324225,14.561298 22.0119733,16.3366816 21.0619819,17.8993769 L17.631832,18.1135415 L15.1815061,15.1726604 L16.1925106,12.0488012 L19.7758059,10.7925191 L22.5324225,12.6924712 L22.5324225,12.6924344 Z" id="Fill-1" fill="#E0D3E6"></path>
        <path d="M24.3895057,13.1921951 C24.2660286,10.2555813 23.056806,7.50929583 20.9698497,5.42233953 C16.4067303,0.859220155 8.99449449,0.859220155 4.43014995,5.42233953 C2.34313848,7.509351 1.13396804,10.2555801 1.01049394,13.1921837 C1.00351052,13.0260995 1,12.8594064 1,12.6921894 C1,9.56833018 2.22510168,6.6273878 4.43014995,4.42233953 C8.99449449,-0.140779845 16.4067303,-0.140779845 20.9698497,4.42233953 C23.1748367,6.62732654 24.3999996,9.56833018 24.3999996,12.6921894 C24.3999996,12.8594104 24.3964891,13.0261072 24.3895057,13.1921951 Z" id="Combined-Shape" fill="#BBA9C2"></path>
    </g>
</svg>
