<?xml version="1.0" encoding="utf-8"?>
<!-- Generator: Adobe Illustrator 19.1.0, SVG Export Plug-In . SVG Version: 6.00 Build 0)  -->
<!DOCTYPE svg PUBLIC "-//W3C//DTD SVG 1.1//EN" "http://www.w3.org/Graphics/SVG/1.1/DTD/svg11.dtd">
<svg version="1.1" id="Layer_1" xmlns="http://www.w3.org/2000/svg" xmlns:xlink="http://www.w3.org/1999/xlink" x="0px" y="0px"
	 viewBox="0 0 500 360" enable-background="new 0 0 500 360" xml:space="preserve">
<path fill="#5DCE8B" d="M237.9,214.3l1.2-2.4c0,0-5.7-23-6.8-24c-1.2-1.1-1.3-1-1.4-1.4c-0.1-0.6,0.7-1.5,0.7-1.5s-1,0.4-1.3-0.7
	c-0.1-0.3,0-0.7,0-0.7s-17-21.2-17.3-21.6c-0.4-0.5-3.8-0.5-3.9-1.4c-0.1-0.9-2.7,0.6-2.4-0.8c0.4-1.4,2.2-10.7,31.1-19.7
	c28.9-9,30.1-2,30.1-1.8c0.1,0.2-0.9,3.4-0.9,3.4s11.8,21,13.2,30.6c1.4,9.7,0,18.7,0,18.7l-1.1,12l-31.9,14.8L237.9,214.3z"/>
<g>
	<path fill="#54AF82" d="M233,144.7L233,144.7c-6,1.6-15.4,6-18.5,10.4c-3.6,5.1,1.3,4.7,1.3,4.7s18.2,22.8,18.4,23.7
		c0.2,0.9-1.4,2-1.5,2.9c-0.2,0.9,0.4,0.6,1.1,1.2c0.7,0.6,3.1,9.7,3.1,9.7l22-5.1C254.1,176.1,230,148.2,233,144.7z"/>
	<path fill="#54AF82" d="M273.8,161.3c-5-11.6-9.8-21.4-10.9-22.3c-1.3-0.9-5.8-0.7-6.9,0.1c4.4,3.5,13.3,16.7,15.7,29.1
		c1.7,8.5,1.5,16.3,1.1,20.7l4.7-1.1C277.6,187.9,278.8,172.9,273.8,161.3z"/>
</g>
<path fill="#1C5DC6" d="M280.7,185.6c0,0-13,0.5-22.1,2.7c-9.1,2.3-16.6,5.3-21.9,10.4c-2.8,2.7,3.2,11.4,3.2,11.4l-1.7,3.6
	l10.9,1.3c0,0,12.6-8.1,16.9-10c4.3-1.9,13.5-5.5,13.5-5.5L280.7,185.6z"/>
<g>
	<path fill="#0D4493" d="M257.6,188.6c-8.7,2.3-15.8,5.2-20.9,10.1c-2.8,2.7,3.2,11.4,3.2,11.4l-1.7,3.6l10.9,1.3
		c0,0,9.6-6.1,14.8-9C262.8,202.3,260.2,194.5,257.6,188.6z"/>
	<path fill="#0D4493" d="M273,186.1c-0.1,4-0.5,12.5-1,16.3c2.6-1.1,4.6-1.9,4.6-1.9l1-14.8C277.7,185.8,275.8,185.9,273,186.1z"/>
</g>
<g>
	<g>
		<path fill="#1D7F57" d="M237.7,214.4l1.2-2.5l0,0.1c-1.2-4.6-2.4-9.3-3.7-13.9c-0.6-2.3-1.3-4.6-2-6.9c-0.2-0.6-0.4-1.1-0.6-1.7
			c-0.1-0.3-0.2-0.6-0.3-0.8c-0.1-0.1-0.1-0.3-0.2-0.4c-0.1-0.1-0.1-0.1-0.2-0.3l-0.7-0.6l-0.4-0.3c-0.1-0.1-0.3-0.3-0.3-0.5l0-0.1
			l0-0.1c0,0,0-0.1,0-0.1c0-0.1,0-0.2,0-0.3c0-0.2,0.1-0.3,0.2-0.5c0.2-0.3,0.3-0.6,0.6-0.8l0.4,0.6c-0.1,0.1-0.3,0.1-0.4,0.1
			c-0.1,0-0.3,0-0.4,0c-0.3,0-0.6-0.2-0.7-0.5c-0.2-0.2-0.2-0.4-0.3-0.7c0-0.3,0-0.5,0-0.7l0.1,0.3l-17.1-21.1l-0.3-0.3l-0.1-0.1
			c0.1,0.1-0.1-0.1,0,0c0,0,0.1,0,0,0c0,0,0,0,0,0c-0.2-0.1-0.5-0.1-0.7-0.2c-0.5-0.1-1.1-0.2-1.7-0.3c-0.3-0.1-0.6-0.2-0.9-0.4
			c-0.2-0.1-0.4-0.2-0.5-0.5c0-0.1-0.1-0.1-0.1-0.2l0-0.1l0,0l0,0c0,0,0,0.1,0,0.1c0,0,0,0.1,0.1,0.1c0.1,0.1,0,0,0,0
			c-0.1,0-0.2,0-0.3,0c-0.3,0-0.5,0.1-0.9,0.1c-0.2,0-0.4,0-0.7-0.1c-0.2-0.1-0.3-0.2-0.4-0.4c-0.1-0.2-0.1-0.4-0.1-0.5
			c0-0.1,0-0.2,0-0.3l0.1-0.2c0-0.1,0.1-0.3,0.1-0.4c0.2-0.6,0.4-1.1,0.7-1.7c0.6-1,1.3-2,2-2.9c1.6-1.7,3.3-3.3,5.2-4.5
			c0.9-0.7,1.9-1.2,2.9-1.9c1-0.6,2-1.1,3-1.7c2-1,4.1-2,6.2-2.9l1.6-0.7l1.6-0.6c1.1-0.4,2.1-0.8,3.2-1.2c2.2-0.7,4.3-1.5,6.5-2.1
			c2.2-0.7,4.4-1.3,6.6-1.9c2.2-0.6,4.4-1.1,6.7-1.6c2.2-0.4,4.5-0.8,6.8-1c1.2-0.1,2.3-0.1,3.5,0c1.2,0.1,2.4,0.3,3.6,0.8
			c0.6,0.3,1.2,0.7,1.7,1.2c0.5,0.6,0.8,1.4,0.8,2.1c0,0.9-0.2,1.5-0.3,2.1c-0.2,0.6-0.4,1.1-0.7,1.7l0-1c2.6,4.7,5.1,9.5,7.4,14.3
			c1.1,2.4,2.2,4.9,3.3,7.4c1,2.5,1.9,5.1,2.5,7.8c0.1,0.7,0.3,1.4,0.3,2.1c0.1,0.7,0.2,1.3,0.2,2c0.1,1.4,0.2,2.7,0.3,4.1
			c0.1,2.7,0,5.4-0.2,8.2c-0.1,1.3-0.3,2.8-0.5,4l-0.4,4l-0.8,8l-0.1,0.6l-0.5,0.2l-8,3.6l-8,3.6c-5.4,2.4-10.7,4.8-16.1,7.1
			l-0.2,0.1l-0.1-0.1L237.7,214.4z M238.1,214.2l9.3,3.2l-0.3,0c5.3-2.6,10.5-5.2,15.8-7.7l7.9-3.8l7.9-3.8l-0.6,0.8l0.6-8l0.3-4
			c0.2-1.4,0.3-2.6,0.4-4c0.2-2.6,0.2-5.3,0.1-7.9c-0.1-1.3-0.1-2.6-0.3-3.9c-0.1-0.6-0.1-1.3-0.2-2c-0.1-0.7-0.2-1.2-0.3-1.9
			c-0.6-2.5-1.4-5-2.4-7.5c-1-2.5-2-4.9-3.1-7.3c-2.2-4.8-4.6-9.6-7.2-14.3l-0.3-0.5l0.3-0.5c0.2-0.4,0.4-0.9,0.6-1.4
			c0.2-0.5,0.3-1,0.3-1.3c0-0.4-0.1-0.7-0.4-1c-0.2-0.3-0.6-0.5-1-0.7c-0.9-0.4-1.9-0.6-3-0.7c-1.1-0.1-2.2-0.1-3.3,0
			c-2.2,0.1-4.4,0.5-6.6,0.9c-2.2,0.4-4.4,0.9-6.6,1.5c-2.2,0.6-4.3,1.2-6.5,1.8c-2.2,0.6-4.3,1.4-6.4,2.1c-1.1,0.4-2.1,0.8-3.2,1.2
			l-1.6,0.6l-1.6,0.6c-2.1,0.8-4.1,1.8-6.1,2.8c-1,0.5-2,1-2.9,1.6c-0.9,0.6-1.9,1.1-2.8,1.8c-1.9,1.2-3.6,2.7-5,4.3
			c-0.7,0.8-1.4,1.7-1.9,2.6c-0.3,0.5-0.5,1-0.6,1.4c0,0.1-0.1,0.2-0.1,0.4l-0.1,0.2l0,0.1c0,0,0,0,0-0.1c0-0.1-0.1-0.1-0.1-0.1
			c-0.1,0,0,0,0.1,0c0.2,0,0.5-0.1,0.8-0.1c0.2,0,0.3,0,0.5,0c0.2,0,0.4,0,0.8,0.2c0.1,0.1,0.2,0.1,0.2,0.2c0,0,0.1,0.1,0.1,0.2
			l0,0.1l0,0l0,0.1c0,0.1,0,0,0,0.1l0,0c0,0,0,0,0,0c0,0,0,0,0.1,0.1c0.2,0.1,0.4,0.2,0.6,0.2c0.5,0.1,1.1,0.2,1.6,0.3
			c0.3,0.1,0.6,0.1,0.9,0.2c0,0,0.1,0,0.1,0.1c0,0,0.1,0.1,0.2,0.1c0.1,0.1,0,0,0.2,0.2l0.1,0.1l0.3,0.3l16.8,21.3l0.1,0.1l0,0.2
			c0,0.2,0,0.4,0,0.5c0,0.1,0.1,0.3,0.2,0.4c0.1,0.1,0.2,0.2,0.3,0.2c0.1,0,0.1,0,0.2,0c0.1,0,0.2,0,0.2,0l1.3-0.5l-0.9,1
			c-0.3,0.4-0.7,1-0.6,1.3c0,0.1,0.2,0.3,0.5,0.5c0.2,0.2,0.5,0.4,0.7,0.6c0.1,0.1,0.3,0.3,0.4,0.4c0.1,0.1,0.1,0.3,0.2,0.4
			c0.1,0.3,0.2,0.6,0.3,0.9c0.2,0.6,0.4,1.1,0.6,1.7c0.7,2.3,1.3,4.6,1.9,6.9c1.2,4.6,2.4,9.3,3.5,14l0,0l0,0L238.1,214.2z"/>
	</g>
</g>
<ellipse transform="matrix(-0.964 0.266 -0.266 -0.964 534.0099 332.5248)" fill="#FFF30B" cx="244.5" cy="202.4" rx="9" ry="12.7"/>
<linearGradient id="SVGID_1_" gradientUnits="userSpaceOnUse" x1="238.5942" y1="182.1219" x2="246.8275" y2="210.5528">
	<stop  offset="0" style="stop-color:#FF8B00"/>
	<stop  offset="1" style="stop-color:#FFF30B"/>
</linearGradient>
<path fill="url(#SVGID_1_)" d="M238.3,204.2c1.3,4.8,5.2,7.9,8.6,7c3.4-0.9,5.1-5.6,3.8-10.4c-1.3-4.8-5.2-7.9-8.6-7
	C238.7,194.8,237,199.4,238.3,204.2z"/>
<g>
	<path fill="#FFF8C5" d="M238.8,205.6c0,0,0.1,0.3,0.4,0.9c0.1,0.3,0.3,0.6,0.5,0.9c0.1,0.2,0.2,0.4,0.4,0.5
		c0.1,0.2,0.3,0.4,0.5,0.6c0.7,0.7,1.6,1.5,2.7,2c0.5,0.2,1.1,0.4,1.7,0.5c0.6,0.1,1.2,0,1.8-0.2c0.5-0.2,1.1-0.5,1.5-1
		c0.5-0.4,0.9-0.9,1.2-1.4c0.7-1,1.1-2.1,1.3-3.1c0.2-1,0.2-1.8,0.2-2.4c0-0.6-0.1-0.9-0.1-0.9s0.1,0.3,0.3,0.9
		c0.2,0.6,0.3,1.5,0.2,2.6c-0.1,1.1-0.4,2.3-1,3.5c-0.3,0.6-0.8,1.2-1.3,1.7c-0.5,0.5-1.2,1-1.9,1.2c-0.7,0.2-1.5,0.3-2.3,0.2
		c-0.8-0.1-1.4-0.3-2.1-0.7c-0.6-0.3-1.2-0.7-1.6-1.2c-0.5-0.4-0.8-0.9-1.1-1.3c-0.3-0.4-0.5-0.9-0.7-1.3c-0.2-0.4-0.3-0.8-0.4-1.1
		c-0.1-0.3-0.1-0.5-0.1-0.7C238.8,205.7,238.8,205.6,238.8,205.6z"/>
</g>
<g>
	<path fill="#CE8715" d="M250.7,201.1c0,0-0.1-0.4-0.4-1c-0.3-0.6-0.7-1.5-1.3-2.4c-0.3-0.5-0.7-0.9-1.2-1.4c-0.5-0.5-1-0.9-1.6-1.2
		c-0.6-0.4-1.3-0.6-1.9-0.7c-0.7-0.1-1.4-0.1-2,0.1l-0.5,0.2c-0.2,0.1-0.3,0.2-0.4,0.2c-0.3,0.2-0.6,0.4-0.8,0.6
		c-0.5,0.5-0.9,1-1.1,1.6c-0.3,0.6-0.5,1.2-0.7,1.8c-0.2,0.6-0.3,1.2-0.3,1.7c-0.1,0.5-0.1,1.1-0.1,1.5c0,0.5,0,0.9,0,1.2
		c0.1,0.7,0.1,1.1,0.1,1.1l-0.1,0c0,0-0.2-0.4-0.4-1c-0.2-0.7-0.4-1.6-0.5-2.8c0-1.2,0.2-2.6,0.9-4c0.4-0.7,0.9-1.4,1.5-1.9
		c0.3-0.3,0.7-0.5,1-0.7c0.2-0.1,0.4-0.2,0.6-0.3l0.5-0.2c0.9-0.2,1.7-0.2,2.5,0c0.8,0.2,1.5,0.5,2.1,0.9c0.6,0.4,1.2,0.9,1.6,1.4
		c0.5,0.5,0.8,1,1.1,1.5c0.6,1,1,1.9,1.2,2.6c0.2,0.6,0.3,1,0.3,1L250.7,201.1z"/>
</g>
<g>
	<path fill="#FFE4A9" d="M245.1,200.2c0,0,0.1,0.1,0.1,0.4c0,0.2,0.1,0.6-0.1,1c-0.1,0.2-0.2,0.4-0.5,0.6c-0.1,0-0.1,0.1-0.2,0.1
		c-0.1,0-0.1,0.1-0.2,0.1c-0.2,0-0.3,0-0.5,0c-0.3-0.1-0.6-0.2-0.9-0.5c-0.3-0.2-0.4-0.5-0.5-0.9c-0.1-0.3-0.1-0.7-0.1-1
		c0.1-0.3,0.2-0.7,0.5-0.9c0.2-0.2,0.6-0.4,0.9-0.3c0.3,0,0.5,0.1,0.7,0.2c0.4,0.3,0.5,0.6,0.6,0.8
		C245.1,200,245.1,200.2,245.1,200.2z M245.1,200.2c0,0,0-0.1-0.2-0.3c-0.1-0.2-0.4-0.5-0.7-0.6c-0.2-0.1-0.4-0.1-0.6,0
		c-0.2,0.1-0.3,0.2-0.4,0.4c-0.1,0.2-0.1,0.4-0.1,0.6c0,0.2,0,0.4,0.1,0.6c0.1,0.4,0.4,0.8,0.7,0.9c0.1,0,0.2,0.1,0.2,0.1
		c0,0,0.1,0,0.2,0c0,0,0.1,0,0.1,0c0.2,0,0.4-0.2,0.5-0.3c0.2-0.3,0.3-0.7,0.2-0.9C245.1,200.3,245.1,200.2,245.1,200.2z"/>
</g>
<g>
	<path fill="#FFE4A9" d="M244,204.5c0,0,0.1,0.1,0.2,0.3c0.1,0.2,0.2,0.5,0.2,1c0,0.2-0.1,0.5-0.3,0.7c0,0.1-0.1,0.1-0.2,0.2
		c0,0-0.1,0.1-0.2,0.1c-0.1,0.1-0.3,0.1-0.5,0.2c-0.3,0-0.7,0-1-0.2c-0.3-0.1-0.5-0.4-0.7-0.7c-0.2-0.3-0.3-0.6-0.3-0.9
		c0-0.3,0-0.7,0.2-1c0.2-0.3,0.5-0.5,0.7-0.6c0.3-0.1,0.5,0,0.8,0c0.4,0.1,0.7,0.4,0.8,0.6C243.9,204.4,244,204.5,244,204.5z
		 M244,204.5c0,0-0.1-0.1-0.2-0.3c-0.2-0.2-0.5-0.4-0.8-0.4c-0.2,0-0.4,0-0.5,0.2c-0.2,0.1-0.2,0.3-0.3,0.5c0,0.2,0,0.4,0,0.6
		c0.1,0.2,0.1,0.3,0.3,0.5c0.2,0.3,0.5,0.6,0.9,0.7c0.1,0,0.2,0,0.3,0c0,0,0.1,0,0.1,0c0,0,0.1,0,0.1-0.1c0.2-0.1,0.3-0.3,0.3-0.4
		c0.1-0.4,0.1-0.7,0-0.9C244.1,204.7,244,204.5,244,204.5z"/>
</g>
<g>
	<path fill="#FFE4A9" d="M247.9,203.7c0,0,0,0.1-0.1,0.3c-0.1,0.2-0.2,0.5-0.4,0.8c-0.1,0.1-0.3,0.3-0.6,0.3c-0.1,0-0.1,0-0.2,0
		c-0.1,0-0.1,0-0.2,0c-0.2,0-0.3-0.1-0.4-0.2c-0.3-0.2-0.5-0.4-0.6-0.7c-0.1-0.3-0.2-0.6-0.1-0.9c0-0.3,0.1-0.6,0.3-0.9
		c0.2-0.3,0.4-0.5,0.7-0.6c0.3-0.1,0.6-0.1,0.9,0c0.3,0.1,0.4,0.3,0.5,0.5c0.2,0.4,0.2,0.7,0.3,0.9
		C247.9,203.6,247.9,203.7,247.9,203.7z M247.9,203.7c0,0,0-0.1,0-0.3c0-0.2-0.1-0.5-0.4-0.8c-0.1-0.1-0.3-0.2-0.5-0.2
		c-0.2,0-0.3,0.1-0.5,0.2c-0.1,0.1-0.2,0.3-0.3,0.4c-0.1,0.2-0.1,0.3-0.1,0.5c0,0.4,0,0.7,0.2,1c0,0.1,0.1,0.1,0.2,0.2
		c0,0,0.1,0,0.1,0.1c0,0,0.1,0,0.1,0c0.2,0,0.4,0,0.5-0.1c0.3-0.2,0.5-0.5,0.5-0.7C247.9,203.9,247.9,203.7,247.9,203.7z"/>
</g>
<ellipse transform="matrix(0.9548 -0.2974 0.2974 0.9548 -48.5938 81.6087)" fill="#CE8715" cx="243.9" cy="200.5" rx="1.1" ry="1.3"/>
<ellipse transform="matrix(0.8317 -0.5552 0.5552 0.8317 -73.0072 169.5344)" fill="#CE8715" cx="243.2" cy="205.2" rx="1.1" ry="1.3"/>
<ellipse transform="matrix(0.9946 0.1034 -0.1034 0.9946 22.3802 -24.4472)" fill="#CE8715" cx="247" cy="203.6" rx="1.1" ry="1.3"/>
<g>
	<path fill="#CE8715" d="M253.1,200c0,0-0.1-0.3-0.2-0.7c-0.1-0.5-0.4-1.2-0.8-2c-0.4-0.8-1-1.8-1.8-2.8c-0.8-1-1.9-2-3.2-2.8
		c-1.3-0.8-2.9-1.4-4.7-1.3c-0.2,0-0.4,0-0.6,0.1c-0.2,0-0.5,0.1-0.6,0.1l-0.7,0.2c-0.2,0.1-0.4,0.2-0.6,0.3c-0.8,0.4-1.6,1-2.2,1.8
		c-0.6,0.8-1.1,1.6-1.5,2.6c-0.3,1-0.6,2-0.7,3c-0.2,2.1,0,4.2,0.6,6.3c0.3,1,0.7,2,1.2,2.9c0.5,0.9,1,1.8,1.7,2.6
		c0.6,0.8,1.4,1.5,2.1,2.2c0.8,0.6,1.6,1.1,2.5,1.5c1.8,0.7,3.7,0.7,5.2-0.1c1.5-0.7,2.6-2.1,3.3-3.4c0.7-1.4,1.1-2.8,1.3-4.1
		c0.2-1.3,0.2-2.4,0.1-3.3c-0.1-0.9-0.2-1.7-0.3-2.1C253.2,200.3,253.1,200,253.1,200z M253.2,200c0,0,0.1,0.3,0.2,0.8
		c0.1,0.5,0.3,1.2,0.4,2.2c0.1,0.9,0.2,2.1,0.1,3.4c-0.1,1.3-0.3,2.8-1,4.4c-0.7,1.5-1.8,3.1-3.7,4c-1.7,0.9-4,1-6,0.2
		c-1-0.4-1.9-1-2.7-1.7c-0.8-0.7-1.6-1.5-2.2-2.4c-1.3-1.7-2.2-3.8-2.7-5.9c-0.2-1.1-0.4-2.1-0.5-3.2c-0.1-1.1-0.1-2.2,0.1-3.2
		c0.1-1.1,0.3-2.1,0.7-3.1c0.4-1,0.8-1.9,1.4-2.8c0.6-0.8,1.4-1.6,2.2-2.1c0.2-0.1,0.5-0.3,0.7-0.4l0.7-0.3c0.3-0.1,0.5-0.1,0.7-0.2
		c0.2-0.1,0.5-0.1,0.7-0.1c2-0.2,3.8,0.5,5.2,1.5c1.4,0.9,2.4,2.1,3.1,3.2c0.7,1.1,1.3,2.1,1.6,3c0.4,0.9,0.6,1.6,0.8,2
		C253.1,199.8,253.2,200,253.2,200z"/>
</g>
<path fill="#5DCE8B" d="M249.1,215c0,0,14.7-11.4,34.3-16.3c19.6-4.8,20.5-2,20.8-0.9c0.4,1.1-0.4,15.4-26.5,25.6
	c-25.1,9.8-45.5,4.6-45.5,4.6s-18.6-4.2-16.3-8.7c3.5-6.7,20.6-5.8,20.6-5.8L249.1,215z"/>
<path fill="#2D9164" d="M297,199.5c-8.3,2.3-22,13.2-46.7,18.7c-4.7,1-30.6,5.9-32.3-0.4c-2.1,1.6-3.1,1.9-1.8,3.2
	c1.3,1.3,16.8,10.6,37,8.3c20.2-2.3,44.9-14.1,48-22.4C303.5,200.3,305.3,197.2,297,199.5z"/>
<g>
	<path fill="#1D7F57" d="M249.1,214.9c0.1-0.1,0.7-0.6,1.8-1.3c1.2-0.8,3-2.1,5.3-3.5c4.7-2.8,11.5-6.7,20.4-9.8
		c1.1-0.4,2.3-0.8,3.4-1.1c1.2-0.3,2.4-0.7,3.6-1c2.4-0.6,5-1.2,7.6-1.7c2.6-0.5,5.4-1,8.3-1.1c0.7,0,1.5,0,2.2,0.1
		c0.7,0.1,1.5,0.2,2.3,0.8c0.4,0.3,0.7,0.8,0.8,1.2c0,0.1,0,0,0,0.2l0,0.1l0,0.1c0,0.1,0,0.2,0,0.3c0,0.2,0,0.5,0,0.7
		c-0.1,0.8-0.2,1.5-0.4,2.3c-0.8,2.9-2.3,5.7-4.2,8.1c-1.9,2.4-4.2,4.6-6.7,6.5c-5,3.8-10.7,6.6-16.6,8.9c-1.5,0.5-2.9,1.1-4.4,1.6
		c-1.5,0.4-3,1-4.5,1.4c-3,0.8-6.1,1.5-9.2,1.9c-6.1,1-12.3,1.3-18.2,0.9c-3-0.2-5.9-0.6-8.7-1.2c-2.8-0.7-5.5-1.4-8-2.4
		c-1.3-0.5-2.5-1-3.8-1.5c-1.2-0.6-2.4-1.2-3.5-2.1c-0.5-0.4-1.1-0.9-1.5-1.7c-0.1-0.2-0.2-0.4-0.3-0.6c-0.1-0.2-0.1-0.5-0.1-0.7
		c0-0.5,0.1-0.9,0.4-1.4c0.2-0.3,0.3-0.5,0.5-0.8l0.3-0.4l0.4-0.4c0.5-0.5,1-0.9,1.5-1.2c2.2-1.3,4.5-1.9,6.6-2.3
		c2.1-0.4,4.2-0.6,6.1-0.7c1.9-0.1,3.7-0.1,5.4,0c0.2,0,0.4,0,0.7,0.1c0.2,0,0.4,0.1,0.6,0.1c0.4,0.1,0.8,0.1,1.1,0.2
		c0.7,0.1,1.5,0.2,2.1,0.3C245.7,214.3,248.7,214.8,249.1,214.9z M249.1,215.1c0,0-3.1-0.2-8.5-0.8c-0.7-0.1-1.4-0.1-2.1-0.2
		c-0.4,0-0.8-0.1-1.2-0.1c-0.2,0-0.4,0-0.6-0.1c-0.1,0-0.4,0-0.6,0c-1.6,0-3.4,0.1-5.3,0.2c-1.9,0.2-3.9,0.4-5.9,0.9
		c-2,0.5-4.1,1.1-5.9,2.3c-0.4,0.3-0.9,0.6-1.2,1l-0.3,0.3l-0.2,0.3c-0.1,0.1-0.3,0.5-0.5,0.7c-0.1,0.3-0.1,0.4,0.1,0.8
		c0.2,0.3,0.6,0.7,1,1c1.8,1.3,4.3,2.3,6.8,3.1c2.5,0.8,5.1,1.6,7.8,2.2c2.7,0.6,5.5,0.9,8.3,1.1c5.7,0.4,11.7,0.2,17.7-0.6
		c3-0.4,6-1,9-1.7c1.5-0.3,2.9-0.8,4.4-1.2c1.5-0.4,2.9-1,4.4-1.5c5.7-2.1,11.4-4.8,16.2-8.4c2.4-1.8,4.6-3.8,6.5-6.1
		c1.9-2.3,3.3-4.8,4.1-7.5c0.2-0.7,0.3-1.4,0.4-2l0-0.4c0-0.1,0-0.1,0-0.2l0-0.1l0-0.1c0,0.2,0,0,0,0c-0.1-0.3-0.2-0.4-0.4-0.6
		c-0.4-0.3-1-0.5-1.7-0.6c-0.6-0.1-1.3-0.1-2-0.1c-2.7,0-5.5,0.5-8.1,0.9c-2.6,0.5-5.2,1-7.6,1.6c-1.2,0.3-2.4,0.6-3.6,0.9
		c-1.2,0.3-2.3,0.7-3.4,1c-8.9,2.9-15.8,6.6-20.5,9.3c-2.3,1.4-4.1,2.6-5.3,3.4L249.1,215.1L249.1,215.1z"/>
</g>
<path fill="#5DCE8B" d="M279.9,215.5c0,0,0.9,7.8-28.3,10.9c-15,1.6-15.8-1.9-15.8-1.9l20.7-2.6L279.9,215.5"/>
<path fill="#094F34" d="M256.4,221.3c0,0,20.5-10.1,23.3-6.7c2.8,3.4-20.7,10.7-27.5,10.9c-5.4,0.2-17.2,1.3-16.5-1.9
	C236.3,220.5,256.4,221.3,256.4,221.3z"/>
<g>
	<g>
		<path fill="#5DCE8B" d="M262.3,175.5c0.6,0,0.6-1,0-1C261.7,174.5,261.7,175.5,262.3,175.5L262.3,175.5z"/>
	</g>
</g>
</svg>
