<svg xmlns="http://www.w3.org/2000/svg" width="25" height="25" viewBox="0 0 25 25">
  <g fill="none" fill-rule="nonzero">
    <path fill="#E0D3E6" d="M23 17c-1.3-1.8-5.5-3-7.2-4.1a9 9 0 0 0 2.4-6.6C18.1 3.3 16 1 13 1c-3 0-5.1 2.4-5.2 5.3-.2 2.6 1 5 2.4 6.6-1.7 1.1-6 2.3-7.2 4-1.5 2.3-1 3.5-.8 4.1 0 1.4 4.9 2.5 10.8 2.5 5.8 0 10.4-1 10.7-2.3 0 0 1-1.7-.7-4.3z"/>
    <path fill="#BBA9C2" d="M24 20.4c-.1-.7-.4-1.5-1-2.5-1.3-1.7-5.5-2.9-7.2-4l.6-.7c2 1 5.5 2.1 6.6 3.7 1 1.5 1 2.7 1 3.5zm-22-.2c0-.7 0-1.8 1-3.3 1.1-1.5 4.7-2.6 6.6-3.7l.6.7c-1.7 1.1-6 2.3-7.2 4-.6 1-.9 1.7-1 2.3zm5.8-13v-1A5.4 5.4 0 0 1 13 1c3 0 5.1 2.4 5.2 5.3v1C18.1 4.2 16 2 13 2 10 2 8 4.3 7.8 7.2z"/>
  </g>
</svg>