<?xml version="1.0" encoding="UTF-8"?>
<svg width="20px" height="20px" viewBox="0 0 20 20" version="1.1" xmlns="http://www.w3.org/2000/svg">
    <!-- Generator: Sketch 49.3 (51167) - http://www.bohemiancoding.com/sketch -->
    <title>icon-pnp-close</title>
    <desc>Created with Sketch.</desc>
    <defs></defs>
    <g id="icon-pnp-close" stroke="none" stroke-width="1" fill="none" fill-rule="evenodd">
        <path d="M16.900463,18.000875 C16.7622778,18.000875 16.6256111,17.949125 16.5200741,17.844875 L2.15792593,3.657125 C1.94761111,3.450125 1.94761111,3.113375 2.15792593,2.906375 C2.36824074,2.697875 2.70838889,2.697875 2.9187037,2.906375 L17.2808519,17.094125 C17.4911667,17.301125 17.4911667,17.637875 17.2808519,17.844875 C17.1753148,17.949125 17.0386481,18.000875 16.900463,18.000875" id="Fill-1" fill="#6F457F"></path>
        <path d="M2.53831481,18.000875 C2.40012963,18.000875 2.26346296,17.949125 2.15792593,17.844875 C1.94761111,17.637875 1.94761111,17.301125 2.15792593,17.094125 L16.5200741,2.906375 C16.7303889,2.697875 17.070537,2.697875 17.2808519,2.906375 C17.4911667,3.113375 17.4911667,3.450125 17.2808519,3.657125 L2.9187037,17.844875 C2.81316667,17.949125 2.6765,18.000875 2.53831481,18.000875" id="Fill-4" fill="#6F457F"></path>
    </g>
</svg>
