<?xml version="1.0" encoding="UTF-8" standalone="no"?>
<svg width="36px" height="36px" viewBox="0 0 36 36" version="1.1">
            <path d="M33.1766252,23.327 C31.6656252,30.822 25.1666252,36 17.9346252,36 C16.9006252,36 15.8516252,35.894 14.8006252,35.674 C10.7276252,34.822 7.36262519,32.405 5.07462519,28.868 C2.78562519,25.33 1.98662519,21.095 2.82362519,16.945 C3.81762519,12.013 6.95262519,7.949 11.4246252,5.793 C11.9776252,5.529 12.6356252,5.768 12.8966252,6.329 C13.1576252,6.892 12.9216252,7.563 12.3706252,7.829 C8.53262519,9.679 5.84162519,13.167 4.98862519,17.398 C4.27062519,20.959 4.95662519,24.593 6.91962519,27.628 C8.88362519,30.663 11.7506252,32.737 15.2446252,33.468 C22.4586252,34.974 29.5296252,30.225 31.0116252,22.874 C32.2596252,16.683 29.2146252,10.49 23.6086252,7.815 C23.0556252,7.551 22.8176252,6.881 23.0766252,6.318 C23.3356252,5.754 23.9926252,5.512 24.5456252,5.775 C31.0816252,8.894 34.6306252,16.111 33.1766252,23.327"></path>
            <path d="M18,14.641 C17.389,14.641 16.895,14.136 16.895,13.514 L16.895,1.126 C16.895,0.504 17.389,0 18,0 C18.61,0 19.105,0.504 19.105,1.126 L19.105,13.514 C19.105,14.136 18.61,14.641 18,14.641"></path>
</svg>
