<?xml version="1.0" encoding="UTF-8"?>
<svg width="25px" height="25px" viewBox="0 0 25 25" version="1.1" xmlns="http://www.w3.org/2000/svg">
    <!-- Generator: Sketch 49.3 (51167) - http://www.bohemiancoding.com/sketch -->
    <title>icon-pnp-mail</title>
    <desc>Created with Sketch.</desc>
    <defs></defs>
    <g id="icon-pnp-mail" stroke="none" stroke-width="1" fill="none" fill-rule="evenodd">
        <path d="M23.2712766,3.26598404 C24.1856383,3.26598404 24.9335106,4.01412234 24.9335106,4.92821809 L24.9335106,19.8883245 C24.9335106,20.8026862 24.1856383,21.5505585 23.2712766,21.5505585 L1.66223404,21.5505585 C0.74787234,21.5505585 0,20.8026862 0,19.8883245 L0,4.92821809 C0,4.01412234 0.74787234,3.26598404 1.66223404,3.26598404 L23.2712766,3.26598404 Z M21.8521543,19.6452394 L23.0279521,18.4683777 L16.6189096,12.0593351 L22.9925798,6.37875 L21.8872606,5.13832447 L13.4234309,12.6806117 C12.8893883,13.1625266 12.7803457,13.2396543 12.466516,13.2396543 C12.1526862,13.2396543 12.0436436,13.1625266 11.5096011,12.6827394 L3.04603723,5.14045213 L1.94045213,6.38087766 L8.31518617,12.0603989 L1.90614362,18.4694415 L3.08114362,19.6444415 L9.55773936,13.1678457 L10.3971011,13.915984 C10.985133,14.4457713 11.49125,14.9018883 12.466516,14.9018883 C13.4420479,14.9018883 13.9481649,14.4457713 14.5361968,13.915984 L15.3755585,13.1678457 L21.8521543,19.6452394 Z" id="Combined-Shape" fill="#E0D3E6"></path>
        <path d="M24.9335106,5.92821809 C24.9335106,5.01412234 24.1856383,4.26598404 23.2712766,4.26598404 L1.66223404,4.26598404 C0.74787234,4.26598404 0,5.01412234 0,5.92821809 L0,4.92821809 C0,4.01412234 0.74787234,3.26598404 1.66223404,3.26598404 L23.2712766,3.26598404 C24.1856383,3.26598404 24.9335106,4.01412234 24.9335106,4.92821809 L24.9335106,5.92821809 Z" id="Combined-Shape" fill="#BBA9C2"></path>
    </g>
</svg>
