<svg id="325a4943-d140-4c1f-8349-e3f9dd7be866" data-name="Layer 1" xmlns="http://www.w3.org/2000/svg" viewBox="0 0 20 16.083"><title>Untitled-1</title><path d="M9.88,13.728c-3.063,0-5.958-1.772-8.191-5a13.107,13.107,0,0,1,3.684-3.7,4.771,4.771,0,0,0-.44,2,4.821,4.821,0,1,0,9.035-2.337,12.616,12.616,0,0,1,4.186,3.935C15.9,11.921,12.97,13.728,9.88,13.728Zm3.293-6.7A3.426,3.426,0,1,1,9.014,3.688a8.3,8.3,0,0,1,.935-0.063H9.991A3.426,3.426,0,0,1,13.173,7.03Zm6.4,1.207c-2.449-3.747-5.728-5.854-9.252-5.993a5.141,5.141,0,0,0-.572-0.035,4.748,4.748,0,0,0-1,.1C5.54,2.725,2.588,4.79.328,8.237L0,8.732,0.251,9.116c2.533,3.872,5.951,6.007,9.614,6.007s7.082-2.135,9.614-6.007l0.328-.5Z" style="fill-rule:evenodd"/></svg>