<?xml version="1.0" standalone="no"?>
<!-- Generator: Adobe Fireworks CS6, Export SVG Extension by Aaron Beall (http://fireworks.abeall.com) . Version: 0.6.1  -->
<!DOCTYPE svg PUBLIC "-//W3C//DTD SVG 1.1//EN" "http://www.w3.org/Graphics/SVG/1.1/DTD/svg11.dtd">
<svg id="Untitled-Page%201" viewBox="0 0 20 20" style="background-color:#ffffff00" version="1.1"
	xmlns="http://www.w3.org/2000/svg" xmlns:xlink="http://www.w3.org/1999/xlink" xml:space="preserve"
	x="0px" y="0px" width="20px" height="20px"
>
	<g id="Layer%201">
		<path d="M 19.5076 19.5077 C 18.8514 20.1641 17.7873 20.1641 17.1308 19.5077 L 10 12.3769 L 2.8692 19.5077 C 2.2129 20.1641 1.1487 20.1641 0.4923 19.5077 C -0.1641 18.8513 -0.1641 17.7871 0.4923 17.1308 L 7.6231 10 L 0.4923 2.8691 C -0.1641 2.2127 -0.1641 1.1485 0.4923 0.4922 C 1.1487 -0.1641 2.2129 -0.1641 2.8692 0.4922 L 10 7.6231 L 17.1308 0.4922 C 17.7873 -0.1641 18.8514 -0.1641 19.5076 0.4922 C 20.1641 1.1485 20.1641 2.2127 19.5076 2.8691 L 12.3769 10 L 19.5076 17.1308 C 20.1641 17.7871 20.1641 18.8513 19.5076 19.5077 Z"/>
	</g>
</svg>
