<?xml version="1.0" encoding="UTF-8" standalone="no"?>
<svg width="36px" height="36px" viewBox="0 0 36 36" version="1.1" xmlns="http://www.w3.org/2000/svg">
            <path d="M33.748,36 L14.611,36 C13.367,36 12.359,34.992 12.359,33.75 L12.359,23.59 L14.626,23.587 L14.626,32.39 C14.626,33.141 15.236,33.751 15.988,33.751 L32.371,33.751 C33.123,33.751 33.733,33.141 33.733,32.39 L33.698,3.622 C33.698,2.87 33.088,2.261 32.336,2.261 L15.988,2.261 C15.236,2.261 14.626,2.87 14.626,3.622 L14.626,12.375 L12.359,12.375 L12.359,2.25 C12.359,1.007 13.367,0 14.611,0 L33.748,0 C34.992,0 36,1.007 36,2.25 L36,33.75 C36,34.992 34.992,36 33.748,36 L33.748,36 Z M4.168,16.863 L23.603,16.863 C24.226,16.863 24.729,17.367 24.729,17.988 C24.729,18.609 24.226,19.113 23.603,19.113 L4.098,19.113 L8.241,23.252 C8.681,23.692 8.681,24.404 8.241,24.843 C8.021,25.063 7.733,25.173 7.445,25.173 C7.157,25.173 6.869,25.063 6.649,24.843 L0,18.023 L6.649,11.202 C7.089,10.762 7.801,10.762 8.241,11.202 C8.681,11.641 8.681,12.353 8.241,12.793 L4.168,16.863 L4.168,16.863 Z"></path>
</svg>
