<svg width="36px" height="36px" viewBox="0 0 36 36">
  <path d="M0.87150838,33.8559665 L0.670391061,33.8559665 C0.268156425,33.7869437 -3.55271368e-15,33.44183 -3.55271368e-15,32.9586707 C-3.55271368e-15,14.5295961 14.2793296,11.5616178 17.8994413,11.0784586 L17.8994413,3.90009245 C17.8994413,3.5549787 18.1005587,3.27888769 18.3687151,3.07181944 C18.6368715,2.93377394 19.0391061,3.00279669 19.3072626,3.20986494 L35.6648045,16.9453924 C35.8659218,17.0834379 36,17.3595289 36,17.6356199 C36,17.9117109 35.8659218,18.187802 35.6648045,18.3258475 L19.3743017,31.3021247 C19.1061453,31.5091929 18.7709497,31.5782157 18.4357542,31.3711474 C18.1675978,31.2331019 17.9664804,30.8879882 17.9664804,30.5428744 L17.9664804,23.5715765 C14.8156425,23.9857131 4.55865922,25.9873728 1.60893855,33.3037845 C1.47486034,33.6488982 1.20670391,33.8559665 0.87150838,33.8559665 L0.87150838,33.8559665 Z M19.575419,5.76370674 L19.575419,11.8377088 C19.575419,12.3208681 19.2402235,12.7350046 18.7709497,12.7350046 C18.1005587,12.7350046 3.75418994,13.5632776 1.94413408,29.4385104 C7.30726257,22.7433035 18.301676,21.7079623 18.8379888,21.7079623 C19.1061453,21.7079623 19.3072626,21.776985 19.5083799,21.9150305 C19.7094972,22.053076 19.7765363,22.329167 19.7765363,22.5362353 L19.7765363,28.7482829 L33.7206704,17.6356199 L19.575419,5.76370674 L19.575419,5.76370674 Z"></path>
</svg>
