<?xml version="1.0" encoding="UTF-8" standalone="no"?>
<svg width="36px" height="36px" viewBox="0 0 36 36" version="1.1">
            <path d="M33.751,36 L13.508,36 C12.265,36 11.258,34.992 11.258,33.75 L11.258,23.59 L13.523,23.587 L13.523,32.39 C13.523,33.141 14.132,33.751 14.883,33.751 L32.375,33.751 C33.127,33.751 33.736,33.141 33.736,32.39 L33.701,3.622 C33.701,2.87 33.092,2.261 32.34,2.261 L14.883,2.261 C14.132,2.261 13.523,2.87 13.523,3.622 L13.523,12.375 L11.258,12.375 L11.258,2.25 C11.258,1.007 12.265,0 13.508,0 L33.751,0 C34.993,0 36.001,1.007 36.001,2.25 L36.001,33.75 C36.001,34.992 34.993,36 33.751,36 L33.751,36 Z M18.722,12.793 C18.282,12.353 18.282,11.641 18.722,11.202 C19.161,10.762 19.873,10.762 20.312,11.202 L26.955,18.023 L20.312,24.843 C20.092,25.063 19.805,25.173 19.517,25.173 C19.229,25.173 18.941,25.063 18.722,24.843 C18.282,24.404 18.282,23.692 18.722,23.252 L22.861,19.113 L1.125,19.113 C0.503,19.113 0,18.609 0,17.988 C0,17.367 0.503,16.863 1.125,16.863 L22.79,16.863 L18.722,12.793 L18.722,12.793 Z"></path>
</svg>
