<?xml version="1.0" encoding="utf-8"?>
<!-- Generator: Adobe Illustrator 19.2.0, SVG Export Plug-In . SVG Version: 6.00 Build 0)  -->
<!DOCTYPE svg PUBLIC "-//W3C//DTD SVG 1.1//EN" "http://www.w3.org/Graphics/SVG/1.1/DTD/svg11.dtd">
<svg version="1.1" id="Layer_1" xmlns="http://www.w3.org/2000/svg"  x="0px" y="0px"
	 viewBox="0 0 36 36" style="enable-background:new 0 0 36 36;" xml:space="preserve">
<path d="M18,0C8.1,0,0,8.1,0,18s8.1,18,18,18s18-8.1,18-18S27.9,0,18,0z M18,4.5c2.9,0,5.6,0.9,7.8,2.5L7,25.8
	c-1.6-2.2-2.5-4.9-2.5-7.8C4.5,10.6,10.6,4.5,18,4.5z M18,31.5c-2.9,0-5.6-0.9-7.8-2.5L29,10.2c1.6,2.2,2.5,4.9,2.5,7.8
	C31.5,25.4,25.4,31.5,18,31.5z"/>
</svg>
