<?xml version="1.0" encoding="UTF-8"?>
<svg width="25px" height="25px" viewBox="0 0 25 25" version="1.1" xmlns="http://www.w3.org/2000/svg">
    <!-- Generator: Sketch 49.3 (51167) - http://www.bohemiancoding.com/sketch -->
    <title>icon-pnp-how</title>
    <desc>Created with Sketch.</desc>
    <defs></defs>
    <g id="icon-pnp-how" stroke="none" stroke-width="1" fill="none" fill-rule="evenodd">
        <path d="M13,23 C7.4774,23 3,18.5226 3,13 C3,7.4774 7.4774,3 13,3 C18.5226,3 23,7.4774 23,13 C23,18.5226 18.5226,23 13,23 Z M14.96172,18.0492 L15.125002,17.40232 C15.039846,17.440602 14.669542,17.594508 14.214062,17.61092 C13.758602,17.627326 13.675782,17.560138 13.549222,17.459358 C13.420316,17.358576 13.357034,17.168738 13.357034,16.890598 C13.357034,16.780442 13.375784,16.616378 13.415628,16.401538 C13.455472,16.185918 14.259388,13.327338 14.281248,13.096938 C14.303124,12.867258 14.31406,12.706318 14.31406,12.614898 C14.31406,12.174278 14.153904,11.814898 13.83594,11.539118 C13.51718,11.264118 13.06328,11.125058 12.475,11.125058 C11.82734,11.121932 11.09766,11.314902 10.2868,11.702398 L10.125082,12.350058 C10.24227,12.306308 10.581322,12.15709 11.037582,12.142238 C11.493042,12.127394 11.576642,12.1938 11.691482,12.29927 C11.804764,12.404738 11.861794,12.59223 11.861794,12.85943 C11.861794,13.00943 10.964134,16.44543 10.939134,16.62043 C10.914916,16.79543 10.903196,16.96731 10.903196,17.13527 C10.903196,17.56731 11.066478,17.92355 11.394596,18.20403 C11.722716,18.48449 12.183656,18.62513 12.775836,18.62513 C13.601616,18.603254 14.329736,18.41107 14.961836,18.04935 L14.96172,18.0492 Z M14.7586,9.511 C15.00236,9.26804 15.125,8.9735 15.125,8.62818 C15.125,8.28364 15.002344,7.98756 14.7586,7.74302 C14.51564,7.49692 14.2211,7.37506 13.87814,7.37506 C13.53518,7.37506 13.23908,7.496936 12.99298,7.74302 C12.74922,7.98756 12.62502,8.28364 12.62502,8.62818 C12.62502,8.97272 12.748458,9.26802 12.99298,9.511 C13.23908,9.75396 13.53516,9.87506 13.87814,9.87506 C14.22112,9.87506 14.51486,9.753966 14.7586,9.511 Z" id="Combined-Shape" fill="#E0D3E6"></path>
        <path d="M3.01228421,13.5 C3.00412675,13.3343607 3,13.167662 3,13 C3,7.4774 7.4774,3 13,3 C18.5226,3 23,7.4774 23,13 C23,13.167662 22.9958733,13.3343607 22.9877158,13.5 C22.7271756,8.20966569 18.354938,4 13,4 C7.64506202,4 3.27282441,8.20966569 3.01228421,13.5 Z" id="Combined-Shape" fill="#BBA9C2"></path>
    </g>
</svg>
