<?xml version="1.0" encoding="utf-8"?>
<!-- Generator: Adobe Illustrator 19.2.0, SVG Export Plug-In . SVG Version: 6.00 Build 0)  -->
<!DOCTYPE svg PUBLIC "-//W3C//DTD SVG 1.1//EN" "http://www.w3.org/Graphics/SVG/1.1/DTD/svg11.dtd">
<svg version="1.1" id="Untitled-Page_x25_201" xmlns="http://www.w3.org/2000/svg"
	 x="0px" y="0px" viewBox="0 0 25 25" style="enable-background:new 0 0 25 25;" xml:space="preserve">
<g>
	<path d="M12.7,0.2C5.8,0.2,0.2,5.8,0.2,12.7s5.6,12.5,12.5,12.5s12.5-5.6,12.5-12.5S19.6,0.2,12.7,0.2z M12.7,22.9
		C7,22.9,2.5,18.3,2.5,12.7S7,2.4,12.7,2.4S22.9,7,22.9,12.7S18.3,22.9,12.7,22.9z"/>
	<path d="M13,5.6c-0.5,0-0.9,0.2-1.2,0.5c-0.3,0.3-0.5,0.7-0.5,1.2c0,0.5,0.2,0.9,0.5,1.2C12.2,8.8,12.6,9,13,9
		c0.5,0,0.8-0.2,1.2-0.5c0.3-0.3,0.5-0.7,0.5-1.2c0-0.5-0.2-0.9-0.5-1.2C13.9,5.7,13.5,5.6,13,5.6z"/>
	<path d="M14.3,19.1c-0.2,0.1-0.4,0.1-0.5,0.1c-0.3,0-0.5-0.1-0.7-0.2c-0.1-0.1-0.2-0.4-0.2-0.7c0-0.1,0-0.3,0.1-0.6
		c0-0.3,0.1-0.5,0.1-0.7l0.6-2.6c0.1-0.2,0.1-0.5,0.1-0.8c0-0.3,0-0.5,0-0.6c0-0.6-0.2-1-0.5-1.3s-0.8-0.5-1.4-0.5
		c-0.3,0-0.7,0.1-1,0.2c-0.4,0.1-0.7,0.3-1.1,0.5c0,0,0.1,0.7,0.3,0.6c0.2-0.1,0.3-0.1,0.5-0.1c0.3,0,0.5,0.1,0.7,0.2
		s0.2,0.4,0.2,0.7c0,0.2,0,0.4-0.1,0.6c0,0.2-0.1,0.5-0.1,0.7l-0.6,2.6c-0.1,0.3-0.1,0.5-0.1,0.7c0,0.2,0,0.4,0,0.6
		c0,0.5,0.2,1,0.5,1.3c0.3,0.4,0.8,0.5,1.4,0.5c0.4,0,0.7-0.1,1-0.2c0.3-0.1,0.7-0.3,1.2-0.5C14.5,19.7,14.5,19,14.3,19.1z"/>
</g>
</svg>
