<?xml version="1.0" standalone="no"?><!-- Generator: Adobe Fireworks CS6, Export SVG Extension by Aaron Beall (http://fireworks.abeall.com) . Version: 0.6.1  --><!DOCTYPE svg PUBLIC "-//W3C//DTD SVG 1.1//EN" "http://www.w3.org/Graphics/SVG/1.1/DTD/svg11.dtd"><svg id="Untitled-Page%201" viewBox="0 0 351 220" style="background-color:#ffffff00" version="1.1"	xmlns="http://www.w3.org/2000/svg" xmlns:xlink="http://www.w3.org/1999/xlink" xml:space="preserve"	x="0px" y="0px" width="351px" height="220px">	<g id="Layer_1_1">		<g>			<path d="M 106.1367 208.5295 L 111.496 208.5295 C 110.4808 214.8331 105.7389 219 99.3659 219 C 92.1963 219 86.5096 213.6381 86.5096 206.1766 C 86.5096 198.7142 92.1963 193.3533 99.3659 193.3533 C 105.7389 193.3533 110.4808 197.5172 111.496 203.8219 L 106.1367 203.8219 C 105.2668 200.3072 102.9138 198.3514 99.3659 198.3514 C 94.9832 198.3514 91.7965 201.5022 91.7965 206.1766 C 91.7965 210.8481 94.9832 214.0009 99.3659 214.0009 C 102.9138 214.0009 105.2668 212.0451 106.1367 208.5295 Z" fill="#86b652"/>			<path d="M 126.8499 213.7467 L 124.9315 218.4925 L 119.3538 218.4925 L 129.9638 193.7141 L 134.8881 193.7141 L 145.4619 218.4925 L 139.9218 218.4925 L 138.0024 213.7467 L 126.8499 213.7467 ZM 132.3895 199.9826 L 128.7693 209.0028 L 136.0459 209.0028 L 132.3895 199.9826 Z" fill="#86b652"/>			<path d="M 174.2132 201.3937 L 169.0343 201.3937 C 168.7078 199.2217 167.3344 197.7725 164.3637 197.7725 C 161.7948 197.7725 160.0919 198.858 160.0919 200.7786 C 160.0919 202.4449 161.3226 203.1696 163.5665 203.6047 L 166.6081 204.2198 C 171.3163 205.2339 174.1052 207.046 174.1052 211.1747 C 174.1052 215.8854 170.2293 219 164.328 219 C 158.3906 219 153.9722 215.8482 153.5387 210.3406 L 158.7503 210.3406 C 159.1491 212.8431 161.3226 214.3989 164.6179 214.3989 C 167.2234 214.3989 168.6736 213.4191 168.6736 211.7537 C 168.6736 210.7415 168.0929 209.6893 165.5949 209.2189 L 161.5748 208.4571 C 156.6872 207.4812 154.5528 205.0511 154.5528 201.2108 C 154.5528 196.467 158.3168 193.3142 163.9659 193.3142 C 168.0929 193.3142 173.634 195.0177 174.2132 201.3937 Z" fill="#86b652"/>			<path d="M 190.9078 218.4925 L 185.6565 218.4925 L 185.6565 193.8598 L 190.9078 193.8598 L 190.9078 218.4925 Z" fill="#86b652"/>			<path d="M 225.2344 218.4925 L 221.1796 218.4925 L 208.2509 203.5324 L 208.2509 218.4925 L 202.9997 218.4925 L 202.9997 193.8598 L 206.9489 193.8598 L 219.9832 209.2189 L 219.9832 193.8598 L 225.2344 193.8598 L 225.2344 218.4925 Z" fill="#86b652"/>			<path d="M 262.4975 206.1766 C 262.4975 213.3134 256.8122 219 249.6059 219 C 242.4348 219 236.7505 213.3134 236.7505 206.1766 C 236.7505 199.0398 242.4348 193.3533 249.6059 193.3533 C 256.8122 193.3533 262.4975 199.0398 262.4975 206.1766 ZM 257.1719 206.1766 C 257.1719 201.8269 253.9891 198.2419 249.6059 198.2419 C 245.2599 198.2419 242.0379 201.8269 242.0379 206.1766 C 242.0379 210.5225 245.2599 214.1095 249.6059 214.1095 C 253.9891 214.1095 257.1719 210.5225 257.1719 206.1766 Z" fill="#86b652"/>		</g>		<path d="M 292.5904 175.2962 C 291.437 179.9168 292.4037 182.0926 295.4858 181.8227 C 296.608 181.7249 297.6002 181.4941 298.4624 181.1382 C 299.3265 180.7813 300.0998 180.2033 300.784 179.4171 C 301.4673 178.6259 302.0518 177.7742 302.5367 176.8608 C 303.0206 175.9484 303.5123 174.683 304.0039 173.0606 C 304.4986 171.4373 304.9238 169.8482 305.2816 168.2865 C 305.6393 166.7248 306.0802 164.6506 306.6071 162.0621 C 306.7693 161.313 306.8905 160.5141 306.9834 159.6809 C 304.5083 158.9396 302.0235 158.2277 299.5269 157.548 C 299.2835 158.0037 299.0401 158.4575 298.7996 158.9347 C 296.0655 164.3514 293.9951 169.8042 292.5904 175.2962 Z" fill="none"/>		<path d="M 51.7592 165.3136 C 51.7587 165.3176 51.7587 165.3215 51.7583 165.3244 C 51.77 165.2149 51.7744 165.1728 51.7592 165.3136 Z" fill="#845e9c"/>		<path d="M 225.5961 34.6803 C 226.1708 32.4859 226.7701 30.4616 227.3145 28.6275 C 228.0692 26.0737 228.8571 23.891 229.6762 22.0823 C 230.5003 20.2732 231.4123 18.8557 232.4221 17.8279 C 233.4319 16.8002 234.6948 16.2203 236.21 16.0873 C 237.2051 16.0002 237.7682 16.7043 237.8991 18.1995 C 237.993 19.2748 237.9187 20.5989 237.6743 22.1738 C 237.4319 23.7482 237.0937 25.4513 236.6577 27.2775 C 236.2237 29.1062 235.7368 31.0072 235.1973 32.9851 C 235.0184 33.6378 234.8385 34.2705 234.6586 34.9076 C 239.8112 35.091 244.948 35.3702 250.0683 35.7438 C 250.5952 33.0046 251.0419 30.2753 251.3899 27.5591 C 251.9901 22.8608 252.1162 18.5135 251.7662 14.5153 C 251.5707 12.2812 251.2032 10.2291 250.6636 8.3525 C 250.124 6.4783 249.3381 4.8951 248.3058 3.6032 C 247.2755 2.3099 245.9559 1.3472 244.3468 0.7145 C 242.7379 0.0813 240.7428 -0.1309 238.3615 0.0774 C 235.3224 0.3434 232.5706 1.2196 230.1112 2.7026 C 227.6479 4.1866 225.4377 6.1047 223.4768 8.4605 C 221.5159 10.8153 219.7974 13.5149 218.3204 16.5547 C 216.8433 19.596 215.555 22.7727 214.4543 26.0854 C 213.5208 28.894 212.7593 31.7744 212.1503 34.7184 C 216.641 34.6338 221.1239 34.6192 225.5961 34.6803 Z" fill="#c63443"/>		<path d="M 103.6866 107.8427 C 104.0189 104.1741 104.3229 100.8409 104.5947 97.8446 C 104.8665 94.8478 105.1362 91.871 105.406 88.9197 C 105.6758 85.9659 105.884 82.8972 106.0287 79.7082 C 105.9407 78.6976 105.3288 77.8967 104.1949 77.3079 C 103.06 76.7183 101.2506 76.4713 98.7638 76.5686 C 97.2731 76.7466 95.9652 77.262 94.84 78.1128 C 93.7139 78.965 92.7579 80.0143 91.9739 81.2597 C 91.188 82.506 90.5321 83.881 90.0052 85.3875 C 89.4764 86.8934 89.0521 88.3652 88.7315 89.8071 C 88.4099 91.2476 88.1909 92.5761 88.0775 93.7911 C 87.9622 95.0057 87.8723 95.9645 87.8048 96.6662 C 87.4676 105.0312 86.9006 111.6077 86.1064 116.3995 C 91.8175 114.1366 97.6123 112.0077 103.4891 110.0186 C 103.5522 109.3218 103.6177 108.6016 103.6866 107.8427 Z" fill="#eec44e"/>		<path d="M 246.4299 87.5041 C 247.6 86.3468 248.5805 85.7346 249.3772 85.6647 C 250.0302 85.6075 250.56 85.8735 250.9637 86.4602 C 251.3664 87.0494 251.6147 87.8415 251.7017 88.841 C 251.7477 89.3641 251.6509 89.8771 251.4114 90.3763 C 251.1729 90.876 250.821 91.4226 250.3547 92.0138 C 250.3449 92.0265 250.3322 92.0416 250.3215 92.0544 C 255.0507 92.4573 259.7624 92.9501 264.4544 93.5374 C 265.301 92.2206 266.1182 90.9058 266.8767 89.5969 C 268.1035 87.4758 269.2404 85.0173 270.2912 82.218 C 271.3401 79.4173 271.78 77.0424 271.6089 75.0915 C 271.4349 73.0956 271.0204 71.3094 270.3645 69.7379 C 269.7086 68.1669 268.8865 66.8487 267.8992 65.7842 C 266.9129 64.7217 265.7946 63.9311 264.5522 63.4172 C 263.3068 62.9028 262.0292 62.7033 260.7213 62.8177 C 258.1534 63.0427 255.8483 63.6157 253.8112 64.5369 C 251.7741 65.4576 250.0761 66.504 248.7222 67.678 C 247.8444 68.4265 246.1582 70.1193 244.1279 72.6179 C 242.0829 75.1355 240.3791 77.4566 238.5765 79.9136 C 236.7564 82.3985 235.3732 84.589 233.2657 87.6865 L 230.9705 90.9312 C 235.211 91.0628 239.4417 91.2666 243.6587 91.5468 C 244.5854 89.7714 245.5101 88.4224 246.4299 87.5041 Z" fill="#eec44e"/>		<path d="M 324.1799 98.0886 C 324.4459 95.1074 324.787 91.1708 325.2034 86.2739 C 325.6179 81.379 325.9434 77.5744 326.177 74.8602 C 326.4087 72.147 326.6188 69.7262 326.8017 67.5978 C 326.9844 65.4698 327.1311 63.7741 327.2396 62.5112 C 327.3305 61.9371 327.3579 61.4404 327.3217 61.0184 C 327.2035 59.663 326.6247 58.7115 325.5886 58.1653 C 324.5485 57.6211 323.3041 57.4109 321.8535 57.5375 C 320.6384 57.6441 319.3696 57.9663 318.0509 58.5061 C 316.7293 59.0459 315.4771 59.8033 314.2874 60.7773 C 313.0997 61.7528 312.0929 62.8891 311.262 64.1868 C 310.3891 65.5349 309.8602 66.9934 309.6648 68.5644 L 306.3451 95.2697 C 306.2904 96.7923 306.043 98.711 305.611 101.0243 C 305.6031 101.0648 305.5934 101.1045 305.5855 101.1445 C 311.6247 102.6285 317.6169 104.2655 323.5553 106.0542 C 323.7606 103.3375 323.9679 100.6664 324.1799 98.0886 Z" fill="#eec44e"/>		<path d="M 291.13 87.6005 C 291.6432 82.5804 292.0557 78.5636 292.3617 75.5511 C 292.6696 72.5401 293.1427 69.9208 293.7791 67.6975 C 293.9941 66.9729 294.132 66.3016 294.1945 65.6835 C 294.2542 65.066 294.2639 64.4988 294.219 63.9854 C 294.0675 62.2545 293.3714 61.0321 292.131 60.3162 C 290.8934 59.5999 289.4565 59.3129 287.825 59.4557 C 285.9081 59.6234 283.997 60.3451 282.083 61.6188 C 280.173 62.8935 278.7702 64.6279 277.8817 66.8252 C 276.691 69.8963 275.6627 72.9176 274.7927 75.8895 C 273.9227 78.8604 273.2971 82.8727 272.91 87.9212 C 272.7262 90.343 272.5551 92.5741 272.3978 94.6253 C 278.3323 95.5035 284.2326 96.5273 290.0948 97.6964 C 290.3705 95.0018 290.7155 91.6437 291.13 87.6005 Z" fill="#eec44e"/>		<path d="M 209.9626 46.3253 C 209.3702 49.5044 208.9411 52.4886 208.6791 55.278 C 208.4162 58.0675 208.1923 60.4238 208.0114 62.3454 C 207.6068 67.9327 207.3438 73.674 207.2236 79.5708 C 207.1434 83.4942 207.1151 87.291 207.1307 90.9831 C 214.857 90.7083 222.557 90.6853 230.2207 90.9063 L 234.8942 82.3276 C 235.2471 81.5394 235.9617 79.8764 237.035 77.3412 C 238.1073 74.806 239.3292 71.7011 240.7027 68.0261 C 242.0751 64.3511 243.4827 60.2463 244.9206 55.7117 C 246.3615 51.1786 247.6489 46.5277 248.7848 41.7579 C 249.2638 39.7468 249.6851 37.7426 250.0683 35.7438 C 244.948 35.3702 239.8112 35.091 234.6586 34.9076 C 234.2931 36.2029 233.9265 37.4776 233.555 38.7093 C 233.0027 40.5478 232.4856 42.263 232.0096 43.859 C 231.5286 45.4549 231.2803 46.4143 230.9294 47.8376 C 230.3732 50.0878 229.7603 52.8494 228.9753 56.0956 C 228.1904 59.3432 227.3507 62.8109 226.4602 66.4942 C 225.5706 70.1804 224.6694 73.9141 223.7652 77.6952 C 222.859 81.4782 222.0291 84.9782 221.2764 88.1975 C 221.1992 82.4635 221.2529 76.6224 221.4387 70.6709 C 221.5902 68.254 221.7525 65.6615 221.9274 62.8945 C 222.1024 60.1275 222.2784 57.3141 222.4602 54.4542 C 222.6459 51.5933 222.9597 48.6923 223.4093 45.7473 C 223.8629 42.8038 224.2979 40.0847 224.9333 37.3456 C 225.1474 36.4278 225.3703 35.5438 225.5961 34.6803 C 221.1239 34.6192 216.641 34.6338 212.1503 34.7184 C 212.0408 35.247 211.9264 35.7736 211.8277 36.3066 C 211.1747 39.808 210.553 43.1475 209.9626 46.3253 Z" fill="#eec44e"/>		<path d="M 135.5049 100.7822 C 135.5415 100.4048 135.5782 100.0238 135.6163 99.6317 C 135.9751 95.9225 136.282 92.7633 136.5342 90.1489 C 136.7884 87.5359 136.8617 85.14 136.7561 82.9583 C 136.6495 80.7781 136.541 79.0564 136.4306 77.794 C 136.3162 76.4855 135.5469 75.47 134.1197 74.7453 C 132.6925 74.0236 130.8284 73.762 128.5302 73.9635 C 126.5 74.141 124.7179 74.6867 123.1852 75.5971 C 121.6515 76.5075 120.8215 77.5348 120.6935 78.6756 L 117.6642 105.5412 C 120.4613 104.7198 123.2746 103.9262 126.106 103.1674 C 129.238 102.3278 132.3709 101.5342 135.5049 100.7822 Z" fill="#eec44e"/>		<path d="M 207.1307 90.9831 C 207.1385 92.8411 207.1532 94.6801 207.1855 96.4794 C 207.2334 99.3002 207.2979 101.9919 207.378 104.5658 C 206.1649 106.258 204.813 108.0207 203.292 109.869 C 201.0359 112.6091 198.6341 115.1497 196.0857 117.4918 C 193.5373 119.8339 190.9684 121.8132 188.3809 123.4272 C 185.7914 125.0427 183.376 125.9493 181.1345 126.1458 C 178.8559 126.3453 176.9517 126.006 175.4209 125.1259 C 173.8911 124.2487 172.6076 123.0899 171.5685 121.6508 C 170.5284 120.2124 169.7777 118.5939 169.3163 116.7975 C 168.8539 115.0011 168.5499 113.2623 168.4033 111.5803 C 168.3056 110.4587 168.2293 109.0651 168.1775 107.3973 C 168.1257 105.7319 168.2176 103.9683 168.4532 102.1112 C 168.6897 100.2542 169.1541 97.9424 169.849 95.1724 C 169.9331 94.839 170.0206 94.5432 170.1066 94.2273 C 164.1423 95.0605 158.1726 96.0462 152.2009 97.1874 C 151.7708 99.0939 151.3768 101.1372 151.0289 103.3541 C 150.4199 107.2218 150.2351 110.511 150.4717 113.2193 C 150.6848 115.6533 151.151 117.9974 151.8197 120.274 C 151.5342 120.5008 151.2605 120.7355 150.9693 120.9595 C 149.3378 122.2122 147.7307 123.3451 146.1491 124.3572 C 144.5655 125.3723 143.0621 126.2016 141.6358 126.846 C 140.2097 127.4895 138.9809 127.8582 137.9555 127.9481 C 137.1471 128.0185 136.5107 127.8493 136.0474 127.4396 C 135.5841 127.0328 135.2155 126.4265 134.9418 125.6226 C 134.6691 124.8208 134.4628 123.8692 134.327 122.7701 C 134.1891 121.6724 134.064 120.4656 133.9487 119.1513 C 133.8773 118.3377 133.931 117.0214 134.107 115.2025 C 134.2839 113.3836 134.4892 111.2615 134.7248 108.8348 C 134.9345 106.6648 135.195 103.9785 135.5049 100.7822 C 132.3709 101.5342 129.238 102.3278 126.106 103.1674 C 123.2746 103.9262 120.4613 104.7198 117.6642 105.5412 L 116.3103 117.5485 C 116.106 119.5327 115.6915 121.2939 115.0708 122.8336 C 114.454 124.4208 113.6954 125.7361 112.7932 126.7727 C 111.9476 127.9012 111.0082 128.7852 109.9799 129.4267 C 108.9486 130.0687 107.9173 130.4345 106.887 130.5244 C 106.1832 130.5851 105.5566 130.4462 105.0072 130.1078 C 104.4578 129.7675 103.9925 129.2947 103.6084 128.6982 C 103.2252 128.1007 102.9182 127.4103 102.6846 126.6289 C 102.451 125.8486 102.1841 124.8022 102.2203 124.1548 C 102.2222 124.1069 102.275 123.4008 102.3992 122.0352 C 102.5224 120.67 102.6846 118.8804 102.885 116.6655 C 103.0448 114.9101 103.2462 112.6893 103.4891 110.0186 C 97.6123 112.0077 91.8175 114.1366 86.1064 116.3995 C 85.994 117.0796 85.8766 117.7241 85.755 118.3318 C 85.1557 121.6782 85.0981 126.4148 85.5849 132.537 C 85.8419 135.4785 86.36 137.9165 87.1381 139.8488 C 87.9153 141.7802 88.883 143.3087 90.0355 144.4313 C 91.188 145.5559 92.4617 146.3148 93.8567 146.7088 C 95.2506 147.1069 96.7159 147.2359 98.2506 147.101 C 100.1196 146.9367 102.015 146.391 103.9368 145.4523 C 105.8586 144.5193 107.7316 143.2989 109.5556 141.7909 C 111.3787 140.282 113.147 138.5374 114.8587 136.5533 C 116.5693 134.5681 118.1725 132.4176 119.6661 130.1039 C 120.3113 132.1839 121.019 134.0596 121.7902 135.7318 C 122.5605 137.405 123.4491 138.8259 124.452 139.9916 C 125.456 141.1573 126.6085 142.0295 127.9086 142.6124 C 129.2086 143.1962 130.7307 143.4104 132.4765 143.2578 C 134.1891 143.1072 136.0288 142.7053 137.9917 142.0432 C 139.9555 141.3822 141.9536 140.5607 143.9839 139.5672 C 146.0161 138.5775 148.023 137.4588 150.0103 136.2178 C 151.9947 134.9749 153.8598 133.6978 155.6056 132.3844 C 156.2087 131.9287 156.7669 131.4789 157.3319 131.0271 C 157.8432 131.648 158.3739 132.2495 158.938 132.8196 C 161.3788 135.2898 164.3056 137.1791 167.7122 138.4797 C 171.1179 139.7813 174.985 140.2439 179.3114 139.8654 C 181.7787 139.6493 184.1815 139.0508 186.5197 138.068 C 188.8569 137.0882 191.0798 135.8804 193.1913 134.4488 C 195.3027 133.0152 197.3037 131.4182 199.1962 129.6502 C 201.0896 127.8836 202.8267 126.0823 204.4083 124.2496 C 205.683 122.7828 206.9049 121.2343 208.1024 119.6471 C 208.164 120.5096 208.2255 121.3106 208.29 122.044 C 208.4709 124.1108 208.7221 126.05 209.0457 127.8601 C 209.3692 129.6707 209.8941 131.2422 210.6234 132.5712 C 211.3526 133.9051 212.335 134.926 213.5735 135.6379 C 214.813 136.3479 216.4377 136.6158 218.4445 136.4398 C 219.9391 136.3088 221.2168 135.8472 222.2774 135.0522 C 223.337 134.2591 224.3546 132.9624 225.3272 131.165 L 242.7769 93.3599 C 243.0712 92.7115 243.3645 92.1086 243.6587 91.5468 C 239.4417 91.2666 235.211 91.0628 230.9705 90.9312 L 227.6547 95.6174 L 230.2207 90.9063 C 222.557 90.6853 214.857 90.7083 207.1307 90.9831 Z" fill="#86b652"/>		<path d="M 345.3609 92.4416 C 342.6659 97.1468 340.2113 101.0912 337.9933 104.2734 C 336.6551 106.193 335.395 107.8985 334.1956 109.4377 C 333.4077 110.4489 332.6404 111.4014 331.9131 112.2482 C 330.0744 114.385 328.3862 116.109 326.8476 117.4204 C 325.309 118.7318 323.8662 119.8456 322.5162 120.7629 C 322.8535 115.644 323.2005 110.7569 323.5553 106.0542 C 317.6169 104.2655 311.6247 102.6285 305.5855 101.1445 C 305.1535 103.4167 304.525 105.638 303.698 107.8071 C 302.8543 110.0157 301.7996 111.9343 300.5308 113.5606 C 299.261 115.1888 297.7596 116.0807 296.0342 116.2313 C 294.96 116.3251 294.0479 116.1315 293.3001 115.6475 C 292.5513 115.1683 291.9286 114.5092 291.432 113.6711 C 290.9365 112.834 290.5572 111.8688 290.2962 110.7726 C 290.0352 109.6773 289.8544 108.5395 289.7507 107.3572 C 289.5523 105.0909 289.6031 102.4867 289.9052 99.5437 C 289.9638 98.9711 290.0273 98.3477 290.0948 97.6964 C 284.2326 96.5273 278.3323 95.5035 272.3978 94.6253 C 272.2267 96.8495 272.0723 98.8606 271.9354 100.6483 C 271.7458 103.1268 271.7223 105.774 271.8533 108.5777 C 271.1895 109.5062 270.5102 110.4293 269.8015 111.3393 C 268.7233 112.7294 267.6441 113.9977 266.5678 115.1458 C 265.4916 116.2948 264.4329 117.2375 263.3929 117.9759 C 262.3499 118.7132 261.3625 119.1239 260.429 119.2061 C 258.7018 119.3567 257.3938 119.1005 256.515 118.4355 C 255.6304 117.7685 255.1152 116.5794 254.9647 114.8661 C 254.7907 112.8692 255.0839 110.8298 255.8415 108.7502 C 256.603 106.6712 257.5942 104.5609 258.819 102.4173 C 260.0429 100.2723 261.385 98.1292 262.8454 95.988 C 263.4036 95.1695 263.9295 94.3534 264.4544 93.5374 C 259.7624 92.9501 255.0507 92.4573 250.3215 92.0544 C 249.862 92.6382 249.3224 93.2939 248.6958 94.0288 C 248.0546 94.7803 247.341 95.5695 246.7066 96.6261 C 244.9158 99.6112 243.2462 102.2217 242.1484 104.7354 C 241.0497 107.2516 240.2256 109.5399 239.6763 111.6004 C 239.1269 113.6613 238.7936 115.4998 238.6772 117.1153 C 238.5589 118.7308 238.5492 120.0852 238.645 121.1795 C 238.7936 122.8757 239.1572 124.501 239.7427 126.052 C 240.3234 127.6029 241.2765 128.9573 242.602 130.1157 C 243.9265 131.2715 245.6861 132.136 247.8786 132.712 C 250.0693 133.287 252.8474 133.4298 256.211 133.1345 C 258.7799 132.9096 261.4232 132.3287 264.1416 131.3869 C 266.8601 130.4442 269.4603 129.237 271.9452 127.7682 C 273.7546 126.6954 275.4506 125.5141 277.041 124.2272 C 277.5776 124.8481 278.1358 125.4417 278.7399 125.9708 C 280.5269 127.5345 282.52 128.6776 284.7253 129.4023 C 286.9286 130.1294 289.1534 130.3934 291.3969 130.1968 C 293.9648 129.9729 296.5552 129.058 299.1701 127.4553 C 301.782 125.8515 304.2532 123.8292 306.5816 121.3878 L 305.7811 129.9964 C 303.0616 132.8196 300.738 135.4453 298.8104 137.8734 C 296.8788 140.3006 294.4398 143.4984 291.4946 147.4726 C 290.0146 149.3903 288.6227 151.5084 287.3216 153.8339 C 287.2053 154.0452 287.1075 154.228 286.998 154.4304 C 285.87 156.5007 285.0215 158.1309 284.476 159.2701 C 283.8817 160.5199 282.8524 162.7632 281.3948 165.9942 C 278.7937 171.7737 277.8954 177.1209 278.7018 182.0379 C 279.1173 184.6342 279.9452 186.8512 281.1877 188.6994 C 282.4291 190.5398 283.9374 191.9461 285.7145 192.924 C 287.4897 193.896 289.4154 194.561 291.4897 194.9209 C 293.5641 195.2798 295.7908 195.356 298.1681 195.1478 C 301.1056 194.8915 303.7674 194.1894 306.1584 193.0374 C 308.5465 191.8835 310.5494 190.4733 312.1633 188.7992 C 313.7772 187.1269 315.2161 185.1555 316.4732 182.8779 C 317.7283 180.6013 318.7048 178.3355 319.4028 176.0863 C 320.0978 173.8322 320.6599 171.3806 321.0851 168.7305 C 321.3285 167.2088 321.5084 165.7997 321.6375 164.4795 C 321.7342 163.4977 321.8055 162.5598 321.8398 161.6895 C 321.9189 159.6457 322.0031 157.4933 322.092 155.2372 C 322.0764 154.3023 322.1291 152.9646 322.2474 151.218 C 322.3363 145.1413 322.5192 140.9715 322.7968 138.7105 C 323.0764 136.4506 323.8182 134.8419 325.0226 133.8914 C 329.9659 129.9259 332.8691 127.5081 333.7343 126.6319 C 336.6033 123.9132 338.1917 122.4205 338.4987 122.1594 C 339.4605 121.3281 341.0177 119.742 343.1664 117.4018 C 344.2553 116.1907 345.3922 115.0245 346.3472 113.7523 C 346.6717 113.32 346.9757 112.8766 347.2485 112.414 C 347.4352 112.0977 348.2455 111.1681 350.0882 107.7459 C 353.7128 101.0164 345.3609 92.4416 345.3609 92.4416 ZM 306.6071 162.0621 C 306.0802 164.6506 305.6393 166.7248 305.2816 168.2865 C 304.9238 169.8482 304.4986 171.4373 304.0039 173.0606 C 303.5123 174.683 303.0206 175.9484 302.5367 176.8608 C 302.0518 177.7742 301.4673 178.6259 300.784 179.4171 C 300.0998 180.2033 299.3265 180.7813 298.4624 181.1382 C 297.6002 181.4941 296.608 181.7249 295.4858 181.8227 C 292.4037 182.0926 291.437 179.9168 292.5904 175.2962 C 293.9951 169.8042 296.0655 164.3514 298.7996 158.9347 C 299.0401 158.4575 299.2835 158.0037 299.5269 157.548 C 302.046 152.8306 304.7048 149.2641 307.5054 146.8702 C 307.4829 147.5264 307.4311 149.0314 307.3539 151.394 C 307.2747 153.7489 307.2063 155.7673 307.1487 157.4503 C 307.1223 158.2267 307.0626 158.966 306.9834 159.6809 C 306.8905 160.5141 306.7693 161.313 306.6071 162.0621 Z" fill="#86b652"/>		<path d="M 197.8511 84.2115 C 197.6507 81.9227 196.9792 79.8266 195.8374 77.926 C 194.6927 76.0235 193.201 74.4246 191.3594 73.1254 C 189.5197 71.8282 187.3574 70.8757 184.8745 70.268 C 182.3936 69.6621 179.7337 69.4817 176.9038 69.7296 C 173.7572 70.0049 170.9204 70.8307 168.3906 72.2057 C 165.8608 73.5801 163.6125 75.3321 161.6447 77.4561 C 159.678 79.5831 157.9976 82.0039 156.6007 84.7151 C 155.2058 87.4259 154.0807 90.2442 153.2244 93.1677 C 152.8593 94.4155 152.5215 95.7675 152.2009 97.1874 C 158.1726 96.0462 164.1423 95.0605 170.1066 94.2273 C 170.7327 91.9214 171.4038 90.0555 172.1296 88.6869 C 172.9537 87.133 174.0006 85.8402 175.2694 84.81 C 176.5392 83.7812 178.1267 83.1837 180.0348 83.0165 C 180.8247 82.9471 181.3701 83.2776 181.6673 84.0032 C 181.9635 84.7303 182.1629 85.6559 182.2606 86.7766 C 182.4209 88.0816 182.4356 88.906 182.4112 89.3064 C 182.3242 90.7366 182.1365 91.8847 181.9639 92.7707 C 181.7983 93.6215 181.6458 94.2307 181.6106 94.6023 C 181.3134 96.0418 181.811 97.6216 183.1032 99.3462 C 183.8941 100.4541 185.4708 100.904 187.8345 100.6971 C 189.4004 100.5602 190.769 100.0644 191.942 99.2078 C 193.115 98.3521 194.2665 96.8266 195.4005 94.6321 C 195.9792 93.509 196.4494 92.4675 196.8159 91.5043 C 197.1649 90.5865 197.421 89.7392 197.5764 88.9676 C 197.899 87.3858 197.9899 85.8006 197.8511 84.2115 Z" fill="#eec44e"/>		<path d="M 61.0257 191.3349 C 59.5843 192.2101 58.1419 193.0844 56.7182 193.9821 C 58.2153 193.2017 59.6586 192.3245 61.0257 191.3349 Z" fill="#1f824c"/>		<path d="M 77.1464 50.122 C 77.7212 46.5526 78.2847 42.9353 79.1361 39.4207 C 80.0291 35.736 81.0609 31.6258 83.7153 28.7825 C 86.078 26.2512 89.2814 24.0699 92.9842 24.8489 C 95.4832 25.3745 95.6792 28.1014 95.4128 30.201 C 94.9055 34.1943 93.3532 38.2115 91.9236 41.9515 C 89.9392 47.1438 87.5712 52.3976 84.5785 57.1967 C 91.5326 54.8258 98.5839 52.622 105.7325 50.5958 C 106.0517 49.9362 106.3689 49.2756 106.6807 48.6141 C 110.0991 41.3653 113.3743 33.9777 112.4378 25.7578 C 112.0038 21.9508 110.7619 18.2504 108.3279 15.2487 C 105.8723 12.2201 102.4412 10.3645 98.7139 9.3626 C 90.9265 7.2694 81.948 8.5554 75.0897 12.7736 C 68.3189 16.9376 63.8575 24.3829 61.4763 31.815 C 58.9005 39.9067 58.447 48.1945 58.0872 56.6085 C 57.9347 60.1818 57.899 63.7751 57.7896 67.3631 C 63.9367 64.7863 70.1694 62.343 76.4881 60.0439 C 76.5775 56.7307 76.6191 53.3936 77.1464 50.122 Z" fill="#c63443"/>		<path d="M 56.0906 80.934 C 55.2387 82.6214 53.6972 83.6077 52.25 84.7455 C 49.8159 86.6597 47.377 88.5725 45.0104 90.5704 C 41.5808 93.4645 38.1864 96.5684 35.006 99.7412 C 30.5084 104.2279 26.3823 108.9277 23.2733 114.472 C 20.7362 118.9958 20.6575 123.8365 23.5685 128.2038 C 24.9463 130.2707 26.788 132.1443 28.8633 133.5207 C 36.3736 120.7859 44.8975 107.366 57.4372 99.045 C 56.7021 109.5448 55.8257 120.0304 54.9083 130.5132 C 61.8096 126.9873 68.857 123.6697 76.0452 120.5673 C 76.166 118.4472 76.2862 116.3261 76.4069 114.206 C 76.7676 107.8579 77.033 101.4986 77.579 95.1631 C 77.7676 92.9765 77.9563 90.7899 78.1445 88.6033 C 78.1953 88.0127 78.2466 87.422 78.2975 86.8313 C 78.3297 86.4539 78.8365 86.1649 79.0848 85.9224 C 79.9284 85.099 80.795 84.3 81.6684 83.5089 C 87.2471 78.4565 91.6548 72.4727 96.2047 66.501 C 100.0595 61.6452 103.0385 56.1684 105.7325 50.5958 C 98.5839 52.622 91.5326 54.8258 84.5785 57.1967 C 83.1445 59.4963 81.5795 61.7 79.8219 63.7257 C 78.7173 64.998 77.5272 66.1998 76.2319 67.278 C 76.3018 65.4473 76.3683 63.6167 76.4343 61.786 C 76.4558 61.2066 76.4724 60.6253 76.4881 60.0439 C 70.1694 62.343 63.9367 64.7863 57.7896 67.3631 C 57.6952 70.445 57.5476 73.5234 57.2148 76.5809 C 57.052 78.0766 56.7744 79.5801 56.0906 80.934 Z" fill="#eec44e"/>		<path d="M 76.4343 61.786 C 76.3307 64.6533 76.5408 58.9212 76.4343 61.786 L 76.4343 61.786 Z" fill="#1f824c"/>		<path d="M 155.5372 137.6446 C 153.0675 138.7408 150.9433 140.6683 148.8338 142.3141 C 145.5601 144.8684 142.2082 147.3142 138.6134 149.402 C 133.7976 152.1989 128.629 154.3532 123.2595 155.8279 C 119.9505 156.7354 116.5356 157.4727 113.1177 157.8101 C 109.7189 158.1465 106.3122 157.9891 102.905 157.9607 C 102.1054 157.9548 101.1802 157.947 102.7917 157.9588 C 93.255 157.8923 83.8156 155.1991 74.5526 153.1513 C 73.6875 152.9606 73.9763 152.6819 74.0355 151.8018 C 74.1567 150.0152 74.2774 148.2276 74.3981 146.4399 C 74.6669 142.4657 74.9357 138.4915 75.2041 134.5172 C 75.2896 133.2538 75.3111 131.9893 75.3468 130.7225 C 75.4245 127.9506 75.7813 125.2158 75.9377 122.462 C 75.9734 121.8308 76.0096 121.1991 76.0452 120.5673 C 68.857 123.6697 61.8096 126.9873 54.9083 130.5132 C 54.3868 136.4711 53.856 142.4295 53.3213 148.3879 C 53.2832 148.8143 53.2446 149.2416 53.2065 149.668 C 53.1507 150.2851 52.9415 150.0885 52.3956 150.112 C 51.5681 150.1472 50.7402 150.1863 49.9127 150.2274 C 47.8384 150.3311 45.7651 150.4513 43.6922 150.5843 C 39.4928 150.8542 35.3203 151.2923 31.1864 152.0932 C 24.4156 153.4056 17.6863 155.5365 11.6721 158.9621 C 6.0479 162.1657 1.0807 166.5253 0.1354 173.2953 C -1.0029 181.4443 5.2234 189.3302 11.7576 193.4071 C 21.8261 199.6882 35.114 200.3698 46.4401 197.7255 C 49.985 196.8982 53.4777 195.6719 56.7182 193.9821 C 58.1419 193.0844 59.5843 192.2101 61.0257 191.3349 C 61.5946 190.9222 62.1537 190.4958 62.6952 190.046 C 65.2974 187.8838 67.6479 185.2513 69.1371 182.1924 C 70.3942 179.6107 70.7657 176.8638 70.9875 174.0346 C 71.0912 172.7174 70.9323 169.5744 72.316 168.7862 C 73.1445 168.3139 74.34 168.5388 75.2227 168.6698 C 77.3121 168.9798 79.3771 169.4835 81.4524 169.8785 C 86.3185 170.8056 91.1914 171.2222 96.0893 171.9077 C 96.7809 172.0045 97.4837 172.0642 98.1822 172.1385 C 107.3938 173.1164 117.1666 172.2021 126.2189 170.6345 C 132.3401 169.5754 138.5459 168.0625 144.1232 165.256 C 148.8734 162.8659 151.7923 159.1674 153.4961 154.2271 C 153.5641 154.0285 153.6437 153.8427 153.7082 153.6403 C 155.3251 148.5659 155.8764 142.9595 155.5372 137.6446 ZM 51.7592 165.3136 C 51.7744 165.1728 51.77 165.2149 51.7583 165.3244 C 51.3325 169.2175 51.2094 173.577 48.7675 177.0036 C 45.9738 180.9221 41.2348 183.0314 36.5251 183.3786 C 31.7318 183.7316 26.6844 182.296 23.2044 178.8802 C 21.8378 177.5395 20.6013 175.7714 20.8417 173.753 C 21.2679 170.1817 25.6795 168.3667 28.5798 167.3506 C 35.8736 164.7983 44.1575 163.793 51.8521 164.4394 C 51.8086 164.9215 51.748 165.4016 51.6967 165.8828 C 51.7172 165.6931 51.7387 165.5034 51.7592 165.3136 Z" fill="#86b652"/>		<path d="M 51.7583 165.3244 C 51.7587 165.3215 51.7587 165.3176 51.7592 165.3136 C 51.6243 166.5478 51.7231 165.6442 51.7583 165.3244 Z" fill="#1f824c"/>		<path d="M 102.7917 157.9588 C 102.8293 157.9588 102.8669 157.9597 102.905 157.9607 C 103.6279 157.9656 104.2491 157.9695 102.7917 157.9588 Z" fill="#1f824c"/>		<path d="M 102.905 157.9607 C 102.8669 157.9597 102.8293 157.9588 102.7917 157.9588 C 101.1802 157.947 102.1054 157.9548 102.905 157.9607 Z" fill="#1f824c"/>	</g></svg>