<svg id="d0526554-6e02-4afd-9e18-f6f7d127b064" data-name="Layer 1" xmlns="http://www.w3.org/2000/svg" viewBox="0 0 350.854 219"><title>logo-green</title><path transform="translate(-0.035)" style="fill:none"/><path d="M106.136,208.53h5.36A11.9,11.9,0,0,1,99.366,219a12.824,12.824,0,1,1-.007-25.647c6.37,0,11.11,4.164,12.13,10.47h-5.36c-0.87-3.515-3.22-5.47-6.77-5.47-4.39,0-7.57,3.15-7.57,7.825S94.969,214,99.359,214c3.55,0,5.9-1.95,6.77-5.47h0.007Zm20.714,5.217-1.918,4.746h-5.578l10.61-24.778h4.925l10.57,24.778h-5.54L138,213.747H126.85Zm5.54-13.763L128.77,209h7.276Zm41.823,1.41h-5.18c-0.326-2.17-1.7-3.62-4.67-3.62-2.57,0-4.272,1.085-4.272,3.006,0,1.666,1.24,2.39,3.48,2.826l3.04,0.614c4.71,1.015,7.5,2.826,7.5,6.955,0,4.71-3.87,7.825-9.77,7.825-5.94,0-10.35-3.15-10.79-8.658h5.21c0.4,2.5,2.58,4.058,5.87,4.058,2.61,0,4.06-.98,4.06-2.646,0-1.01-.58-2.064-3.08-2.535l-4.02-.77c-4.88-.98-7.02-3.41-7.02-7.25,0-4.75,3.76-7.9,9.41-7.9,4.13,0,9.67,1.7,10.25,8.08Zm16.7,17.1h-5.252V193.86h5.25v24.633h0Zm34.326,0h-4.055l-12.92-14.96v14.96h-5.25V193.86h3.95L220,209.22V193.86h5.25v24.633h-0.014ZM262.5,206.178a12.875,12.875,0,1,1-12.889-12.825A12.768,12.768,0,0,1,262.5,206.178h0Zm-5.326,0a7.575,7.575,0,1,0-7.566,7.932A7.647,7.647,0,0,0,257.174,206.178Z" transform="translate(-0.035)" style="fill:#369540"/><path d="M61.026,191.335c-1.442.876-2.884,1.75-4.308,2.648A34.872,34.872,0,0,0,61.026,191.335Z" transform="translate(-0.035)" style="fill:#1f814c"/><path d="M225.568,34.659c0.575-2.195,1.192-4.179,1.737-6.011a51.405,51.405,0,0,1,2.362-6.546,14.72,14.72,0,0,1,2.745-4.254,5.847,5.847,0,0,1,3.79-1.74q1.491-.132,1.688,2.112a16.828,16.828,0,0,1-.22,3.974q-0.36,2.363-1.01,5.1T235.2,33c-0.18.652-.459,1.345-0.639,1.982q7.74,0.273,15.414.827c0.53-2.74,1.075-5.52,1.415-8.235a61.211,61.211,0,0,0,.38-13.05,32.147,32.147,0,0,0-1.1-6.17,13.464,13.464,0,0,0-2.35-4.75,9.236,9.236,0,0,0-3.96-2.89,13.089,13.089,0,0,0-5.98-.64,18.908,18.908,0,0,0-8.25,2.62,26.091,26.091,0,0,0-6.63,5.76,39.684,39.684,0,0,0-5.16,8.09,78.731,78.731,0,0,0-3.86,9.53,79.622,79.622,0,0,0-2.388,8.727q6.735-.135,13.45-0.047Z" transform="translate(-0.035)" style="fill:#acc762"/><path d="M103.568,107.882l0.91-10q0.4-4.5.81-8.925t0.622-9.21a2.989,2.989,0,0,0-1.833-2.4,11.445,11.445,0,0,0-5.43-.74,7.964,7.964,0,0,0-3.925,1.545A11.751,11.751,0,0,0,91.856,81.3a20.327,20.327,0,0,0-1.97,4.127,39.347,39.347,0,0,0-1.272,4.42,32.38,32.38,0,0,0-.655,3.984l-0.272,2.88a169.425,169.425,0,0,1-1.7,19.74q8.565-3.39,17.382-6.38l0.19-2.17ZM246.312,87.545a5.489,5.489,0,0,1,2.95-1.84,1.652,1.652,0,0,1,1.584.795,4.963,4.963,0,0,1,.74,2.38,2.9,2.9,0,0,1-.292,1.536,8.9,8.9,0,0,1-1.056,1.638l-0.033.04q7.095,0.6,14.133,1.483c0.847-1.317,1.664-2.63,2.422-3.94a49.553,49.553,0,0,0,3.414-7.38,16.715,16.715,0,0,0,1.318-7.126,17.95,17.95,0,0,0-1.244-5.35,13.221,13.221,0,0,0-2.465-3.95,9.413,9.413,0,0,0-3.34-2.36,8.153,8.153,0,0,0-3.83-.6,21.379,21.379,0,0,0-6.91,1.72,21.162,21.162,0,0,0-5.09,3.14,41.246,41.246,0,0,0-4.59,4.94c-2.04,2.52-3.75,4.84-5.55,7.3-1.82,2.49-3.2,4.68-5.31,7.77l-2.29,3.25q6.36,0.195,12.69.62a17.115,17.115,0,0,1,2.77-4.04Zm77.75,10.585q0.4-4.475,1.024-11.816T326.06,74.9q0.345-4.069.624-7.262l0.438-5.087a6.193,6.193,0,0,0,.082-1.49,3.3,3.3,0,0,0-1.733-2.85,6.7,6.7,0,0,0-3.74-.62,13.056,13.056,0,0,0-3.8.97,14.9,14.9,0,0,0-3.77,2.27,14.691,14.691,0,0,0-3.03,3.41,10.282,10.282,0,0,0-1.6,4.38l-3.32,26.71a41.591,41.591,0,0,1-.74,5.76l-0.03.12q9.06,2.235,17.97,4.91c0.2-2.71.41-5.39,0.62-7.96Zm-33.05-10.49q0.771-7.53,1.23-12.05a45.911,45.911,0,0,1,1.42-7.852,11.09,11.09,0,0,0,.415-2.014,9.2,9.2,0,0,0,.024-1.7,4.386,4.386,0,0,0-2.09-3.67,7.172,7.172,0,0,0-4.31-.86,12.247,12.247,0,0,0-5.74,2.163,11.007,11.007,0,0,0-4.2,5.2q-1.785,4.6-3.09,9.06a60.612,60.612,0,0,0-1.88,12.03l-0.51,6.7q8.895,1.32,17.69,3.07l1.03-10.1ZM209.845,46.365q-0.888,4.77-1.282,8.953l-0.66,7.067q-0.6,8.382-.79,17.226c-0.08,3.93-.1,7.72-0.09,11.42q11.595-.4,23.09-0.07l4.68-8.58c0.35-.79,1.07-2.45,2.14-4.98s2.3-5.64,3.67-9.31,2.78-7.78,4.22-12.31,2.73-9.18,3.87-13.95c0.48-2.01.9-4.02,1.28-6.02q-7.68-.555-15.41-0.83c-0.36,1.3-.73,2.57-1.1,3.8-0.55,1.84-1.07,3.56-1.54,5.15s-0.73,2.56-1.08,3.98c-0.55,2.25-1.17,5.01-1.95,8.26s-1.62,6.72-2.51,10.4-1.79,7.42-2.69,11.2-1.73,7.28-2.49,10.5q-0.105-8.6.17-17.52l0.49-7.78c0.18-2.77.35-5.58,0.54-8.44s0.5-5.76.95-8.7,0.89-5.66,1.53-8.4c0.21-.92.44-1.8,0.66-2.67q-6.705-.09-13.45.04c-0.11.53-.22,1.06-0.32,1.59l-1.88,10Zm-74.458,54.458c0.037-.378.074-0.76,0.11-1.15q0.54-5.565.92-9.484a49.706,49.706,0,0,0,.22-7.2c-0.1-2.18-.214-3.9-0.324-5.17a3.716,3.716,0,0,0-2.31-3.05,10.378,10.378,0,0,0-5.59-.78,12.316,12.316,0,0,0-5.34,1.63c-1.53.91-2.36,1.93-2.49,3.08l-3.03,26.86c2.8-.82,5.61-1.62,8.44-2.38,3.13-.84,6.27-1.64,9.4-2.39Z" transform="translate(-0.035)" style="fill:#85b44f"/><path d="M207.132,90.983c0.008,1.858.022,3.7,0.055,5.5,0.047,2.82.11,5.51,0.192,8.085-1.22,1.693-2.57,3.455-4.09,5.3a76.013,76.013,0,0,1-7.21,7.625,52.75,52.75,0,0,1-7.71,5.935,16.721,16.721,0,0,1-7.25,2.718,9.6,9.6,0,0,1-5.72-1.02,12.167,12.167,0,0,1-3.85-3.475,14.1,14.1,0,0,1-2.25-4.85,31.489,31.489,0,0,1-.92-5.22c-0.1-1.12-.17-2.51-0.23-4.18a34.537,34.537,0,0,1,.27-5.28,61.567,61.567,0,0,1,1.39-6.94c0.08-.33.17-0.63,0.25-0.94q-8.955,1.26-17.91,2.96c-0.43,1.91-.82,3.95-1.17,6.17a41.41,41.41,0,0,0-.56,9.87,35.818,35.818,0,0,0,1.34,7.06c-0.29.23-.56,0.47-0.85,0.69q-2.445,1.89-4.82,3.4a34.7,34.7,0,0,1-4.52,2.49,11.947,11.947,0,0,1-3.68,1.1,2.441,2.441,0,0,1-1.91-.51,4,4,0,0,1-1.11-1.81,14.828,14.828,0,0,1-.62-2.85c-0.14-1.1-.27-2.3-0.38-3.62a24.043,24.043,0,0,1,.16-3.95l0.61-6.36,0.78-8.05c-3.13.75-6.27,1.55-9.4,2.39-2.84.76-5.65,1.55-8.45,2.37l-1.35,12.01a19.288,19.288,0,0,1-1.24,5.29,13.4,13.4,0,0,1-2.28,3.94,10.671,10.671,0,0,1-2.82,2.66,6.985,6.985,0,0,1-3.09,1.09,2.986,2.986,0,0,1-1.88-.42,4.386,4.386,0,0,1-1.4-1.41,8.168,8.168,0,0,1-.92-2.07,8.832,8.832,0,0,1-.47-2.47c0-.05.05-0.75,0.18-2.12l0.48-5.37c0.16-1.75.36-3.98,0.6-6.65q-8.82,2.985-17.39,6.38c-0.12.68-.23,1.33-0.35,1.94a58.807,58.807,0,0,0-.17,14.2,25.66,25.66,0,0,0,1.55,7.32,13.057,13.057,0,0,0,2.89,4.58,8.776,8.776,0,0,0,3.82,2.28,12.3,12.3,0,0,0,4.39.39,16.3,16.3,0,0,0,5.69-1.65,27.817,27.817,0,0,0,5.62-3.66,45.037,45.037,0,0,0,5.3-5.24,60.062,60.062,0,0,0,4.81-6.45,46.237,46.237,0,0,0,2.12,5.63,18.33,18.33,0,0,0,2.66,4.26,10,10,0,0,0,3.455,2.62,9.158,9.158,0,0,0,4.57.64,23.946,23.946,0,0,0,5.51-1.22,50.292,50.292,0,0,0,5.99-2.47,65.363,65.363,0,0,0,6.03-3.35c1.99-1.24,3.85-2.52,5.6-3.83,0.6-.45,1.16-0.9,1.72-1.36,0.51,0.62,1.05,1.22,1.61,1.79a24.385,24.385,0,0,0,8.78,5.66,25.9,25.9,0,0,0,11.6,1.39,23.789,23.789,0,0,0,7.21-1.8,38.094,38.094,0,0,0,6.67-3.62,49.779,49.779,0,0,0,6.01-4.8,69.11,69.11,0,0,0,5.21-5.4c1.273-1.47,2.494-3.01,3.693-4.6,0.06,0.86.12,1.66,0.19,2.39q0.27,3.1.75,5.82a15.474,15.474,0,0,0,1.572,4.71,7.728,7.728,0,0,0,2.95,3.07,8.237,8.237,0,0,0,4.874.8,7.265,7.265,0,0,0,3.83-1.39,11.722,11.722,0,0,0,3.05-3.89l17.46-37.81c0.294-.65.59-1.25,0.88-1.81q-6.33-.42-12.69-0.61l-3.32,4.69,2.57-4.71q-11.5-.33-23.09.078ZM345.36,92.44q-4.039,7.061-7.366,11.834c-1.34,1.92-2.6,3.625-3.8,5.164-0.788,1.01-1.555,1.964-2.282,2.81a47.875,47.875,0,0,1-5.065,5.172,50.472,50.472,0,0,1-4.34,3.343c0.34-5.12.68-10.007,1.04-14.708q-8.91-2.685-17.97-4.91a39.709,39.709,0,0,1-1.89,6.662,22.31,22.31,0,0,1-3.17,5.755,6.351,6.351,0,0,1-4.5,2.67,4.24,4.24,0,0,1-2.74-.584,5.84,5.84,0,0,1-1.87-1.977,10.142,10.142,0,0,1-1.14-2.89,21.86,21.86,0,0,1-.55-3.41,41.687,41.687,0,0,1,.15-7.81c0.06-.57.12-1.19,0.19-1.85q-8.8-1.755-17.7-3.07l-0.46,6.02a62.917,62.917,0,0,0-.08,7.93c-0.66.93-1.34,1.85-2.05,2.76q-1.62,2.085-3.23,3.81a21.028,21.028,0,0,1-3.18,2.83,6.134,6.134,0,0,1-2.97,1.23,5.592,5.592,0,0,1-3.92-.77,4.739,4.739,0,0,1-1.55-3.57,14.143,14.143,0,0,1,.87-6.11,40.867,40.867,0,0,1,2.98-6.33c1.22-2.14,2.56-4.29,4.02-6.43,0.55-.82,1.08-1.63,1.61-2.45q-7.05-.885-14.14-1.48c-0.46.59-1,1.24-1.63,1.98a18.181,18.181,0,0,0-1.99,2.6,78.573,78.573,0,0,0-4.56,8.11,48.956,48.956,0,0,0-2.47,6.87,30.358,30.358,0,0,0-1,5.52,25.351,25.351,0,0,0-.03,4.07,18.218,18.218,0,0,0,1.1,4.88,9.9,9.9,0,0,0,2.86,4.06,12.833,12.833,0,0,0,5.27,2.6,24.882,24.882,0,0,0,8.33.43,32.4,32.4,0,0,0,7.93-1.75,42.433,42.433,0,0,0,7.8-3.61,41.9,41.9,0,0,0,5.09-3.54,18.661,18.661,0,0,0,1.7,1.74,16.959,16.959,0,0,0,5.99,3.43,16.554,16.554,0,0,0,6.67.8,17.772,17.772,0,0,0,7.77-2.74,37.045,37.045,0,0,0,7.41-6.06l-0.8,8.61q-4.08,4.245-6.97,7.88c-1.93,2.43-4.37,5.62-7.31,9.6a51.441,51.441,0,0,0-4.18,6.36l-0.32.6c-1.13,2.07-1.98,3.7-2.52,4.84-0.6,1.25-1.63,3.5-3.08,6.73q-3.9,8.67-2.7,16.05a16.36,16.36,0,0,0,2.48,6.66,13.081,13.081,0,0,0,4.52,4.23,18.61,18.61,0,0,0,5.78,2,26.19,26.19,0,0,0,6.68.23,22.913,22.913,0,0,0,7.99-2.11,20.519,20.519,0,0,0,6-4.24,27.939,27.939,0,0,0,4.31-5.92,36.746,36.746,0,0,0,2.93-6.79,55.311,55.311,0,0,0,1.68-7.35c0.24-1.52.42-2.93,0.55-4.25,0.09-.98.17-1.92,0.2-2.79l0.25-6.45q-0.03-1.395.15-4.02,0.135-9.105.55-12.5t2.23-4.82q7.418-5.955,8.71-7.26,4.3-4.08,4.76-4.473,1.44-1.245,4.67-4.752c1.09-1.21,2.22-2.38,3.18-3.65a13.621,13.621,0,0,0,.9-1.34,38.649,38.649,0,0,0,2.84-4.662c3.62-6.73-4.73-15.305-4.73-15.305Zm-38.752,69.622q-0.792,3.885-1.326,6.225T304,173.062a22.134,22.134,0,0,1-1.466,3.8,13.818,13.818,0,0,1-1.754,2.556,6.241,6.241,0,0,1-2.32,1.72,10.061,10.061,0,0,1-2.978.686q-4.623.405-2.9-6.527a80.718,80.718,0,0,1,6.21-16.362c0.24-.477.484-0.93,0.727-1.387a36.681,36.681,0,0,1,7.978-10.677c-0.02.66-.074,2.17-0.15,4.53s-0.15,4.38-.206,6.06c-0.03.78-.09,1.52-0.17,2.24a23.241,23.241,0,0,1-.38,2.38Z" transform="translate(-0.035)" style="fill:#369540"/><path d="M197.852,84.21a14.487,14.487,0,0,0-2.014-6.284,15.754,15.754,0,0,0-4.477-4.8,18.961,18.961,0,0,0-6.48-2.858,24.437,24.437,0,0,0-7.97-.538,21.5,21.5,0,0,0-8.51,2.476,26.174,26.174,0,0,0-6.74,5.25,32.615,32.615,0,0,0-5.04,7.26,47.681,47.681,0,0,0-3.37,8.452c-0.36,1.247-.7,2.6-1.02,4.02q8.97-1.713,17.91-2.96a27.565,27.565,0,0,1,2.03-5.54,12.5,12.5,0,0,1,3.14-3.88,8.587,8.587,0,0,1,4.77-1.792,1.467,1.467,0,0,1,1.63.988,9.591,9.591,0,0,1,.6,2.773,14.608,14.608,0,0,1,.15,2.53,25.23,25.23,0,0,1-.45,3.464c-0.17.86-.32,1.46-0.35,1.84-0.29,1.44.2,3.02,1.5,4.75q1.185,1.665,4.73,1.35a7.927,7.927,0,0,0,4.11-1.49,12.947,12.947,0,0,0,3.46-4.57,28.223,28.223,0,0,0,1.41-3.13,15.36,15.36,0,0,0,.76-2.53,16.22,16.22,0,0,0,.28-4.76Z" transform="translate(-0.035)" style="fill:#85b44f"/><path d="M77.124,50.144c0.574-3.57,1.137-7.187,1.99-10.7,0.89-3.686,1.924-7.8,4.58-10.64,2.36-2.53,5.565-4.712,9.267-3.933,2.5,0.52,2.695,3.25,2.43,5.35-0.508,3.99-2.06,8.01-3.49,11.75a88.831,88.831,0,0,1-7.346,15.24q10.431-3.555,21.155-6.6c0.32-.66.636-1.32,0.948-1.99,3.42-7.25,6.7-14.64,5.76-22.86a20,20,0,0,0-4.11-10.51,18.1,18.1,0,0,0-9.61-5.89,30.916,30.916,0,0,0-23.62,3.41c-6.77,4.16-11.23,11.61-13.61,19.04-2.57,8.09-3.03,16.38-3.39,24.79-0.15,3.57-.18,7.16-0.29,10.75q9.225-3.87,18.7-7.32a74.676,74.676,0,0,1,.66-9.92Z" transform="translate(-0.035)" style="fill:#acc762"/><path d="M56.09,80.934c-0.85,1.687-2.393,2.674-3.84,3.81-2.434,1.916-4.873,3.83-7.24,5.826-3.43,2.894-6.823,6-10,9.17a68.117,68.117,0,0,0-11.733,14.733c-2.537,4.524-2.616,9.364.3,13.73a19.13,19.13,0,0,0,5.29,5.318c7.51-12.73,16.03-26.15,28.57-34.47-0.74,10.5-1.61,20.99-2.53,31.47q10.35-5.28,21.14-9.94l0.36-6.36c0.36-6.35.62-12.71,1.17-19.04l0.56-6.56,0.15-1.77a2.059,2.059,0,0,1,.78-0.91c0.84-.82,1.71-1.62,2.58-2.41,5.58-5.06,9.99-11.04,14.54-17.02a84.692,84.692,0,0,0,9.53-15.9q-10.725,3.045-21.16,6.6a51.471,51.471,0,0,1-4.76,6.53,30.868,30.868,0,0,1-3.59,3.55c0.07-1.83.13-3.66,0.2-5.49,0.02-.58.03-1.16,0.05-1.74q-9.48,3.45-18.7,7.32c-0.1,3.08-.24,6.16-0.58,9.22a12.658,12.658,0,0,1-1.13,4.36Z" transform="translate(-0.035)" style="fill:#85b44f"/><path d="M76.435,61.786C76.331,64.653,76.541,58.921,76.435,61.786Z" transform="translate(-0.035)" style="fill:#1f814c"/><path d="M155.538,137.646c-2.47,1.1-4.594,3.023-6.7,4.668a91.229,91.229,0,0,1-10.22,7.088,64.714,64.714,0,0,1-15.354,6.427,62.538,62.538,0,0,1-10.142,1.98,96.657,96.657,0,0,1-10.214.15c-0.8-.01-1.724-0.02-0.113,0-9.53-.07-18.97-2.76-28.23-4.81-0.86-.19-0.57-0.47-0.51-1.35l0.36-5.36,0.81-11.93c0.09-1.27.11-2.53,0.15-3.8,0.08-2.77.44-5.51,0.59-8.26l0.11-1.9q-10.785,4.65-21.14,9.94-0.78,8.94-1.59,17.87l-0.11,1.27c-0.06.62-.27,0.42-0.81,0.44-0.83.03-1.66,0.07-2.48,0.11-2.07.1-4.15,0.23-6.22,0.36a98.955,98.955,0,0,0-12.5,1.51,63.747,63.747,0,0,0-19.51,6.87c-5.63,3.21-10.6,7.57-11.54,14.34-1.14,8.15,5.09,16.03,11.62,20.11,10.07,6.28,23.36,6.96,34.68,4.32a43.805,43.805,0,0,0,10.28-3.74c1.42-.9,2.87-1.77,4.31-2.65,0.57-.41,1.13-0.84,1.67-1.29a24.317,24.317,0,0,0,6.44-7.85,22.013,22.013,0,0,0,1.85-8.15c0.11-1.32-.05-4.46,1.33-5.25a4.813,4.813,0,0,1,2.91-.12c2.09,0.31,4.16.81,6.23,1.21,4.87,0.92,9.74,1.34,14.64,2.02,0.69,0.09,1.4.15,2.1,0.23,9.21,0.97,18.98.06,28.03-1.51,6.12-1.06,12.33-2.57,17.9-5.38a18.308,18.308,0,0,0,9.37-11.03c0.07-.19.15-0.38,0.21-0.58a44.127,44.127,0,0,0,1.83-16Zm-103.78,27.67c0.017-.142.012-0.1,0,0.008-0.425,3.894-.55,8.254-2.99,11.68-2.794,3.918-7.533,6.028-12.243,6.375a17.292,17.292,0,0,1-13.32-4.5c-1.367-1.34-2.6-3.11-2.363-5.13,0.426-3.57,4.838-5.39,7.738-6.41a57.287,57.287,0,0,1,23.272-2.91c-0.043.48-.1,0.96-0.155,1.44l0.062-.57v0.017Z" transform="translate(-0.035)" style="fill:#369540"/><path transform="translate(-0.035)" style="fill:none"/><path d="M345.018,26.033a13.2,13.2,0,1,1-13.2-12.939A13.14,13.14,0,0,1,345.018,26.033Zm-2.953,0a10.292,10.292,0,1,0-10.334,10.161A10.34,10.34,0,0,0,342.065,26.033Zm-7.9,1.563,3.213,4.168h-2.692l-2.953-3.908h-2.084v3.908h-2.084V19.78H332.6c2.605,0,4.6,1.65,4.6,4.082A4.179,4.179,0,0,1,334.162,27.6Zm-1.737-1.737a2.158,2.158,0,0,0,2.432-2.084c0-1.216-.955-2-2.432-2H329.56v4.082h2.866Z" transform="translate(-0.035)" style="fill:#369540"/></svg>