<?xml version="1.0" encoding="UTF-8" standalone="no"?>
<svg width="128px" height="128px" viewBox="0 0 128 128" version="1.1"
     xmlns="http://www.w3.org/2000/svg">
    <!-- Generator: Sketch 3.8.3 (29802) - http://www.bohemiancoding.com/sketch -->
    <g id="Page-1" stroke="none" stroke-width="1" fill-rule="evenodd">
            <path d="M123.907514,119.375353 C123.905885,118.037054 123.419362,116.878667 122.447946,115.900192 L86.7232884,79.8975214 C93.6750589,71.5775872 97.1502201,61.8008003 97.1487721,50.5671606 C97.1485911,37.6858963 92.584546,26.681219 83.4566368,17.5531288 C74.4239326,8.52060558 63.4655908,4.00289597 50.5816115,4 C37.7010712,4.00470595 26.696394,8.52241556 17.5675798,17.5531288 C8.53686652,26.681943 4.01915691,37.6866203 4.01445096,50.5671606 C4.01734693,63.4511399 8.53505654,74.4094816 17.5675798,83.4421859 C26.69567,92.5700951 37.7003472,97.1341402 50.5816115,97.1343212 C61.8009524,97.1357691 71.5545716,93.6837756 79.8424692,86.7783407 L115.567127,122.781011 C116.545602,123.753694 117.703989,124.240217 119.042288,124.240579 C120.381311,124.241846 121.51653,123.755323 122.447946,122.781011 C123.421353,121.851948 123.907876,120.716729 123.907514,119.375353 L123.907514,119.375353 Z M76.5758176,24.4339481 C83.804153,31.6621025 87.4183207,40.3731733 87.4183207,50.5671606 C87.4163297,60.7153554 83.8484975,69.356923 76.714824,76.4918634 L76.5063144,76.7003731 C69.371555,83.8340465 60.7299873,87.4018787 50.5816115,87.4038697 C40.3876242,87.4038697 31.6765534,83.789702 24.448399,76.5613666 C17.3096577,69.4228063 13.7418255,60.7580709 13.7449024,50.5671606 C13.7400155,40.3724493 17.3078477,31.6613785 24.448399,24.4339481 C31.6758294,17.2933967 40.3869003,13.7255645 50.5816115,13.7304515 C60.7725219,13.7273745 69.4372572,17.2952067 76.5758176,24.4339481 L76.5758176,24.4339481 Z" id="lens"></path>
    </g>
</svg>
