<?xml version="1.0" standalone="no"?><!-- Generator: Adobe Fireworks CS6, Export SVG Extension by Aaron Beall (http://fireworks.abeall.com) . Version: 0.6.1  --><!DOCTYPE svg PUBLIC "-//W3C//DTD SVG 1.1//EN" "http://www.w3.org/Graphics/SVG/1.1/DTD/svg11.dtd"><svg id="Untitled-Page%201" viewBox="0 0 106 100" style="background-color:#ffffff00" version="1.1"	xmlns="http://www.w3.org/2000/svg" xmlns:xlink="http://www.w3.org/1999/xlink" xml:space="preserve"	x="0px" y="0px" width="106px" height="100px">	<g id="Layer%201">		<rect x="0" y="0" width="91" height="100" fill="#f9cb00" rx="1" ry="1"/>		<rect x="35.843" y="32.6015" width="36.3429" height="24.9998" fill="#088448" rx="5" ry="5"/>		<path d="M 84 58.1897 C 84 58.635 83.3917 59 82.649 59 L 8.3511 59 C 7.6083 59 7 58.635 7 58.1897 L 7 11.8136 C 7 11.365 7.6083 11 8.3511 11 L 82.649 11 C 83.3917 11 84 11.365 84 11.8136 L 84 58.1897 Z" fill="#ffffff"/>		<path d="M 55.5167 69 C 60.7557 69 65 73.2505 65 78.4977 L 65 78.4977 C 65 83.7448 60.7557 88 55.5167 88 L 19.4836 88 C 14.2443 88 10 83.7448 10 78.4977 L 10 78.4977 C 10 73.2505 14.2443 69 19.4836 69 L 55.5167 69 Z" fill="#ed4542"/>		<path d="M 58 78.9982 C 58 80.101 56.6721 81 55.0338 81 L 20.9663 81 C 19.328 81 18 80.101 18 78.9982 C 18 77.8955 19.328 77 20.9663 77 L 55.0338 77 C 56.6721 77 58 77.8955 58 78.9982 Z" fill="#055e33"/>		<path d="M 17 25 L 17 27.6314 L 17 29.7386 L 19.7008 29.7386 C 19.7008 29.7386 19.9583 27.6009 22.9731 27.6314 L 28.3483 27.6314 C 28.3483 27.6314 20.6641 35.9992 19.9884 47 L 20.4611 47 L 20.8211 47 L 25.8786 47 C 26.0356 44.7791 26.4326 41.883 27.1328 38.6425 C 28.1806 33.8088 30.4722 29.6538 32 27.1292 L 32 25 L 17 25 Z" fill="#088448"/>		<path d="M 39 25 L 39 27.6314 L 39 29.7386 L 41.7007 29.7386 C 41.7007 29.7386 41.9583 27.6009 44.9731 27.6314 L 50.3483 27.6314 C 50.3483 27.6314 42.6639 35.9992 41.9883 47 L 42.461 47 L 42.8227 47 L 47.8786 47 C 48.0356 44.7791 48.4324 41.883 49.1328 38.6425 C 50.179 33.8088 52.4722 29.6538 54 27.1292 L 54 25 L 39 25 Z" fill="#088448"/>		<path d="M 61 25 L 61 27.6314 L 61 29.7386 L 63.7008 29.7386 C 63.7008 29.7386 63.9584 27.6009 66.9732 27.6314 L 72.3484 27.6314 C 72.3484 27.6314 64.6639 35.9992 63.9884 47 L 64.4612 47 L 64.8211 47 L 69.8787 47 C 70.0357 44.7791 70.4326 41.883 71.1329 38.6425 C 72.1808 33.8088 74.4723 29.6538 76 27.1292 L 76 25 L 61 25 Z" fill="#088448"/>		<path d="M 102 29 L 95 29 L 95 81 L 102 81 L 102 29 Z" fill="#ffffff"/>		<path d="M 106 29.501 C 106 33.6419 102.6418 37 98.4989 37 C 94.3582 37 91 33.6419 91 29.501 C 91 25.3602 94.3582 22 98.4989 22 C 102.6418 22 106 25.3602 106 29.501 Z" fill="#ed4542"/>		<path d="M 91 66 L 91 92 C 97.0752 91.9983 102 86.1772 102 79 C 102 71.8228 97.0752 66.0017 91 66 Z" fill="#facc00"/>		<path d="M 75.5016 87 C 74.1227 87 73 86.5037 73 85.8889 L 73 73.1127 C 73 72.4979 74.1227 72 75.5016 72 C 76.8803 72 78 72.4979 78 73.1127 L 78 85.8889 C 78 86.5037 76.8803 87 75.5016 87 Z" fill="#560625"/>	</g></svg>