<svg xmlns="http://www.w3.org/2000/svg"><symbol id="icon-18plus" viewBox="0 0 328.863 328.863"><path d="M104 220.4V131H83.4v-22.7h49v112H104zm135.6-83.2c0 9.8-5.3 18.4-14 23.2 12.2 5 20 16 20 28.4 0 20-18 33-46 33s-46-12.7-46-32.6c0-12.8 8.4-23.6 21.3-28.8-9.5-5.2-15.6-14.2-15.6-24 0-18 15.7-29.2 40-29.2 24.6 0 40.2 11.6 40.2 30zm-59 49.2c0 9.4 6.6 14.7 19 14.7 12.3 0 19.2-5 19.2-14.6 0-9.3-7-14.6-19.2-14.6-12.4 0-19 5.3-19 14.6zm2.8-47.6c0 8 5.8 12.5 16.2 12.5 10.4 0 16-4.5 16-12.5 0-8.3-5.6-13-16-13s-16.2 4.7-16.2 13z"/><path d="M293 121c4.6 14 7 28.5 7 43.4 0 74.8-60.8 135.6-135.6 135.6S29 239.2 29 164.4C29 89.7 89.6 29 164.3 29c15 0 29.6 2.3 43.5 7V5.8C193.7 2 179 0 164.3 0 73.8 0 0 73.8 0 164.4S73.8 329 164.4 329 329 255 329 164.3c0-14.8-2-29.4-6-43.5h-30z"/><path d="M284.7 44V12.7H262V44h-31.4v23H262v31.5h22.7V66.8h31.5V44"/></symbol><symbol id="icon-arrow-blue-freespins" viewBox="0 0 191 64"><path d="M160.16 63.945c.41-.092.8-.297 1.118-.617l29.053-29.206c.893-.896.893-2.348 0-3.244L161.28 1.672c-.89-.896-2.337-.896-3.228 0L155.735 4H2.985C1.334 4 0 5.343 0 7v54c0 1.657 1.336 3 2.984 3H159.67c.164 0 .33-.02.492-.055zm0 .055v-.055c-.16.036-.326.055-.49.055h.492z" fill="#2077af"/><rect width="160" height="60" fill="#3398d9" rx="2" ry="2"/><rect x="129" width="60" height="60" fill="#2b97dc" rx="2" ry="2"/></symbol><symbol id="icon-arrow-button" viewBox="0 0 23 13"><path d="M0 5v3h15v5h.807L23 6.753 15.225 0H15v5H0z" fill="#fff"/></symbol><symbol id="icon-chat" viewBox="0 0 18.094 16.817"><title>chat</title><path d="M14.357 0H3.737A3.74 3.74 0 0 0 0 3.737V9.59a3.74 3.74 0 0 0 3.737 3.737h.1v3.28a.21.21 0 0 0 .13.2.215.215 0 0 0 .08.015.21.21 0 0 0 .153-.067l3.427-3.428h6.73a3.74 3.74 0 0 0 3.737-3.737V3.737A3.74 3.74 0 0 0 14.357 0zM5.52 7.935A1.234 1.234 0 1 1 6.756 6.7 1.235 1.235 0 0 1 5.52 7.936zm3.527 0A1.234 1.234 0 1 1 10.28 6.7a1.235 1.235 0 0 1-1.233 1.235zm3.525 0A1.234 1.234 0 1 1 13.806 6.7a1.235 1.235 0 0 1-1.234 1.235z"/></symbol><symbol id="icon-control-arrow-left" viewBox="0 0 14 11"><path d="M.488 6.294C.483 6.29.476 6.288.47 6.284l-.257-.246C.07 5.9 0 5.723 0 5.544c0-.178.07-.357.213-.492l.258-.245.018-.012L4.45 1.203c.285-.27.747-.27 1.033 0l.167.245c.285.27.192.71-.093.98l-2.37 2.136h9.836c.54 0 .977.434.977.97s-.438.97-.977.97H3.177l2.32 2.066c.285.27.377.71.092.982l-.168.245c-.286.27-.748.27-1.034 0l-3.9-3.503z"/></symbol><symbol id="icon-control-arrow-right" viewBox="0 0 14 11"><path d="M13.512 6.294c.005-.005.012-.006.017-.01l.257-.246c.143-.137.214-.315.213-.494 0-.178-.07-.357-.213-.492l-.258-.245-.018-.012L9.55 1.203c-.285-.27-.747-.27-1.033 0l-.167.245c-.285.27-.192.71.093.98l2.37 2.136H.977c-.54 0-.977.434-.977.97s.438.97.977.97h9.846L8.503 8.57c-.284.27-.377.71-.092.982l.168.245c.287.27.748.27 1.034 0l3.9-3.503z" fill="#fff"/></symbol><symbol id="icon-control-fullscreen" viewBox="0 0 20 16"><g fill="#fff"><path d="M0 1v4h2V2h3V0H0v1zM0 15v1h5v-2H2v-3H0v4zM20 1V0h-5v2h3v3h2V1zM20 15v-4h-2v3h-3v2h5v-1z"/></g></symbol><symbol id="icon-control-minus" viewBox="0 0 14 2"><path fill="#fff" d="M0 0h14v2H0z"/></symbol><symbol id="icon-control-plus" viewBox="0 0 14 14"><g fill="#fff"><path d="M6 0h2v14H6z"/><path d="M0 6h14v2H0z"/></g></symbol><symbol id="icon-form-icon-check" viewBox="0 0 10 9"><path d="M9.796 1.533l-4.66 7.03-.006.006c-.035.05-.058.107-.103.152-.375.37-.982.37-1.356 0L.28 5.37c-.374-.37-.374-.972 0-1.342.375-.37.982-.37 1.357 0l2.55 2.52 4.1-6.184C8.61-.048 9.214-.12 9.63.202c.417.322.49.92.164 1.33z"/></symbol><symbol id="icon-form-icon-creditcard" viewBox="0 0 21 14"><path d="M19.032 14H1.968C.88 14 0 13.105 0 12V2C0 .895.88 0 1.968 0h17.064C20.12 0 21 .895 21 2v10c0 1.105-.88 2-1.968 2zM1.968 12.667h17.064c.362 0 .656-.3.656-.667V6H1.312v6c0 .368.294.667.656.667zM19.032 1.333H1.968c-.362 0-.656.3-.656.667v1.333h18.376V2c0-.368-.294-.667-.656-.667z"/></symbol><symbol id="icon-form-icon-date" viewBox="0 0 36 36"><path d="M33.75 36H2.25C1.007 36 0 34.992 0 33.75V5.617c0-1.243 1.007-2.25 2.25-2.25h8.992V1.125c0-.622.503-1.125 1.125-1.125s1.125.503 1.125 1.125v2.243h9V1.125c0-.622.503-1.125 1.125-1.125s1.125.503 1.125 1.125v2.243h9.008c1.243 0 2.25 1.007 2.25 2.25v28.13C36 34.993 34.993 36 33.75 36zm0-30.382h-9.008V6.75c0 .623-.503 1.127-1.125 1.127s-1.125-.503-1.125-1.125V5.617h-9V6.75c0 .623-.503 1.127-1.125 1.127s-1.125-.503-1.125-1.125V5.617H2.25v28.13h31.5V5.62zM7.875 13.495h2.25c.62 0 1.125.504 1.125 1.125v2.25c0 .622-.504 1.126-1.125 1.126h-2.25c-.62 0-1.125-.504-1.125-1.125v-2.25c0-.62.504-1.125 1.125-1.125zm0 9.002h2.25c.62 0 1.125.504 1.125 1.125v2.25c0 .622-.504 1.126-1.125 1.126h-2.25c-.62 0-1.125-.504-1.125-1.125v-2.25c0-.622.504-1.126 1.125-1.126zm9-9.002h2.25c.62 0 1.125.504 1.125 1.125v2.25c0 .622-.504 1.126-1.125 1.126h-2.25c-.62 0-1.125-.504-1.125-1.125v-2.25c0-.62.504-1.125 1.125-1.125zm0 9.002h2.25c.62 0 1.125.504 1.125 1.125v2.25c0 .622-.504 1.126-1.125 1.126h-2.25c-.62 0-1.125-.504-1.125-1.125v-2.25c0-.622.504-1.126 1.125-1.126zm9-9.002h2.25c.62 0 1.125.504 1.125 1.125v2.25c0 .622-.504 1.126-1.125 1.126h-2.25c-.62 0-1.125-.504-1.125-1.125v-2.25c0-.62.504-1.125 1.125-1.125zm0 9.002h2.25c.62 0 1.125.504 1.125 1.125v2.25c0 .622-.504 1.126-1.125 1.126h-2.25c-.62 0-1.125-.504-1.125-1.125v-2.25c0-.622.504-1.126 1.125-1.126z"/></symbol><symbol id="icon-form-icon-dropdown" viewBox="0 0 10 5"><path d="M0 0l5 5 5-5H0z" fill="#3398d8"/></symbol><symbol id="icon-form-icon-email" viewBox="0 0 30 28"><path d="M22.264 7.8h-3.19v.79c-1.103-.655-2.606-1.06-4.31-1.06-3.74 0-7.028 2.126-7.028 6.45 0 4.357 3.29 6.49 7.03 6.49 2.07 0 3.84-.578 5.126-1.535.817.89 2.295 1.536 4.915 1.536 4.026 0 5.193-2.57 5.193-7.006C30 5.787 24.106 0 15.5 0 6.994 0 0 5.982 0 13.76 0 21.83 7.038 28 15.4 28c3.24 0 6.787-.75 9.517-2.51l-1.4-2.345c-2.42 2.056-5.38 3.208-8.15 3.208-6.72 0-13.713-6.05-13.713-12.594C1.654 7.55 8.61 1.646 15.5 1.646c7.096 0 12.846 5.728 12.846 11.89 0 3.18-1.18 5.286-3.54 5.286-1.732 0-2.542-1.256-2.542-3.696V7.8zM15.2 18.822c-2.238 0-4.275-1.832-4.275-4.824s2.07-4.823 4.274-4.823c1.435 0 2.904.784 3.875 2.43v2.916c0 .598.04 1.197.078 1.758-1.015 1.833-2.585 2.543-3.954 2.543z"/></symbol><symbol id="icon-form-icon-name" viewBox="0 0 34 36"><path d="M17 2.25c3.61 0 7.44 3.22 7.44 5.624V13.5c0 2.164-.852 6.307-3.132 8.208-.582.485-.884 1.255-.796 2.034.087.78.55 1.453 1.223 1.78l9.252 4.646c.073.035.887.18.887 1.384v2.197H2.127v-2.284c0-.895.635-1.176.888-1.3l9.336-4.665c.67-.324 1.13-.994 1.22-1.768.09-.774-.203-1.542-.778-2.03-2.21-1.878-3.237-6.005-3.237-8.203V7.873c0-2.352 3.867-5.623 7.445-5.623M17 0c-4.694 0-9.572 4.148-9.572 7.874V13.5c0 2.457 1.06 7.43 4.033 9.957l-9.336 4.665S0 29.125 0 30.372v3.378C0 34.993.952 36 2.124 36h29.75C33.05 36 34 34.993 34 33.75v-3.378c0-1.322-2.125-2.25-2.125-2.25l-9.252-4.645c2.945-2.455 3.942-7.276 3.942-9.978V7.873C26.565 4.148 21.695 0 17 0z"/></symbol><symbol id="icon-form-icon-password" viewBox="0 0 28 36"><path d="M23.692 36H4.308C1.932 36 0 33.982 0 31.5V18c0-2.482 1.932-4.5 4.308-4.5h1.077V9.207C5.385 4.13 8.86 0 13.96 0c5.08 0 8.655 4.044 8.655 9.207V13.5h1.077C26.068 13.5 28 15.518 28 18v13.5c0 2.482-1.932 4.5-4.308 4.5zm-3.23-26.794c0-3.9-2.63-6.956-6.502-6.956-3.912 0-6.42 3.12-6.42 6.957V13.5h12.92V9.207zM25.845 18c0-1.24-.966-2.25-2.154-2.25H4.308c-1.188 0-2.154 1.01-2.154 2.25v13.5c0 1.24.966 2.25 2.154 2.25h19.384c1.188 0 2.154-1.01 2.154-2.25V18zm-10.77 6.438v3.687c0 .62-.48 1.125-1.076 1.125-.595 0-1.077-.504-1.077-1.125v-3.687c-.64-.39-1.077-1.107-1.077-1.938 0-1.243.964-2.25 2.154-2.25s2.154 1.007 2.154 2.25c0 .83-.436 1.548-1.077 1.938z"/></symbol><symbol id="icon-form-icon-phone" viewBox="0 0 24 44"><path d="M20.002 44H3.998C1.788 44 0 42.154 0 39.875V4.125C0 1.845 1.79 0 3.998 0h16.004C22.212 0 24 1.846 24 4.125v35.75C24 42.155 22.21 44 20.002 44zm1.333-39.875c0-.76-.598-1.375-1.333-1.375H3.998c-.735 0-1.333.616-1.333 1.375v35.75c0 .76.598 1.375 1.333 1.375h16.004c.735 0 1.333-.616 1.333-1.375V4.125zm-6.668 2.75h-5.33c-.737 0-1.333-.616-1.333-1.375 0-.76.596-1.375 1.332-1.375h5.33C15.404 4.125 16 4.74 16 5.5c0 .76-.597 1.375-1.333 1.375zm-2.665 27.507c1.47 0 2.66 1.23 2.66 2.743 0 1.514-1.19 2.743-2.66 2.743-1.47 0-2.66-1.23-2.66-2.743 0-1.514 1.19-2.743 2.66-2.743z"/></symbol><symbol id="icon-game-allGames" viewBox="0 0 200 200"><g fill="none" fill-rule="evenodd"><circle cx="103" cy="45" r="4" class="fp-fill-a fp-stroke"/><path class="fp-fill-a fp-stroke" d="M98 141.5v7.7l21.7 9.8H65l27-10 2.8-7.7a47 47 0 0 1-13.4-3.6l1-1.8A44.5 44.5 0 0 0 135.6 76a44.4 44.4 0 0 0-39.2-26.7l-.3-1.1 4-.2a47 47 0 0 1 32.8 80.2 47 47 0 0 1-35 13.3z"/><circle cx="93.5" cy="92.5" r="39.5" class="fp-fill-a fp-stroke"/><path class="fp-fill-b" d="M126 82.3a34 34 0 0 0-5-10.7c-11.8-18-30.1-14.3-30.1-14.3L82 62.7l2.8 7 7.2 1.8h8l4.2 3.9-1.7 2.4L87 88.5l3 11.9 11 5.6 1.6 7-2.5 15s36.9-11 26-45.7zM68.9 97l-7.9 4.3 4.3 10.6 6.7-2.4 3.6 2.4L83 117l-1.4-14.2zM59 92l5.7-3.4 6.6 3.3v-4.6l7.8-4.8 2.9-5.9L76.3 66C61 69.6 59 92 59 92z"/></g></symbol><symbol id="icon-game-favourites" viewBox="0 0 200 200"><g fill="none"><path class="fp-fill-a fp-stroke" d="M100.2 69.4C75.8 39.5 34.7 65 48.9 93.8c8.5 17.2 45.5 46.2 51 50.4h.9-.8l.2.2.2-.2c5.5-4.2 42.5-33.2 51-50.4 14.3-28.7-27-54.3-51.2-24.4z"/><path class="fp-fill-b" d="M58 84c.9-9.7 9.4-16.8 19.2-16a2 2 0 0 0 .3-4c-12-1-22.4 7.7-23.5 19.7a2 2 0 0 0 4 .4z"/></g></symbol><symbol id="icon-game-jackpot" viewBox="0 0 200 200"><path d="M77.1 97.6l6.2-2s-1-7.7 6.2-9.7c18-5 24 1.8 23.8 5.9 0 2.6-6 8.3-11 14.3-3.6 4.3-13.5 14-14.4 22.9h34c-.4-5.2-2.2-15.6-.9-20.4 4.9-17.4 8-33.6 8-33.6s-1.8-1-4.3.1c-2.5 1.2-5.6 4.7-10 1.3-10.7-8.4-19.4-6-28.9.3-5.2 3.4-8.5.6-10.7-.1-2-.7-3.1.7-3.1.7l2.1 7.2 3 13.1zm63 0l6.2-2s-1-7.7 6.2-9.7c18-5 24 1.8 23.8 5.9 0 2.6-6 8.3-11 14.3-3.6 4.3-13.5 14-14.4 22.9h34c-.4-5.2-2.2-15.6-.9-20.4 4.9-17.4 8-33.6 8-33.6s-1.8-1-4.3.1c-2.5 1.2-5.6 4.7-10 1.3-10.7-8.4-19.4-6-28.9.3-5.2 3.4-8.5.6-10.7-.1-2-.7-3.1.7-3.1.7l2.1 7.2 3 13.1zm-127 0l6.2-2s-1-7.7 6.2-9.7c18-5 24 1.8 23.8 5.9 0 2.6-6 8.3-11 14.3-3.6 4.3-13.5 14-14.4 22.9h34c-.4-5.2-2.2-15.6-.9-20.4C62 91.2 65 75 65 75s-1.8-1-4.3.1c-2.5 1.2-5.6 4.7-10 1.3-10.7-8.4-19.4-6-28.9.3-5.2 3.4-8.5.6-10.7-.1-2-.7-3.1.7-3.1.7l2.1 7.2 3 13.1z" class="fp-fill-a fp-stroke" stroke-width="3"/></symbol><symbol id="icon-game-mostPopular" viewBox="0 0 200 200"><path class="fp-fill-a fp-stroke" d="M101 45l17.3 36.3L157 87l-28 28 6.6 39.9-34.6-18.8L66.4 155l6.6-39.8L45 87l38.7-5.8z"/></symbol><symbol id="icon-game-pnp-favourites" viewBox="0 0 53 35"><title>game-favourites</title><g transform="translate(15 1)" fill="none" fill-rule="evenodd"><ellipse fill="#FFDE07" cx="12.577" cy="25.008" rx="6.987" ry="6.947"/><path d="M12.26 29.175c-2.03 0-3.762-1.442-4.12-3.43-.04-.23.037-.467.207-.626.172-.162.41-.226.642-.172.076.016.16.026.25.026.932 0 2.25-.947 2.933-2.113.302-.51.734-1.5.238-2.375-.12-.215-.118-.48.007-.69.125-.214.356-.345.603-.345.774 0 1.474.298 2.024.862 1.108 1.136 1.453 3.183 1.407 4.716-.07 2.325-1.912 4.147-4.19 4.147M8.384.05c-.292-.117-.625-.022-.813.226-.187.246-.187.59 0 .838 3.475 4.554 3.668 11.737.57 15.88-.72-1-1.18-2.046-1.424-3.24-.046-.23-.207-.42-.43-.507-.22-.086-.47-.057-.66.082-3.96 2.82-5.556 7.624-4.064 12.236 1.526 4.725 5.75 7.777 10.757 7.777 5.578 0 9.39-3.21 10.454-8.805 1.618-8.48-3.78-20.342-14.39-24.49" fill="#662482"/></g></symbol><symbol id="icon-game-pnp-jackpot" viewBox="0 0 53 35"><title>game-jackpot</title><g transform="translate(10 1)" fill="none" fill-rule="evenodd"><ellipse fill="#FFDE07" cx="16.703" cy="16.672" rx="11.135" ry="11.114"/><path d="M24.11 15.124l-3.82 3.153 1.913 5.096c.107.288.015.61-.227.796-.243.187-.577.188-.828.013l-4.444-3.178-4.446 3.178c-.25.175-.585.174-.827-.014-.24-.187-.334-.51-.226-.797l1.914-5.096-3.82-3.153c-.225-.188-.308-.494-.208-.77.1-.275.36-.456.654-.456h4.414l1.905-4.446c.11-.254.362-.422.64-.422s.53.168.64.422l1.906 4.446h4.413c.294 0 .554.18.653.456.102.276.017.582-.207.77m9.045 1l-2.652-2.205 1.604-3.052c.203-.383.005-.857-.408-.986l-3.3-1.026.315-3.43c.04-.425-.314-.79-.756-.756l-3.44.312-1.028-3.29c-.13-.42-.61-.607-.987-.407l-3.058 1.6-2.21-2.648c-.265-.315-.805-.315-1.07 0l-2.21 2.647-3.056-1.6c-.386-.204-.86-.003-.988.408l-1.027 3.29-3.438-.312c-.44-.033-.795.327-.757.755l.312 3.43-3.295 1.027c-.416.13-.61.603-.41.986l1.606 3.05L.25 16.126c-.334.278-.332.794 0 1.067l2.653 2.206-1.607 3.053c-.2.386-.004.86.41.986l3.296 1.027-.312 3.43c-.038.428.313.793.757.755l3.438-.312 1.027 3.29c.127.407.596.612.99.41l3.055-1.602 2.21 2.648c.282.335.794.33 1.07 0l2.21-2.648 3.058 1.602c.382.198.858.008.987-.41l1.027-3.29 3.44.312c.446.038.794-.332.755-.754l-.314-3.43 3.3-1.028c.414-.13.61-.603.407-.985L30.503 19.4l2.652-2.206c.334-.275.335-.787 0-1.067" fill="#662482"/></g></symbol><symbol id="icon-game-pnp-mostPopular" viewBox="0 0 53 35"><title>game-slots-mostPopular</title><g transform="translate(15 1)" fill="none" fill-rule="evenodd"><ellipse fill="#FFDE07" cx="12.577" cy="25.008" rx="6.987" ry="6.947"/><path d="M12.26 29.175c-2.03 0-3.762-1.442-4.12-3.43-.04-.23.037-.467.207-.626.172-.162.41-.226.642-.172.076.016.16.026.25.026.932 0 2.25-.947 2.933-2.113.302-.51.734-1.5.238-2.375-.12-.215-.118-.48.007-.69.125-.214.356-.345.603-.345.774 0 1.474.298 2.024.862 1.108 1.136 1.453 3.183 1.407 4.716-.07 2.325-1.912 4.147-4.19 4.147M8.384.05c-.292-.117-.625-.022-.813.226-.187.246-.187.59 0 .838 3.475 4.554 3.668 11.737.57 15.88-.72-1-1.18-2.046-1.424-3.24-.046-.23-.207-.42-.43-.507-.22-.086-.47-.057-.66.082-3.96 2.82-5.556 7.624-4.064 12.236 1.526 4.725 5.75 7.777 10.757 7.777 5.578 0 9.39-3.21 10.454-8.805 1.618-8.48-3.78-20.342-14.39-24.49" fill="#662482"/></g></symbol><symbol id="icon-game-pnp-prov" viewBox="0 0 53 35"><title>game-prov</title><g fill="none" fill-rule="evenodd"><path d="M8 25v3.005c0 1.808 1.408 3.28 3.143 3.28H26.07v1.572H15.858c-.434 0-.786.352-.786.786 0 .434.353.786.787.786h22c.432 0 .786-.353.786-.787 0-.434-.354-.786-.786-.786H27.643v-1.57H42.57c1.735 0 3.144-1.474 3.144-3.282V25H8zM42.57 1H11.144C9.408 1 8 2.472 8 4.28V23h37.714V4.28c0-1.808-1.41-3.28-3.143-3.28" fill="#662482"/><path d="M28.62 27.31c0 .722-.587 1.308-1.31 1.308-.724 0-1.31-.586-1.31-1.31 0-.722.586-1.308 1.31-1.308.723 0 1.31.586 1.31 1.31M30.372 13.848L28.524 12 27 13.524l1.85 1.847c-.294.87-.076 1.83.583 2.487.455.457 1.065.707 1.71.707.328 0 .647-.063.948-.19.083-.035.143-.107.16-.195.017-.088-.01-.177-.07-.242l-1.02-1.057v-.698h.702l1.084 1c.065.06.15.082.24.065.084-.02.156-.08.19-.16.386-.913.183-1.957-.518-2.656-.644-.645-1.63-.87-2.486-.582" fill="#F6D438"/><path d="M33.575 6.886l-.808-.808c-.093-.09-.237-.105-.343-.03l-1.907 1.324c-.066.045-.11.118-.115.198-.006.078.022.157.077.213l.505.505-5.368 5.37-.952-.953c-.106-.105-.277-.105-.38 0-.106.105-.106.275 0 .38l.378.38-3.347 3.35c-.204.204-.316.474-.316.762 0 .287.112.557.314.76.205.204.475.316.762.316.288 0 .558-.112.763-.316l3.346-3.347.38.38c.053.052.123.08.19.08.07 0 .138-.028.19-.08.107-.105.107-.276 0-.38l-.95-.952 5.37-5.37.445.448c.052.05.12.08.193.08h.02c.078-.006.147-.047.195-.11L33.6 7.238c.08-.108.07-.256-.025-.352" fill="#F6D438"/><path d="M24.194 10.723l1.938 1.933 1.526-1.525-1.94-1.94c.294-.87.074-1.828-.583-2.487-.69-.69-1.73-.892-2.618-.517-.08.033-.14.104-.158.19-.022.084.002.172.06.236l.94 1.06v.705h-.704l-1.034-.96c-.065-.06-.153-.082-.24-.065-.086.02-.158.08-.19.16-.384.906-.18 1.94.516 2.637.64.642 1.628.864 2.486.573" fill="#F6D438"/></g></symbol><symbol id="icon-game-pnp-search" viewBox="0 0 53 35"><title>game-search</title><g transform="translate(10 2)" fill="none" fill-rule="evenodd"><ellipse fill="#FFDE07" cx="7.656" cy="23.313" rx="6.264" ry="6.252"/><ellipse fill="#FFDE07" cx="25.751" cy="23.313" rx="6.264" ry="6.252"/><path d="M25.75 29.614c-3.453 0-6.263-2.805-6.263-6.252 0-3.45 2.81-6.252 6.264-6.252 3.453 0 6.264 2.802 6.264 6.252 0 3.447-2.81 6.252-6.263 6.252m-2.783-16.672c0 .38-.313.695-.696.695-.383 0-.695-.314-.695-.695 0-.813-1.42-1.703-3.48-1.99v12.41c0 4.21 3.434 7.64 7.656 7.64 4.22 0 7.656-3.43 7.656-7.64 0-1.673-.547-3.215-1.463-4.474l-4.16-9.694c-.036-.082-.086-.156-.15-.218L25.654 7l-2.036-5.334c-.036-.093-.09-.175-.16-.244-1.325-1.324-3.832-1.324-5.157 0-.13.13-.205.307-.205.49V9.55c2.855.33 4.872 1.678 4.872 3.392M7.656 29.614c-3.454 0-6.264-2.805-6.264-6.252 0-3.45 2.81-6.252 6.264-6.252 3.452 0 6.263 2.802 6.263 6.252 0 3.447-2.812 6.252-6.264 6.252M0 23.362c0 4.21 3.434 7.64 7.656 7.64 4.22 0 7.655-3.43 7.655-7.64v-12.41c-2.06.287-3.48 1.177-3.48 1.99 0 .38-.312.695-.695.695-.384 0-.696-.314-.696-.695 0-1.714 2.015-3.06 4.87-3.393V1.827c0-.185-.073-.363-.203-.494-1.327-1.324-3.834-1.324-5.16 0-.07.07-.124.153-.16.248L7.752 7l-1.98 1.976c-.062.062-.114.136-.15.218l-4.16 9.694C.547 20.148 0 21.688 0 23.362" fill="#662482"/><path d="M7.656 19.89c.382 0 .696-.315.696-.696 0-.385-.314-.695-.696-.695-2.688 0-4.872 2.178-4.872 4.862 0 .38.312.694.696.694.383 0 .696-.314.696-.694 0-1.917 1.56-3.473 3.48-3.473M25.75 19.89c.384 0 .697-.315.697-.696 0-.385-.313-.695-.696-.695-2.687 0-4.87 2.178-4.87 4.862 0 .38.31.694.695.694.383 0 .696-.314.696-.694 0-1.917 1.56-3.473 3.48-3.473" fill="#662482"/></g></symbol><symbol id="icon-game-pnp-slots" viewBox="0 0 53 35"><title>game-slots</title><g fill="none" fill-rule="evenodd"><path fill="#FFDE07" d="M9 9.25h9.71v11H9zM21.484 10.625h9.71v11h-9.71zM32.58 10.625h9.71v11h-9.71zM9 25.75h33.29v6.875H9z"/><path d="M51.802 14.357c0-1.3-1.067-2.357-2.378-2.357-1.31 0-2.378 1.058-2.378 2.357 0 1.023.665 1.887 1.585 2.212v11.144h-4.754v-2.357c0-.434-.355-.786-.793-.786H9.793c-.438 0-.793.353-.793.787v7.857c0 .435.355.786.793.786h33.29c.438 0 .793-.35.793-.786v-3.928h5.548c.438 0 .793-.352.793-.786V16.57c.92-.326 1.585-1.19 1.585-2.213zm-19.816 14.93h-9.51c-.44 0-.794-.352-.794-.787 0-.434.355-.786.793-.786h9.51c.44 0 .794.352.794.786 0 .434-.356.786-.794.786z" fill="#632380" fill-rule="nonzero"/><path d="M31.194 23V8.857h-9.512V23h9.512zM24.06 12h4.756c.3 0 .575.168.71.435.133.267.104.586-.077.824-1.165 1.53-3.012 4.464-3.012 5.81 0 .436-.355.787-.793.787-.437 0-.792-.35-.792-.786 0-1.603 1.44-4.02 2.434-5.5H24.06c-.438 0-.793-.35-.793-.784 0-.434.355-.786.793-.786zM9.793 23h10.304V8.857H9.793c-.438 0-.793.352-.793.786v12.57c0 .436.355.787.793.787zm3.17-11h4.756c.3 0 .574.168.708.435s.105.586-.076.824c-1.164 1.53-3.01 4.464-3.01 5.81 0 .436-.356.787-.794.787-.437 0-.792-.35-.792-.786 0-1.603 1.44-4.02 2.435-5.5h-3.227c-.437 0-.792-.35-.792-.784 0-.434.356-.786.793-.786zM43.083 8.857H32.78V23h10.303c.438 0 .793-.35.793-.786V9.644c0-.435-.355-.787-.793-.787zm-2.537 4.402c-1.165 1.53-3.01 4.464-3.01 5.81 0 .436-.356.787-.794.787-.438 0-.793-.35-.793-.786 0-1.603 1.44-4.02 2.434-5.5h-3.227c-.44 0-.793-.35-.793-.784 0-.434.354-.786.793-.786h4.755c.3 0 .576.168.71.435s.104.586-.076.824zM9.793 7.286h33.29c.438 0 .793-.352.793-.786V4.93c0-2.168-1.778-3.93-3.964-3.93h-26.95C10.78 1 9 2.762 9 4.93V6.5c0 .434.355.786.793.786z" fill="#632380" fill-rule="nonzero"/></g></symbol><symbol id="icon-game-pnp-table" viewBox="0 0 53 35"><title>game-table</title><g transform="translate(10 1)" fill="none" fill-rule="evenodd"><ellipse fill="#FFDE07" cx="16.703" cy="16.672" rx="15.311" ry="15.282"/><path d="M11.98 20.72c-.18 0-.348.07-.474.196s-.195.292-.195.47c0 .18.07.347.196.473.252.25.692.25.945 0 .127-.127.196-.295.196-.473 0-.18-.07-.346-.195-.47-.124-.127-.293-.197-.47-.197zM11.98 11.29c-.18 0-.348.07-.474.195-.26.26-.26.683 0 .943.252.25.692.252.945 0 .26-.26.26-.683 0-.943-.125-.126-.293-.196-.47-.196zM21.9 12.428c.26-.26.26-.683 0-.943-.126-.126-.294-.195-.472-.195-.18 0-.347.07-.473.195-.26.26-.26.683 0 .943.25.252.692.252.945 0zM21.428 20.72c-.18 0-.347.07-.472.196-.127.126-.197.292-.197.47 0 .18.07.347.195.473.253.25.69.25.945 0 .125-.127.196-.295.196-.473 0-.18-.07-.345-.196-.47-.126-.127-.294-.197-.472-.197zM16.703 16.005c-.178 0-.346.07-.472.195-.125.126-.195.294-.195.472s.07.345.196.47c.253.254.694.253.946 0 .126-.125.195-.292.195-.47s-.068-.346-.194-.472c-.127-.126-.294-.195-.473-.195z" fill="#652381" fill-rule="nonzero"/><path d="M16.703 0C7.493 0 0 7.48 0 16.672s7.493 16.67 16.703 16.67c9.21 0 16.703-7.478 16.703-16.67C33.406 7.48 25.913 0 16.703 0zm14.03 16.672H29.4c0-.848-.085-1.695-.25-2.517l1.31-.264c.182.91.276 1.846.276 2.782zM29.02 9.96c.448.82.816 1.685 1.09 2.574l-1.275.395c-.25-.806-.58-1.59-.987-2.33l1.17-.64zm-2.54-3.332c.67.65 1.277 1.368 1.806 2.138l-1.103.754c-.477-.697-1.027-1.348-1.632-1.935l.93-.957zM19.097 2.87c.922.158 1.83.41 2.7.748l-.487 1.243c-.786-.305-1.607-.532-2.44-.675l.226-1.315zm-1.392-.167l-.094 1.33c-.833-.058-1.7-.036-2.535.07l-.17-1.32c.924-.12 1.88-.144 2.8-.08zm-4.178.326l.3 1.298c-.823.19-1.63.465-2.396.816l-.557-1.213c.85-.388 1.74-.69 2.653-.9zM9.63 4.574l.674 1.152c-.728.426-1.418.926-2.05 1.49l-.89-.996c.698-.62 1.46-1.174 2.265-1.645zM6.365 7.202l.984.902c-.572.623-1.084 1.303-1.52 2.024l-1.144-.69c.483-.796 1.048-1.548 1.68-2.236zm-2.344 3.47l1.207.57c-.363.762-.65 1.563-.852 2.383l-1.297-.32c.225-.906.54-1.792.942-2.633zm-1.35 6c0-.67.05-1.34.14-1.993l1.324.187c-.084.592-.127 1.2-.128 1.805 0 .243.007.484.02.724l-1.334.074c-.014-.264-.02-.53-.02-.798zm.17 2.19l1.32-.208c.132.833.35 1.656.643 2.446l-1.252.466c-.326-.873-.564-1.783-.71-2.704zm1.267 3.99l1.198-.59c.372.755.823 1.477 1.34 2.147l-1.057.814c-.57-.74-1.07-1.54-1.48-2.372zm4.508 5.267c-.763-.538-1.474-1.155-2.116-1.832l.972-.916c.58.614 1.224 1.17 1.915 1.658l-.772 1.09zm3.75 1.874c-.888-.287-1.75-.666-2.565-1.125l.657-1.162c.737.416 1.518.76 2.32 1.018l-.413 1.268zm4.135.68c-.938-.013-1.874-.12-2.782-.316l.284-1.303c.82.178 1.67.273 2.52.286l-.02 1.335zm1.4-.05l-.113-1.327c.843-.072 1.68-.228 2.49-.464l.375 1.28c-.895.26-1.82.434-2.753.512zm2.107-7.822c-.378-.378-.587-.88-.587-1.415 0-.303.074-.592.2-.857l-2.06-2.058c-.267.127-.556.2-.86.2-.303 0-.593-.073-.86-.2l-2.06 2.058c.126.265.2.554.2.857 0 .534-.208 1.037-.586 1.415-.38.377-.882.586-1.418.586-.537 0-1.04-.208-1.42-.586-.377-.378-.586-.88-.586-1.415s.21-1.037.587-1.414c.594-.592 1.528-.713 2.27-.38l2.07-2.064c-.128-.266-.2-.556-.2-.858 0-.303.072-.592.2-.858l-2.063-2.058c-.266.127-.555.2-.858.2-.536 0-1.04-.208-1.42-.585-.78-.78-.78-2.05 0-2.83.76-.754 2.078-.754 2.836 0 .615.615.738 1.53.385 2.273l2.07 2.065c.538-.24 1.17-.24 1.706 0l2.07-2.065c-.353-.743-.23-1.658.385-2.27.758-.756 2.078-.757 2.835 0 .782.78.782 2.05 0 2.828-.378.38-.882.587-1.417.587-.303 0-.593-.073-.858-.2l-2.063 2.057c.127.266.2.555.2.858 0 .302-.073.592-.2.857l2.07 2.064c.74-.334 1.676-.212 2.268.38.378.375.587.878.587 1.413 0 .534-.21 1.037-.587 1.415-.38.377-.882.586-1.417.586-.536 0-1.04-.208-1.418-.586zm1.97 6.85l-.502-1.237c.782-.317 1.535-.713 2.24-1.18l.74 1.11c-.78.516-1.613.956-2.477 1.307zm.487-24.272l.607-1.19c.83.423 1.622.932 2.355 1.514l-.832 1.044c-.664-.526-1.38-.987-2.13-1.368zm3.118 22.133l-.847-1.032c.654-.534 1.258-1.135 1.793-1.79l1.035.847c-.59.72-1.257 1.386-1.98 1.976zm2.813-3.102l-1.113-.736c.468-.704.867-1.457 1.184-2.237l1.238.503c-.352.862-.793 1.693-1.31 2.47zm1.77-3.792l-1.282-.375c.238-.808.394-1.645.466-2.486l1.33.112c-.077.93-.25 1.853-.513 2.748z" fill="#652381" fill-rule="nonzero"/></g></symbol><symbol id="icon-game-search" viewBox="0 0 200 200"><g fill="none"><path class="fp-fill-a fp-stroke" d="M130 89.91A40.19 40.19 0 0 1 89.9 130C67.8 130 50 111.94 50 89.91A40 40 0 0 1 89.9 50c21.93 0 40.1 17.88 40.1 39.91z"/><path class="fp-fill-a fp-stroke" d="M121.85 115l-1.4 1.6-1.05 1.42-1.4 1.6 1.4 6.76L146.9 152l4.02-4.8 1.05-1.43 4.03-4.8-27.67-25.26z"/><path class="fp-fill-b" d="M64.3 102.26a29.4 29.4 0 0 1 15.5-38.47 1.97 1.97 0 1 0-1.56-3.63 33.33 33.33 0 0 0-17.6 43.64 1.99 1.99 0 0 0 3.66-1.54z"/></g></symbol><symbol id="icon-game-slots" viewBox="0 0 200 200"><g fill="none"><path class="fp-fill-a fp-stroke" d="M150 135.9l2 .1h4c5.5 0 10-3.5 10-7.7v-13.6c0-4.2-4.5-7.7-10-7.7h-4l-2 .1V136z"/><path class="fp-fill-c" d="M161 83.8v24.4c0 1 .9 1.8 2 1.8s2-.8 2-1.8V83.8c0-1-.9-1.8-2-1.8s-2 .8-2 1.8z"/><circle cx="162.5" cy="75.5" r="6.5" class="fp-fill-a fp-stroke"/><path class="fp-fill-a fp-stroke" d="M40 58h104c4.4 0 8 3.5 8 7.8v68.4c0 2-.8 4-2.3 5.5a8 8 0 0 1-5.7 2.3H40c-4.4 0-8-3.5-8-7.8V65.8c0-4.3 3.6-7.8 8-7.8z"/><path class="fp-fill-b fp-fill-alt" d="M47 64h93a8 8 0 0 1 5.7 2.3A7.8 7.8 0 0 1 148 72v34c0 2.1-.8 4.1-2.3 5.6a8 8 0 0 1-5.7 2.3H47a8 8 0 0 1-5.7-2.3A7.8 7.8 0 0 1 39 106V72a8 8 0 0 1 8-7.9z"/><path class="fp-fill-c" d="M46.7 118h67.6c4.3 0 7.7 3.5 7.7 7.8v1.4a7.6 7.6 0 0 1-7.7 7.8H46.7c-2 0-4-.8-5.5-2.3a7.9 7.9 0 0 1-2.2-5.5v-1.4c0-4.3 3.4-7.8 7.7-7.8zm88.8 0h3c4.7 0 8.5 3.5 8.5 7.8v1.4c0 2-.9 4-2.5 5.5a9 9 0 0 1-6 2.3h-3a9 9 0 0 1-6-2.3 7.5 7.5 0 0 1-2.5-5.5v-1.4c0-4.3 3.8-7.8 8.5-7.8zM46.6 87.8l3.2-1.1s-.5-4 3.1-5c9.1-2.6 12.2 1 12.1 3 0 1.4-3 4.4-5.6 7.4-1.8 2.3-6.9 7.3-7.3 11.9h17.3c-.2-2.7-1.1-8-.5-10.6 2.5-9 4.1-17.3 4.1-17.3-.7-.4-1.5-.3-2.2 0-1.3.7-2.8 2.5-5.1.7-5.4-4.3-9.8-3-14.7.1-2.6 1.8-4.3.4-5.4 0-.6-.2-1.2 0-1.6.4l1 3.7 1.6 6.8zm32 0l3.1-1.1s-.4-4 3.2-5c9.1-2.6 12.2 1 12.1 3 0 1.4-3 4.4-5.6 7.4-1.8 2.3-6.9 7.3-7.3 11.9h17.3c-.2-2.7-1.1-8-.5-10.6 2.5-9 4.1-17.3 4.1-17.3-.7-.4-1.5-.3-2.2 0-1.3.7-2.8 2.5-5.1.7-5.4-4.3-9.8-3-14.7.1-2.6 1.8-4.3.4-5.4 0-.6-.2-1.2 0-1.6.4l1 3.7 1.6 6.8zm33 0l3.2-1.1s-.5-4 3.1-5c9.1-2.6 12.2 1 12.1 3 0 1.4-3 4.4-5.6 7.4-1.8 2.3-6.9 7.3-7.3 11.9h17.3c-.2-2.7-1.1-8-.5-10.6 2.5-9 4.1-17.3 4.1-17.3-.7-.4-1.5-.3-2.2 0-1.3.7-2.8 2.5-5.1.7-5.4-4.3-9.9-3-14.7.1-2.6 1.8-4.3.4-5.4 0-.6-.2-1.2 0-1.6.4l1 3.7 1.6 6.8z"/></g></symbol><symbol id="icon-game-table" viewBox="0 0 200 200"><g fill="none" fill-rule="evenodd"><path class="fp-fill-a fp-stroke" d="M94 132h77.7c4.5 0 8.1-4.5 8.1-10.1V79c0-5.6-3.6-10.1-8.1-10.1H95a43.9 43.9 0 0 1-1 63z"/><circle cx="64" cy="100" r="44" class="fp-fill-a fp-stroke"/><circle cx="64.5" cy="100.5" r="34.5" class="fp-stroke"/><circle cx="64" cy="100" r="24" class="fp-stroke"/><path class="fp-fill-b" d="M72 95l-2-2-5.5 5-5.4-5-2.1 2 5.4 5-5.4 5 2 2 5.5-5 5.4 5 2.1-2-5.4-5z"/><path class="fp-stroke" d="M120 81h46v36h-46zM120.5 93.5h45m-45 11h45m-33-23v35m11-35v35m11-35v35m-90-50v9.4m0 48.7v9M98 100h-9.7m-48.5 0H31m57.5 23.8l-7-7M47.2 82.5l-6-6m-.1 47.3l6.4-6.3m34-34l7-7"/></g></symbol><symbol id="icon-icon-blocked" viewBox="0 0 36 36"><path d="M18 0C8.1 0 0 8.1 0 18s8.1 18 18 18 18-8.1 18-18S27.9 0 18 0zm0 4.5c2.9 0 5.6.9 7.8 2.5L7 25.8c-1.6-2.2-2.5-4.9-2.5-7.8 0-7.4 6.1-13.5 13.5-13.5zm0 27c-2.9 0-5.6-.9-7.8-2.5L29 10.2c1.6 2.2 2.5 4.9 2.5 7.8 0 7.4-6.1 13.5-13.5 13.5z"/></symbol><symbol id="icon-icon-chevron-right" viewBox="0 0 120 120"><path d="M66.8 60L40.4 87.2c-2.1 2.2-2 5.6.1 7.7 2.2 2.1 5.6 2 7.7-.1l29.9-31c2-2.1 2-5.5 0-7.6l-29.9-31c-2.1-2.2-5.6-2.2-7.7-.1-2.2 2.1-2.2 5.6-.1 7.7L66.8 60z"/></symbol><symbol id="icon-icon-close" viewBox="0 0 20 20"><path d="M19.508 19.508c-.657.656-1.72.656-2.377 0L10 12.378l-7.13 7.13c-.657.656-1.72.656-2.378 0-.656-.657-.656-1.72 0-2.377L7.622 10 .493 2.87c-.656-.657-.656-1.722 0-2.378.657-.656 1.72-.656 2.377 0L10 7.622l7.13-7.13c.657-.656 1.72-.656 2.378 0 .656.657.656 1.72 0 2.377L12.378 10l7.13 7.13c.656.657.656 1.72 0 2.378z"/></symbol><symbol id="icon-icon-deposit-check" viewBox="0 0 26 20"><path d="M9.248 20c-.315 0-.58-.116-.798-.35l-7.374-7.927c-.423-.466-.613-1.032-.57-1.697.043-.665.293-1.172.75-1.522.455-.362.937-.508 1.448-.438.5.07.928.304 1.286.7l4.476 4.795c.228.246.494.368.798.368.304 0 .564-.122.782-.367L22.01.7c.36-.385.787-.613 1.287-.683.498-.07.976.076 1.432.438.455.35.71.857.764 1.522.044.665-.152 1.23-.586 1.697L10.045 19.65c-.217.234-.482.35-.797.35z" fill="#1d4982"/></symbol><symbol id="icon-icon-deposit" viewBox="0 0 36 36"><path d="M33.75 36H13.51c-1.243 0-2.25-1.008-2.25-2.25V23.59l2.265-.003v8.803c0 .75.61 1.36 1.36 1.36h17.492c.752 0 1.36-.61 1.36-1.36l-.034-28.768c0-.752-.608-1.36-1.36-1.36H14.883c-.75 0-1.36.608-1.36 1.36v8.753h-2.265V2.25c0-1.243 1.007-2.25 2.25-2.25H33.75C34.994 0 36 1.007 36 2.25v31.5c0 1.242-1.007 2.25-2.25 2.25zM18.723 12.793c-.44-.44-.44-1.152 0-1.59.44-.44 1.15-.44 1.59 0l6.643 6.82-6.643 6.82c-.22.22-.507.33-.795.33-.288 0-.576-.11-.795-.33-.44-.44-.44-1.15 0-1.59l4.14-4.14H1.124C.503 19.113 0 18.61 0 17.988c0-.62.503-1.125 1.125-1.125H22.79l-4.068-4.07z"/></symbol><symbol id="icon-icon-freespins-blue" viewBox="0 0 31 37"><path d="M30.298 23.364c-1.182 3.94-3.74 7.158-7.206 9.058-.152.084-.314.123-.473.123-.376 0-.735-.215-.92-.59-.26-.538-.063-1.197.443-1.475 2.975-1.633 5.173-4.396 6.187-7.78 1.015-3.383.726-6.983-.814-10.136-1.63-3.337-4.425-5.796-7.856-6.75-.422-.116-.852-.202-1.284-.272l1.967 3.235c.217.378.193.925-.173 1.136l-.24.178c-.367.212-.838.08-1.055-.3L15.82 4.73c-.004-.006-.01-.01-.013-.017l-.196-.342c-.108-.187-.13-.403-.08-.597.047-.195.168-.37.352-.476l.332-.192c.006-.005.013-.003.02-.008L21.178.413c.364-.212.836-.078 1.053.3l.105.288c.217.38 0 .858-.367 1.07L19.32 3.497c.29.06.58.122.866.2 3.994 1.11 7.27 3.975 9.165 7.86 1.793 3.673 2.13 7.866.948 11.807zm-14.513 9.488c-.048.195-.17.37-.353.476l-.33.192c-.008.004-.014.003-.02.007l-4.947 2.685c-.365.212-.74.078-.958-.3l-.104-.288c-.217-.378-.096-.857.27-1.07l2.702-1.452c-.045-.012-.092-.02-.138-.032-3.995-1.11-7.375-3.974-9.274-7.86C.84 21.535.503 17.342 1.685 13.4c1.18-3.94 3.845-7.158 7.31-9.06.506-.278 1.13-.067 1.392.47.262.537.063 1.197-.443 1.475-2.975 1.632-5.277 4.394-6.29 7.778-1.016 3.384-.726 6.984.813 10.137 1.63 3.34 4.532 5.8 7.962 6.75.164.046.332.077.5.116l-1.96-3.22c-.216-.378-.224-.925.142-1.137l.272-.176c.367-.212.838-.078 1.055.3l3.054 5.06c.004.007.01.01.013.018l.197.342c.108.188.132.404.08.598z" fill="#3398da"/></symbol><symbol id="icon-icon-freespins-w" viewBox="0 0 18 21"><path d="M17.1 13.12c-.67 2.188-2.12 3.976-4.085 5.03-.086.048-.178.07-.268.07-.212 0-.416-.12-.52-.33-.15-.297-.037-.664.25-.818 1.686-.907 2.932-2.442 3.506-4.322.576-1.88.412-3.88-.46-5.63-.924-1.855-2.51-3.22-4.453-3.75-.24-.066-.482-.113-.728-.153l1.115 1.798c.123.21.11.514-.098.63l-.137.1c-.208.117-.475.043-.597-.167l-1.73-2.81-.01-.01-.11-.19c-.062-.105-.075-.225-.046-.333.027-.108.095-.205.2-.264l.187-.106c.004-.003.008-.002.01-.004L11.932.368c.208-.117.475-.043.6.167l.058.16c.123.21 0 .476-.208.594l-1.504.79c.165.035.33.07.49.113 2.265.616 4.12 2.208 5.195 4.367 1.017 2.04 1.208 4.37.54 6.56zm-8.226 5.27c-.027.108-.095.205-.2.264l-.187.107-.01.005-2.804 1.492c-.207.117-.42.043-.543-.167l-.06-.16c-.122-.21-.054-.476.154-.594l1.53-.807c-.024-.008-.05-.012-.077-.02-2.264-.615-4.18-2.207-5.255-4.366-1.016-2.04-1.207-4.37-.538-6.56.67-2.19 2.18-3.977 4.143-5.032.287-.155.64-.038.788.26.15.298.037.665-.25.82-1.686.906-2.99 2.44-3.565 4.32-.575 1.88-.41 3.88.46 5.633.925 1.854 2.57 3.22 4.513 3.75.093.025.19.042.283.064l-1.11-1.79c-.122-.21-.127-.514.08-.63l.155-.1c.21-.118.476-.043.598.167l1.732 2.81c.002.005.005.007.007.01l.11.19c.063.105.076.225.047.333z"/></symbol><symbol id="icon-icon-freespins" viewBox="0 0 18 21"><path d="M17.1 13.12c-.67 2.188-2.12 3.976-4.085 5.03-.086.048-.178.07-.268.07-.212 0-.416-.12-.52-.33-.15-.297-.037-.664.25-.818 1.686-.907 2.932-2.442 3.506-4.322.576-1.88.412-3.88-.46-5.63-.924-1.855-2.51-3.22-4.453-3.75-.24-.066-.482-.113-.728-.153l1.115 1.798c.123.21.11.514-.098.63l-.137.1c-.208.117-.475.043-.597-.167l-1.73-2.81-.01-.01-.11-.19c-.062-.105-.075-.225-.046-.333.027-.108.095-.205.2-.264l.187-.106c.004-.003.008-.002.01-.004L11.932.368c.208-.117.475-.043.6.167l.058.16c.123.21 0 .476-.208.594l-1.504.79c.165.035.33.07.49.113 2.265.616 4.12 2.208 5.195 4.367 1.017 2.04 1.208 4.37.54 6.56zm-8.226 5.27c-.027.108-.095.205-.2.264l-.187.107-.01.005-2.804 1.492c-.207.117-.42.043-.543-.167l-.06-.16c-.122-.21-.054-.476.154-.594l1.53-.807c-.024-.008-.05-.012-.077-.02-2.264-.615-4.18-2.207-5.255-4.366-1.016-2.04-1.207-4.37-.538-6.56.67-2.19 2.18-3.977 4.143-5.032.287-.155.64-.038.788.26.15.298.037.665-.25.82-1.686.906-2.99 2.44-3.565 4.32-.575 1.88-.41 3.88.46 5.633.925 1.854 2.57 3.22 4.513 3.75.093.025.19.042.283.064l-1.11-1.79c-.122-.21-.127-.514.08-.63l.155-.1c.21-.118.476-.043.598.167l1.732 2.81c.002.005.005.007.007.01l.11.19c.063.105.076.225.047.333z" fill="#197f4c"/></symbol><symbol id="icon-icon-gifts" viewBox="0 0 24 24"><path d="M22.057 11.986v9.967c0 .846-.643 1.53-1.437 1.53H3.377c-.794 0-1.438-.684-1.438-1.53v-9.967H.49V7.402c0-.845.643-1.53 1.437-1.53h2.495c-.648-.668-1.066-1.543-1.066-2.62 0-1.327.716-2.768 2.723-2.768 2.64 0 4.914 2.997 5.952 4.676C13.07 3.48 15.275.484 17.917.484c2.007 0 2.722 1.44 2.722 2.768 0 1.08-.417 1.95-1.055 2.62h2.466c.795 0 1.44.685 1.44 1.53v4.584h-1.433zm-1.437 0h-7.912v9.967h7.912v-9.967zM6.08 2.016c-.89 0-1.286.373-1.286 1.212 0 1.7 1.85 2.642 3.526 2.642h2.434C9.732 4.254 7.867 2.016 6.08 2.016zm5.19 5.386H1.927v3.052h9.343V7.402zm-7.893 4.584v9.967h7.893v-9.967H3.377zm14.54-9.97c-1.788 0-3.586 2.238-4.607 3.854h2.433c1.677 0 3.46-.917 3.46-2.618 0-.838-.398-1.236-1.286-1.236zm4.134 5.386H12.71v3.052h9.344V7.402z" fill="#3398da"/></symbol><symbol id="icon-icon-heart" viewBox="0 0 43 40"><path d="M12.07 2.783c1.315 0 3.692.65 7.548 4.57l1.91 1.944 1.884-1.975c2.677-2.808 5.526-4.553 7.434-4.553 2.574 0 4.603.91 6.58 2.946 1.864 1.92 2.89 4.473 2.89 7.19.002 2.716-1.025 5.27-2.908 7.212-.153.16-8.255 9.186-15.044 16.75-.32.315-.686.362-.88.362-.19 0-.553-.046-.87-.35-1.655-1.9-13.645-15.666-15.04-17.104-1.865-1.922-2.892-4.477-2.892-7.194 0-2.715 1.028-5.268 2.894-7.19 1.815-1.872 3.94-2.61 6.494-2.61m0-2.768c-3.208 0-6.035.99-8.39 3.42-4.907 5.052-4.907 13.246 0 18.302 1.4 1.446 15 17.064 15 17.064.773.8 1.79 1.2 2.805 1.2 1.014 0 2.03-.4 2.803-1.2 0 0 14.874-16.574 15.032-16.74 4.907-5.057 4.907-13.25 0-18.304C36.885 1.246 34.164 0 30.846 0c-3.17 0-6.706 2.61-9.346 5.38C18.776 2.61 15.35.014 12.07.014z"/></symbol><symbol id="icon-icon-hide" viewBox="0 0 20 16.083"><title>Untitled-1</title><path d="M14.322.792L14.13.657a.55.55 0 0 0-.768.133l-1.2 1.71a9.43 9.43 0 0 0-1.84-.257 5.142 5.142 0 0 0-.572-.035 4.748 4.748 0 0 0-1 .1C5.54 2.725 2.588 4.79.328 8.238L0 8.73l.25.384a14.7 14.7 0 0 0 4.2 4.335L3.3 15.08a.55.55 0 0 0 .133.768l.192.135a.55.55 0 0 0 .768-.133L14.456 1.56a.55.55 0 0 0-.134-.768zm-5.308 2.9a8.3 8.3 0 0 1 .935-.063h.04a3.446 3.446 0 0 1 1.167.3L7.29 9.414a3.42 3.42 0 0 1 1.724-5.727zm-7.326 5.04a13.107 13.107 0 0 1 3.684-3.7 4.79 4.79 0 0 0 1.11 5.534L5.26 12.3a12.994 12.994 0 0 1-3.57-3.568zM19.57 8.237a14.042 14.042 0 0 0-5.025-4.822l-1.63 2.315a3.38 3.38 0 0 1 .257 1.3 3.427 3.427 0 0 1-3.426 3.426H9.59l-.9 1.274a4.818 4.818 0 0 0 5.274-7.04 12.616 12.616 0 0 1 4.186 3.935c-2.254 3.3-5.184 5.107-8.275 5.107a8 8 0 0 1-2.346-.355l-.84 1.193a9.442 9.442 0 0 0 3.175.554c3.663 0 7.082-2.135 9.614-6.007l.327-.5z" fill-rule="evenodd"/></symbol><symbol id="icon-icon-image-placeholder" viewBox="0 0 500 360"><path fill="#5DCE8B" d="M237.9 214.3l1.2-2.4s-5.7-23-6.8-24c-1.2-1.1-1.3-1-1.4-1.4-.1-.6.7-1.5.7-1.5s-1 .4-1.3-.7c-.1-.3 0-.7 0-.7s-17-21.2-17.3-21.6c-.4-.5-3.8-.5-3.9-1.4-.1-.9-2.7.6-2.4-.8.4-1.4 2.2-10.7 31.1-19.7 28.9-9 30.1-2 30.1-1.8.1.2-.9 3.4-.9 3.4s11.8 21 13.2 30.6c1.4 9.7 0 18.7 0 18.7l-1.1 12-31.9 14.8-9.3-3.5z"/><g fill="#54AF82"><path d="M233 144.7c-6 1.6-15.4 6-18.5 10.4-3.6 5.1 1.3 4.7 1.3 4.7s18.2 22.8 18.4 23.7c.2.9-1.4 2-1.5 2.9-.2.9.4.6 1.1 1.2.7.6 3.1 9.7 3.1 9.7l22-5.1c-4.8-16.1-28.9-44-25.9-47.5zM273.8 161.3c-5-11.6-9.8-21.4-10.9-22.3-1.3-.9-5.8-.7-6.9.1 4.4 3.5 13.3 16.7 15.7 29.1 1.7 8.5 1.5 16.3 1.1 20.7l4.7-1.1c.1.1 1.3-14.9-3.7-26.5z"/></g><path fill="#1C5DC6" d="M280.7 185.6s-13 .5-22.1 2.7c-9.1 2.3-16.6 5.3-21.9 10.4-2.8 2.7 3.2 11.4 3.2 11.4l-1.7 3.6 10.9 1.3s12.6-8.1 16.9-10c4.3-1.9 13.5-5.5 13.5-5.5l1.2-13.9z"/><g fill="#0D4493"><path d="M257.6 188.6c-8.7 2.3-15.8 5.2-20.9 10.1-2.8 2.7 3.2 11.4 3.2 11.4l-1.7 3.6 10.9 1.3s9.6-6.1 14.8-9c-1.1-3.7-3.7-11.5-6.3-17.4zM273 186.1c-.1 4-.5 12.5-1 16.3 2.6-1.1 4.6-1.9 4.6-1.9l1-14.8c.1.1-1.8.2-4.6.4z"/></g><path fill="#1D7F57" d="M237.7 214.4l1.2-2.5v.1c-1.2-4.6-2.4-9.3-3.7-13.9-.6-2.3-1.3-4.6-2-6.9-.2-.6-.4-1.1-.6-1.7-.1-.3-.2-.6-.3-.8-.1-.1-.1-.3-.2-.4-.1-.1-.1-.1-.2-.3l-.7-.6-.4-.3c-.1-.1-.3-.3-.3-.5v-.2-.1-.3c0-.2.1-.3.2-.5.2-.3.3-.6.6-.8l.4.6c-.1.1-.3.1-.4.1h-.4c-.3 0-.6-.2-.7-.5-.2-.2-.2-.4-.3-.7v-.7l.1.3-17.1-21.1-.3-.3-.1-.1c.1.1-.1-.1 0 0 0 0 .1 0 0 0-.2-.1-.5-.1-.7-.2-.5-.1-1.1-.2-1.7-.3-.3-.1-.6-.2-.9-.4-.2-.1-.4-.2-.5-.5 0-.1-.1-.1-.1-.2v-.1.1s0 .1.1.1c.1.1 0 0 0 0h-.3c-.3 0-.5.1-.9.1-.2 0-.4 0-.7-.1-.2-.1-.3-.2-.4-.4-.1-.2-.1-.4-.1-.5v-.3l.1-.2c0-.1.1-.3.1-.4.2-.6.4-1.1.7-1.7.6-1 1.3-2 2-2.9 1.6-1.7 3.3-3.3 5.2-4.5.9-.7 1.9-1.2 2.9-1.9 1-.6 2-1.1 3-1.7 2-1 4.1-2 6.2-2.9l1.6-.7 1.6-.6c1.1-.4 2.1-.8 3.2-1.2 2.2-.7 4.3-1.5 6.5-2.1 2.2-.7 4.4-1.3 6.6-1.9 2.2-.6 4.4-1.1 6.7-1.6 2.2-.4 4.5-.8 6.8-1 1.2-.1 2.3-.1 3.5 0 1.2.1 2.4.3 3.6.8.6.3 1.2.7 1.7 1.2.5.6.8 1.4.8 2.1 0 .9-.2 1.5-.3 2.1-.2.6-.4 1.1-.7 1.7v-1c2.6 4.7 5.1 9.5 7.4 14.3 1.1 2.4 2.2 4.9 3.3 7.4 1 2.5 1.9 5.1 2.5 7.8.1.7.3 1.4.3 2.1.1.7.2 1.3.2 2 .1 1.4.2 2.7.3 4.1.1 2.7 0 5.4-.2 8.2-.1 1.3-.3 2.8-.5 4l-.4 4-.8 8-.1.6-.5.2-8 3.6-8 3.6c-5.4 2.4-10.7 4.8-16.1 7.1l-.2.1-.1-.1-9.5-3.8zm.4-.2l9.3 3.2h-.3c5.3-2.6 10.5-5.2 15.8-7.7l7.9-3.8 7.9-3.8-.6.8.6-8 .3-4c.2-1.4.3-2.6.4-4 .2-2.6.2-5.3.1-7.9-.1-1.3-.1-2.6-.3-3.9-.1-.6-.1-1.3-.2-2s-.2-1.2-.3-1.9c-.6-2.5-1.4-5-2.4-7.5s-2-4.9-3.1-7.3c-2.2-4.8-4.6-9.6-7.2-14.3l-.3-.5.3-.5c.2-.4.4-.9.6-1.4.2-.5.3-1 .3-1.3 0-.4-.1-.7-.4-1-.2-.3-.6-.5-1-.7-.9-.4-1.9-.6-3-.7-1.1-.1-2.2-.1-3.3 0-2.2.1-4.4.5-6.6.9-2.2.4-4.4.9-6.6 1.5-2.2.6-4.3 1.2-6.5 1.8-2.2.6-4.3 1.4-6.4 2.1-1.1.4-2.1.8-3.2 1.2l-1.6.6-1.6.6c-2.1.8-4.1 1.8-6.1 2.8-1 .5-2 1-2.9 1.6-.9.6-1.9 1.1-2.8 1.8-1.9 1.2-3.6 2.7-5 4.3-.7.8-1.4 1.7-1.9 2.6-.3.5-.5 1-.6 1.4 0 .1-.1.2-.1.4l-.1.2v0c0-.1-.1-.1-.1-.1h.1c.2 0 .5-.1.8-.1h.5c.2 0 .4 0 .8.2.1.1.2.1.2.2 0 0 .1.1.1.2V160.5l.1.1c.2.1.4.2.6.2.5.1 1.1.2 1.6.3.3.1.6.1.9.2 0 0 .1 0 .1.1 0 0 .1.1.2.1l.2.2.1.1.3.3 16.8 21.3.1.1v.7c0 .1.1.3.2.4.1.1.2.2.3.2h.4l1.3-.5-.9 1c-.3.4-.7 1-.6 1.3 0 .1.2.3.5.5.2.2.5.4.7.6l.4.4c.1.1.1.3.2.4l.3.9c.2.6.4 1.1.6 1.7.7 2.3 1.3 4.6 1.9 6.9 1.2 4.6 2.4 9.3 3.5 14l-1.3 2.2z"/><ellipse transform="rotate(164.58 244.483 202.422)" fill="#FFF30B" cx="244.5" cy="202.4" rx="9" ry="12.7"/><linearGradient id="a" gradientUnits="userSpaceOnUse" x1="238.594" y1="182.122" x2="246.827" y2="210.553"><stop offset="0" stop-color="#FF8B00"/><stop offset="1" stop-color="#FFF30B"/></linearGradient><path fill="url(#a)" d="M238.3 204.2c1.3 4.8 5.2 7.9 8.6 7 3.4-.9 5.1-5.6 3.8-10.4-1.3-4.8-5.2-7.9-8.6-7-3.4 1-5.1 5.6-3.8 10.4z"/><path fill="#FFF8C5" d="M238.8 205.6s.1.3.4.9c.1.3.3.6.5.9.1.2.2.4.4.5.1.2.3.4.5.6.7.7 1.6 1.5 2.7 2 .5.2 1.1.4 1.7.5.6.1 1.2 0 1.8-.2.5-.2 1.1-.5 1.5-1 .5-.4.9-.9 1.2-1.4.7-1 1.1-2.1 1.3-3.1.2-1 .2-1.8.2-2.4 0-.6-.1-.9-.1-.9l.3.9c.2.6.3 1.5.2 2.6-.1 1.1-.4 2.3-1 3.5-.3.6-.8 1.2-1.3 1.7s-1.2 1-1.9 1.2c-.7.2-1.5.3-2.3.2-.8-.1-1.4-.3-2.1-.7-.6-.3-1.2-.7-1.6-1.2-.5-.4-.8-.9-1.1-1.3-.3-.4-.5-.9-.7-1.3-.2-.4-.3-.8-.4-1.1-.1-.3-.1-.5-.1-.7-.1-.1-.1-.2-.1-.2z"/><path fill="#CE8715" d="M250.7 201.1s-.1-.4-.4-1c-.3-.6-.7-1.5-1.3-2.4-.3-.5-.7-.9-1.2-1.4-.5-.5-1-.9-1.6-1.2-.6-.4-1.3-.6-1.9-.7-.7-.1-1.4-.1-2 .1l-.5.2c-.2.1-.3.2-.4.2-.3.2-.6.4-.8.6-.5.5-.9 1-1.1 1.6-.3.6-.5 1.2-.7 1.8-.2.6-.3 1.2-.3 1.7-.1.5-.1 1.1-.1 1.5v1.2c.1.7.1 1.1.1 1.1h-.1s-.2-.4-.4-1c-.2-.7-.4-1.6-.5-2.8 0-1.2.2-2.6.9-4 .4-.7.9-1.4 1.5-1.9.3-.3.7-.5 1-.7l.6-.3.5-.2c.9-.2 1.7-.2 2.5 0s1.5.5 2.1.9c.6.4 1.2.9 1.6 1.4.5.5.8 1 1.1 1.5.6 1 1 1.9 1.2 2.6.2.6.3 1 .3 1l-.1.2z"/><path fill="#FFE4A9" d="M245.1 200.2s.1.1.1.4c0 .2.1.6-.1 1-.1.2-.2.4-.5.6-.1 0-.1.1-.2.1s-.1.1-.2.1h-.5c-.3-.1-.6-.2-.9-.5-.3-.2-.4-.5-.5-.9-.1-.3-.1-.7-.1-1 .1-.3.2-.7.5-.9.2-.2.6-.4.9-.3.3 0 .5.1.7.2.4.3.5.6.6.8.2.2.2.4.2.4zm0 0s0-.1-.2-.3c-.1-.2-.4-.5-.7-.6-.2-.1-.4-.1-.6 0-.2.1-.3.2-.4.4-.1.2-.1.4-.1.6 0 .2 0 .4.1.6.1.4.4.8.7.9.1 0 .2.1.2.1H244.4c.2 0 .4-.2.5-.3.2-.3.3-.7.2-.9v-.5zM244 204.5s.1.1.2.3c.1.2.2.5.2 1 0 .2-.1.5-.3.7 0 .1-.1.1-.2.2 0 0-.1.1-.2.1-.1.1-.3.1-.5.2-.3 0-.7 0-1-.2-.3-.1-.5-.4-.7-.7-.2-.3-.3-.6-.3-.9 0-.3 0-.7.2-1 .2-.3.5-.5.7-.6.3-.1.5 0 .8 0 .4.1.7.4.8.6l.3.3zm0 0s-.1-.1-.2-.3c-.2-.2-.5-.4-.8-.4-.2 0-.4 0-.5.2-.2.1-.2.3-.3.5v.6c.1.2.1.3.3.5.2.3.5.6.9.7h.4s.1 0 .1-.1c.2-.1.3-.3.3-.4.1-.4.1-.7 0-.9l-.2-.4zM247.9 203.7s0 .1-.1.3c-.1.2-.2.5-.4.8-.1.1-.3.3-.6.3h-.4c-.2 0-.3-.1-.4-.2-.3-.2-.5-.4-.6-.7-.1-.3-.2-.6-.1-.9 0-.3.1-.6.3-.9.2-.3.4-.5.7-.6.3-.1.6-.1.9 0 .3.1.4.3.5.5.2.4.2.7.3.9-.1.4-.1.5-.1.5zm0 0v-.3c0-.2-.1-.5-.4-.8-.1-.1-.3-.2-.5-.2s-.3.1-.5.2c-.1.1-.2.3-.3.4-.1.2-.1.3-.1.5 0 .4 0 .7.2 1 0 .1.1.1.2.2 0 0 .1 0 .1.1h.1c.2 0 .4 0 .5-.1.3-.2.5-.5.5-.7.2-.1.2-.3.2-.3z"/><ellipse transform="rotate(-17.292 243.94 200.47)" fill="#CE8715" cx="243.9" cy="200.5" rx="1.1" ry="1.3"/><ellipse transform="rotate(-33.726 243.153 205.205)" fill="#CE8715" cx="243.2" cy="205.2" rx="1.1" ry="1.3"/><ellipse transform="rotate(5.957 247.063 203.54)" fill="#CE8715" cx="247" cy="203.6" rx="1.1" ry="1.3"/><path fill="#CE8715" d="M253.1 200s-.1-.3-.2-.7c-.1-.5-.4-1.2-.8-2s-1-1.8-1.8-2.8c-.8-1-1.9-2-3.2-2.8-1.3-.8-2.9-1.4-4.7-1.3-.2 0-.4 0-.6.1-.2 0-.5.1-.6.1l-.7.2-.6.3c-.8.4-1.6 1-2.2 1.8-.6.8-1.1 1.6-1.5 2.6-.3 1-.6 2-.7 3-.2 2.1 0 4.2.6 6.3.3 1 .7 2 1.2 2.9.5.9 1 1.8 1.7 2.6.6.8 1.4 1.5 2.1 2.2.8.6 1.6 1.1 2.5 1.5 1.8.7 3.7.7 5.2-.1 1.5-.7 2.6-2.1 3.3-3.4.7-1.4 1.1-2.8 1.3-4.1.2-1.3.2-2.4.1-3.3-.1-.9-.2-1.7-.3-2.1 0-.7-.1-1-.1-1zm.1 0s.1.3.2.8.3 1.2.4 2.2c.1.9.2 2.1.1 3.4-.1 1.3-.3 2.8-1 4.4-.7 1.5-1.8 3.1-3.7 4-1.7.9-4 1-6 .2-1-.4-1.9-1-2.7-1.7-.8-.7-1.6-1.5-2.2-2.4-1.3-1.7-2.2-3.8-2.7-5.9-.2-1.1-.4-2.1-.5-3.2-.1-1.1-.1-2.2.1-3.2.1-1.1.3-2.1.7-3.1.4-1 .8-1.9 1.4-2.8.6-.8 1.4-1.6 2.2-2.1.2-.1.5-.3.7-.4l.7-.3c.3-.1.5-.1.7-.2.2-.1.5-.1.7-.1 2-.2 3.8.5 5.2 1.5 1.4.9 2.4 2.1 3.1 3.2.7 1.1 1.3 2.1 1.6 3 .4.9.6 1.6.8 2 .1.5.2.7.2.7z"/><path fill="#5DCE8B" d="M249.1 215s14.7-11.4 34.3-16.3c19.6-4.8 20.5-2 20.8-.9.4 1.1-.4 15.4-26.5 25.6-25.1 9.8-45.5 4.6-45.5 4.6s-18.6-4.2-16.3-8.7c3.5-6.7 20.6-5.8 20.6-5.8l12.6 1.5z"/><path fill="#2D9164" d="M297 199.5c-8.3 2.3-22 13.2-46.7 18.7-4.7 1-30.6 5.9-32.3-.4-2.1 1.6-3.1 1.9-1.8 3.2 1.3 1.3 16.8 10.6 37 8.3 20.2-2.3 44.9-14.1 48-22.4 2.3-6.6 4.1-9.7-4.2-7.4z"/><path fill="#1D7F57" d="M249.1 214.9c.1-.1.7-.6 1.8-1.3 1.2-.8 3-2.1 5.3-3.5 4.7-2.8 11.5-6.7 20.4-9.8 1.1-.4 2.3-.8 3.4-1.1 1.2-.3 2.4-.7 3.6-1 2.4-.6 5-1.2 7.6-1.7 2.6-.5 5.4-1 8.3-1.1.7 0 1.5 0 2.2.1.7.1 1.5.2 2.3.8.4.3.7.8.8 1.2v1.4c-.1.8-.2 1.5-.4 2.3-.8 2.9-2.3 5.7-4.2 8.1-1.9 2.4-4.2 4.6-6.7 6.5-5 3.8-10.7 6.6-16.6 8.9-1.5.5-2.9 1.1-4.4 1.6-1.5.4-3 1-4.5 1.4-3 .8-6.1 1.5-9.2 1.9-6.1 1-12.3 1.3-18.2.9-3-.2-5.9-.6-8.7-1.2-2.8-.7-5.5-1.4-8-2.4-1.3-.5-2.5-1-3.8-1.5-1.2-.6-2.4-1.2-3.5-2.1-.5-.4-1.1-.9-1.5-1.7l-.3-.6c-.1-.2-.1-.5-.1-.7 0-.5.1-.9.4-1.4.2-.3.3-.5.5-.8l.3-.4.4-.4c.5-.5 1-.9 1.5-1.2 2.2-1.3 4.5-1.9 6.6-2.3 2.1-.4 4.2-.6 6.1-.7 1.9-.1 3.7-.1 5.4 0 .2 0 .4 0 .7.1.2 0 .4.1.6.1.4.1.8.1 1.1.2.7.1 1.5.2 2.1.3 5.3.5 8.3 1 8.7 1.1zm0 .2s-3.1-.2-8.5-.8c-.7-.1-1.4-.1-2.1-.2-.4 0-.8-.1-1.2-.1-.2 0-.4 0-.6-.1h-.6c-1.6 0-3.4.1-5.3.2-1.9.2-3.9.4-5.9.9-2 .5-4.1 1.1-5.9 2.3-.4.3-.9.6-1.2 1l-.3.3-.2.3c-.1.1-.3.5-.5.7-.1.3-.1.4.1.8.2.3.6.7 1 1 1.8 1.3 4.3 2.3 6.8 3.1 2.5.8 5.1 1.6 7.8 2.2 2.7.6 5.5.9 8.3 1.1 5.7.4 11.7.2 17.7-.6 3-.4 6-1 9-1.7 1.5-.3 2.9-.8 4.4-1.2 1.5-.4 2.9-1 4.4-1.5 5.7-2.1 11.4-4.8 16.2-8.4 2.4-1.8 4.6-3.8 6.5-6.1 1.9-2.3 3.3-4.8 4.1-7.5.2-.7.3-1.4.4-2v-.4-.4c0 .2 0 0 0 0-.1-.3-.2-.4-.4-.6-.4-.3-1-.5-1.7-.6-.6-.1-1.3-.1-2-.1-2.7 0-5.5.5-8.1.9-2.6.5-5.2 1-7.6 1.6l-3.6.9c-1.2.3-2.3.7-3.4 1-8.9 2.9-15.8 6.6-20.5 9.3-2.3 1.4-4.1 2.6-5.3 3.4l-1.8 1.3z"/><path fill="#5DCE8B" d="M279.9 215.5s.9 7.8-28.3 10.9c-15 1.6-15.8-1.9-15.8-1.9l20.7-2.6 23.4-6.4"/><path fill="#094F34" d="M256.4 221.3s20.5-10.1 23.3-6.7c2.8 3.4-20.7 10.7-27.5 10.9-5.4.2-17.2 1.3-16.5-1.9.6-3.1 20.7-2.3 20.7-2.3z"/><path fill="#5DCE8B" d="M262.3 175.5c.6 0 .6-1 0-1s-.6 1 0 1z"/></symbol><symbol id="icon-icon-pnp-arrow" viewBox="0 0 20 20"><title>icon-pnp-arrow</title><g fill="#6F457F" fill-rule="evenodd"><path d="M17.81 10.102H.54c-.297 0-.538-.238-.538-.53 0-.295.24-.533.538-.533H17.81c.3 0 .54.237.54.53 0 .294-.24.532-.54.532"/><path d="M14.98 13.273c-.138 0-.274-.05-.38-.156-.21-.207-.21-.543 0-.75l2.89-2.855-2.89-2.854c-.21-.208-.21-.545 0-.752.21-.208.55-.208.76 0l3.27 3.23c.21.208.21.544 0 .752l-3.27 3.23c-.105.104-.24.155-.38.155"/></g></symbol><symbol id="icon-icon-pnp-casino" viewBox="0 0 25 25"><title>icon-pnp-casino</title><g fill="none" fill-rule="evenodd"><path d="M18.938.257C18.848.1 18.682 0 18.5 0h-8c-.23 0-.43.156-.485.38l-3 12c-.038.148-.004.306.09.427.096.122.24.193.395.193h3.346L8.018 23.368c-.064.237.052.486.275.588.218.1.484.03.624-.178l10-15c.1-.154.11-.35.024-.514-.086-.162-.256-.264-.44-.264h-4.098L18.924.765c.096-.154.102-.35.014-.508" fill="#E0D3E6"/><path d="M18.74 1.06c-.073-.04-.154-.06-.24-.06h-8c-.23 0-.43.156-.485.38L7.147 12.852c-.015-.015-.028-.03-.04-.046-.096-.12-.13-.28-.092-.428l3-12C10.07.155 10.27 0 10.5 0h8c.182 0 .35.1.438.257.088.16.082.354-.014.508l-.185.296zM15.026 8H18.5c.184 0 .354.102.44.264.088.163.078.36-.023.514l-.186.28C18.66 9.02 18.583 9 18.5 9h-4.098l.625-1zm-6.87 15.863c-.13-.124-.188-.313-.14-.495L10.574 14h.273l-2.69 9.863z" fill="#BBA9C2"/></g></symbol><symbol id="icon-icon-pnp-chat" viewBox="0 0 30 27"><g fill="#662482" fill-rule="evenodd"><path d="M24.4.7c0-.3-.3-.6-.6-.6H1C.7.1.4.4.4.7V15c0 .3.3.6.6.6h3v4.1c0 .6.6.8 1 .5l4.6-4.6h2.8v-5.4c0-.3.3-.6.6-.6h11.4v-9z"/><path d="M28.6 10.8H14.2c-.3 0-.6.3-.6.6v9.5c0 .4.3.6.6.6h6.4l5.2 4.6c.4.4 1 .1 1-.4v-4.2h1.8c.3 0 .6-.2.6-.6v-9.5c0-.3-.3-.6-.6-.6"/></g></symbol><symbol id="icon-icon-pnp-check" viewBox="0 0 26 26"><title>icon-pnp-check</title><path d="M10.41 19.472l-.037-.032-.034.032-5.676-5.676 2.018-2.017 3.69 3.697 8.946-8.95 2.017 2.02L10.41 19.47zM12.997 0C5.822 0 0 5.823 0 13c0 7.18 5.822 13 12.998 13C20.176 26 26 20.18 26 13c0-7.177-5.824-13-13.002-13z" fill="#662482" fill-rule="nonzero"/></symbol><symbol id="icon-icon-pnp-close" viewBox="0 0 20 20"><title>icon-pnp-close</title><g fill="#6F457F" fill-rule="evenodd"><path d="M16.9 18c-.138 0-.274-.05-.38-.155L2.158 3.657c-.21-.207-.21-.544 0-.75.21-.21.55-.21.76 0l14.363 14.187c.21.207.21.544 0 .75-.105.105-.24.157-.38.157"/><path d="M2.538 18c-.138 0-.275-.05-.38-.155-.21-.207-.21-.544 0-.75L16.52 2.904c.21-.207.55-.207.76 0 .21.208.21.545 0 .752L2.92 17.845c-.107.104-.244.156-.382.156"/></g></symbol><symbol id="icon-icon-pnp-enlarge" viewBox="0 0 20 20"><title>icon-pnp-enlarge</title><g fill="#6F457F" fill-rule="evenodd"><path d="M1.538 7.094c-.297 0-.538-.238-.538-.53V3.28c0-.294.24-.532.538-.532H4.86c.298 0 .538.238.538.532 0 .293-.24.53-.538.53H2.077v2.75c0 .294-.24.532-.54.532M19.24 7.094c-.3 0-.54-.238-.54-.53v-2.75h-2.783c-.298 0-.54-.24-.54-.532 0-.294.242-.532.54-.532h3.322c.296 0 .537.238.537.532v3.28c0 .294-.24.532-.538.532M19.24 16.516h-3.323c-.298 0-.54-.238-.54-.53 0-.295.242-.533.54-.533H18.7v-2.75c0-.293.24-.53.54-.53.296 0 .537.237.537.53v3.282c0 .293-.24.53-.538.53M4.86 16.516H1.538c-.297 0-.538-.238-.538-.53v-3.282c0-.294.24-.532.538-.532.298 0 .54.238.54.532v2.75H4.86c.298 0 .538.237.538.53 0 .294-.24.532-.538.532"/></g></symbol><symbol id="icon-icon-pnp-favorite" viewBox="0 0 25 25"><title>icon-pnp-favorite</title><g fill="none" fill-rule="evenodd"><path d="M25 9.995v1.117c-.018.075-.037.152-.05.23-.157 1.223-.554 2.402-1.17 3.47-.518.85-1.115 1.652-1.78 2.393-.854.978-1.772 1.898-2.75 2.753-.897.78-1.81 1.545-2.75 2.25-1.25.94-2.55 1.822-3.825 2.735-.087.076-.218.076-.305 0-1.122-.79-2.275-1.546-3.367-2.38-1.15-.877-2.25-1.803-3.36-2.75v.002c-1.397-1.188-2.655-2.53-3.75-4-.832-1.11-1.41-2.39-1.69-3.75-.088-.32-.145-.613-.203-.918V9.995c.015-.066.027-.128.043-.193.11-.5.18-1 .338-1.5.527-1.654 1.667-3.045 3.185-3.887C4.978 3.59 6.64 3.3 8.25 3.597c1.57.26 3 1.055 4.05 2.25.05.07.095.146.132.225.273-.272.475-.482.688-.68 1.3-1.214 3.01-1.89 4.786-1.897 1.778-.006 3.492.66 4.8 1.865 1.015.923 1.733 2.127 2.06 3.46.112.382.162.777.234 1.175z" class="fp-icon-svg__current-color"/><path d="M25 10.995c-.072-.398-.122-.793-.233-1.175-.328-1.333-1.046-2.537-2.062-3.46-1.307-1.205-3.02-1.87-4.8-1.865-1.776.006-3.486.683-4.785 1.897-.213.198-.415.408-.688.68-.037-.08-.08-.154-.132-.225-1.05-1.195-2.48-1.99-4.05-2.25-1.61-.297-3.272-.007-4.685.818C2.047 6.257.907 7.648.38 9.302c-.157.5-.227 1-.337 1.5-.016.065-.028.127-.043.193v-1c.015-.066.027-.128.043-.193.11-.5.18-1 .338-1.5.527-1.654 1.667-3.045 3.185-3.887C4.978 3.59 6.64 3.3 8.25 3.597c1.57.26 3 1.055 4.05 2.25.05.07.095.146.132.225.273-.272.475-.482.688-.68 1.3-1.214 3.01-1.89 4.786-1.897 1.778-.006 3.492.66 4.8 1.865 1.015.923 1.733 2.127 2.06 3.46.112.382.162.777.234 1.175v1z" fill="#000" opacity=".4"/></g></symbol><symbol id="icon-icon-pnp-how" viewBox="0 0 25 25"><title>icon-pnp-how</title><g fill="none" fill-rule="evenodd"><path d="M13 23C7.477 23 3 18.523 3 13S7.477 3 13 3s10 4.477 10 10-4.477 10-10 10zm1.962-4.95l.163-.648c-.085.04-.455.193-.91.21-.456.015-.54-.052-.666-.153-.13-.1-.193-.29-.193-.57 0-.11.02-.274.06-.488.038-.216.842-3.075.864-3.305.023-.23.034-.39.034-.482 0-.44-.16-.8-.478-1.076-.32-.276-.773-.415-1.36-.415-.65-.003-1.378.19-2.19.577l-.16.648c.116-.044.455-.193.912-.208.455-.015.54.052.653.157.115.105.172.292.172.56 0 .15-.898 3.585-.923 3.76-.025.175-.037.347-.037.515 0 .432.163.79.492 1.07.328.28.79.42 1.38.42.827-.022 1.555-.214 2.187-.576zm-.203-8.54c.242-.242.365-.537.365-.882 0-.344-.123-.64-.366-.885-.244-.246-.54-.368-.882-.368-.343 0-.64.122-.885.368-.244.245-.368.54-.368.885s.123.64.368.883c.246.244.542.365.885.365.343 0 .637-.12.88-.364z" fill="#E0D3E6"/><path d="M3.012 13.5C3.004 13.334 3 13.168 3 13 3 7.477 7.477 3 13 3s10 4.477 10 10c0 .168-.004.334-.012.5C22.728 8.21 18.355 4 13 4c-5.355 0-9.727 4.21-9.988 9.5z" fill="#BBA9C2"/></g></symbol><symbol id="icon-icon-pnp-info" viewBox="0 0 20 20"><title>icon-pnp-info</title><g fill="#6F457F" fill-rule="evenodd"><path d="M10.365 2.063c-4.57 0-8.288 3.672-8.288 8.188 0 4.515 3.717 8.188 8.288 8.188 4.57 0 8.288-3.673 8.288-8.187 0-4.514-3.718-8.187-8.288-8.187m0 17.437C5.2 19.5 1 15.35 1 10.25S5.2 1 10.365 1c5.163 0 9.364 4.15 9.364 9.25s-4.202 9.25-9.365 9.25"/><path d="M10.365 15.75c-.298 0-.54-.238-.54-.53V8.656c0-.294.242-.532.54-.532.297 0 .538.238.538.532v6.562c0 .292-.24.53-.538.53M11.182 5.752c0 .445-.365.807-.817.807-.45 0-.816-.363-.816-.808 0-.446.364-.806.815-.806.452 0 .817.36.817.806"/></g></symbol><symbol id="icon-icon-pnp-mail" viewBox="0 0 25 25"><title>icon-pnp-mail</title><g fill="none" fill-rule="evenodd"><path d="M23.27 3.266c.916 0 1.664.748 1.664 1.662v14.96c0 .915-.748 1.663-1.663 1.663H1.663C.748 21.55 0 20.804 0 19.89V4.928c0-.914.748-1.662 1.662-1.662h21.61zm-1.418 16.38l1.176-1.178-6.41-6.41 6.375-5.68-1.106-1.24-8.464 7.543c-.534.483-.643.56-.956.56-.314 0-.423-.077-.957-.557L3.046 5.14 1.94 6.38l6.375 5.68-6.41 6.41 1.176 1.174 6.478-6.476.84.748c.587.53 1.093.986 2.07.986.974 0 1.48-.456 2.068-.986l.84-.748 6.476 6.477z" fill="#E0D3E6"/><path d="M24.934 5.928c0-.914-.748-1.662-1.663-1.662H1.663C.748 4.266 0 5.014 0 5.928v-1c0-.914.748-1.662 1.662-1.662h21.61c.914 0 1.662.748 1.662 1.662v1z" fill="#BBA9C2"/></g></symbol><symbol id="icon-icon-pnp-menu" viewBox="0 0 23 23"><title>icon-pnp-menu</title><g class="fp-icon-svg__current-color" fill="none" fill-rule="evenodd"><path d="M4.25 8H23l-1.25 2H3M1.25 14H20l-1.25 2H0"/></g></symbol><symbol id="icon-icon-pnp-minus" viewBox="0 0 20 20"><title>icon-pnp-minus</title><path d="M18.306 10.25H1.538c-.297 0-.538-.238-.538-.53 0-.295.24-.533.538-.533h16.768c.297 0 .538.238.538.532 0 .292-.24.53-.538.53" fill="#6F457F" fill-rule="evenodd"/></symbol><symbol id="icon-icon-pnp-off" viewBox="0 0 25 25"><path d="M11 0h3v11h-3z"/><path d="M8.235 5.146C5.703 6.618 4 9.36 4 12.5c0 4.694 3.806 8.5 8.5 8.5s8.5-3.806 8.5-8.5c0-3.14-1.703-5.882-4.235-7.354l1.81-2.413C21.832 4.763 24 8.38 24 12.5 24 18.85 18.85 24 12.5 24S1 18.85 1 12.5c0-4.12 2.168-7.736 5.425-9.767l1.81 2.413z"/></symbol><symbol id="icon-icon-pnp-pause" viewBox="0 0 25 25"><path d="M6 3h4v19H6zM15 3h4v19h-4z"/></symbol><symbol id="icon-icon-pnp-plus" viewBox="0 0 20 20"><title>icon-pnp-plus</title><g fill="#6F457F" fill-rule="evenodd"><path d="M18.767 10.234H.567C.254 10.234 0 9.98 0 9.667 0 9.354.254 9.1.567 9.1h18.2c.314 0 .567.254.567.567 0 .313-.253.567-.567.567"/><path d="M9.667 19.334c-.313 0-.567-.254-.567-.567V.567C9.1.254 9.354 0 9.667 0c.314 0 .567.254.567.567v18.2c0 .313-.253.567-.567.567"/></g></symbol><symbol id="icon-icon-pnp-profile" viewBox="0 0 25 25"><g fill="none"><path fill="#E0D3E6" d="M23 17c-1.3-1.8-5.5-3-7.2-4.1a9 9 0 0 0 2.4-6.6C18.1 3.3 16 1 13 1S7.9 3.4 7.8 6.3c-.2 2.6 1 5 2.4 6.6-1.7 1.1-6 2.3-7.2 4-1.5 2.3-1 3.5-.8 4.1 0 1.4 4.9 2.5 10.8 2.5 5.8 0 10.4-1 10.7-2.3 0 0 1-1.7-.7-4.3z"/><path fill="#BBA9C2" d="M24 20.4c-.1-.7-.4-1.5-1-2.5-1.3-1.7-5.5-2.9-7.2-4l.6-.7c2 1 5.5 2.1 6.6 3.7 1 1.5 1 2.7 1 3.5zm-22-.2c0-.7 0-1.8 1-3.3 1.1-1.5 4.7-2.6 6.6-3.7l.6.7c-1.7 1.1-6 2.3-7.2 4-.6 1-.9 1.7-1 2.3zm5.8-13v-1A5.4 5.4 0 0 1 13 1c3 0 5.1 2.4 5.2 5.3v1C18.1 4.2 16 2 13 2S8 4.3 7.8 7.2z"/></g></symbol><symbol id="icon-icon-pnp-sports" viewBox="0 0 25 25"><title>icon-pnp-sports</title><g fill="none" fill-rule="evenodd"><path d="M4.43 4.422C2.225 6.627 1 9.568 1 12.692c0 3.124 1.225 6.065 3.43 8.27 2.266 2.266 5.268 3.43 8.27 3.43s5.973-1.133 8.27-3.43c2.205-2.205 3.43-5.146 3.43-8.27 0-3.124-1.225-6.065-3.43-8.27C16.407-.14 8.994-.14 4.43 4.422zM19.652 5.74c.276.275.552.58.797.92l-.98 3.276-3.584 1.256-2.634-1.93v-3.89l2.725-1.96c1.348.46 2.604 1.225 3.676 2.328zm-13.936 0c1.103-1.104 2.42-1.9 3.83-2.36l2.787 2.023v3.89l-2.665 1.96L5.84 10.12 4.736 6.965c.277-.49.613-.858.98-1.225zm-2.878 7.29l2.725-2.083 3.83 1.133 1.04 3.155-2.113 3.338-3.338.214c-1.318-1.654-2.052-3.644-2.144-5.757zm7.504 9.218l-1.257-3.184 2.115-3.31h3.308l2.45 2.942-.827 3.248c-1.867.672-3.89.764-5.788.305v-.002zm12.19-9.556c0 1.87-.52 3.645-1.47 5.207l-3.43.214-2.45-2.94 1.01-3.125 3.584-1.257 2.756 1.9z" fill="#E0D3E6"/><path d="M24.39 13.192c-.124-2.936-1.333-5.683-3.42-7.77C16.407.86 8.994.86 4.43 5.422c-2.087 2.087-3.296 4.834-3.42 7.77-.006-.166-.01-.333-.01-.5 0-3.124 1.225-6.065 3.43-8.27 4.564-4.563 11.977-4.563 16.54 0 2.205 2.205 3.43 5.146 3.43 8.27 0 .167-.004.334-.01.5z" fill="#BBA9C2"/></g></symbol><symbol id="icon-icon-pnp-star" viewBox="0 0 25 25"><title>icon-pnp-star</title><g fill="none" fill-rule="evenodd"><path fill="#E0D3E6" d="M12.5 18.75l-7.347 3.863 1.403-8.182L.612 8.638l8.214-1.193L12.5 0l3.674 7.444 8.214 1.193-5.944 5.794 1.403 8.183"/><path d="M5.34 22.514l-.187.1 1.256-7.326.146.143-1.215 7.084zM1.506 9.508l-.893-.87 8.214-1.194L12.5 0l3.674 7.444 8.214 1.193-.893.87-7.32-1.063L12.5 1 8.826 8.444l-7.32 1.064zm17.086 5.78l1.257 7.325-.188-.1-1.216-7.082.147-.142z" fill="#BBA9C2"/></g></symbol><symbol id="icon-icon-power" viewBox="0 0 36 36"><path d="M33.177 23.327C31.667 30.822 25.167 36 17.935 36c-1.034 0-2.083-.106-3.134-.326-4.072-.852-7.437-3.27-9.725-6.806-2.29-3.538-3.088-7.773-2.25-11.923.993-4.932 4.128-8.996 8.6-11.152.553-.264 1.21-.025 1.472.536.26.562.025 1.233-.526 1.5-3.837 1.85-6.528 5.337-7.38 9.568-.72 3.56-.033 7.195 1.93 10.23 1.964 3.035 4.83 5.11 8.325 5.84 7.214 1.506 14.285-3.243 15.767-10.594 1.248-6.19-1.797-12.384-7.403-15.06-.554-.263-.792-.933-.533-1.496.26-.564.916-.806 1.47-.543 6.535 3.12 10.084 10.336 8.63 17.552"/><path d="M18 14.64c-.61 0-1.105-.504-1.105-1.126V1.126C16.895.504 17.39 0 18 0c.61 0 1.105.504 1.105 1.126v12.388c0 .622-.495 1.127-1.105 1.127"/></symbol><symbol id="icon-icon-share" viewBox="0 0 36 36"><path d="M.872 33.856H.67c-.402-.07-.67-.414-.67-.897C0 14.53 14.28 11.56 17.9 11.077V3.9c0-.345.2-.62.47-.828.267-.138.67-.07.937.138l16.358 13.735c.2.138.335.415.335.69 0 .277-.134.553-.335.69l-16.29 12.977c-.27.207-.604.276-.94.07-.267-.14-.47-.484-.47-.83v-6.97c-3.15.414-13.406 2.415-16.356 9.732-.135.345-.403.552-.738.552zM19.575 5.764v6.074c0 .483-.335.897-.804.897-.67 0-15.016.828-16.826 16.704 5.363-6.697 16.358-7.732 16.894-7.732.268 0 .47.07.67.207.2.138.27.414.27.62v6.213L33.72 17.636 19.576 5.764z"/></symbol><symbol id="icon-icon-show" viewBox="0 0 20 16.083"><title>Untitled-1</title><path d="M9.88 13.728c-3.063 0-5.958-1.772-8.19-5a13.107 13.107 0 0 1 3.683-3.7 4.77 4.77 0 0 0-.44 2 4.82 4.82 0 1 0 9.035-2.337 12.616 12.616 0 0 1 4.186 3.936C15.9 11.92 12.97 13.728 9.88 13.728zm3.293-6.7a3.426 3.426 0 1 1-4.16-3.34 8.3 8.3 0 0 1 .936-.063h.04a3.426 3.426 0 0 1 3.183 3.405zm6.4 1.207c-2.45-3.747-5.728-5.854-9.252-5.993a5.14 5.14 0 0 0-.57-.035 4.748 4.748 0 0 0-1 .1C5.54 2.725 2.587 4.79.327 8.237L0 8.732l.25.384c2.534 3.872 5.952 6.007 9.615 6.007s7.082-2.135 9.614-6.007l.327-.5z" fill-rule="evenodd"/></symbol><symbol id="icon-icon-withdrawal" viewBox="0 0 36 36"><path d="M33.748 36H14.61c-1.243 0-2.25-1.008-2.25-2.25V23.59l2.266-.003v8.803c0 .75.61 1.36 1.362 1.36H32.37c.753 0 1.363-.61 1.363-1.36l-.035-28.768c0-.752-.61-1.36-1.362-1.36H15.988c-.752 0-1.362.608-1.362 1.36v8.753H12.36V2.25c0-1.243 1.007-2.25 2.25-2.25H33.75C34.992 0 36 1.007 36 2.25v31.5c0 1.242-1.008 2.25-2.252 2.25zM4.168 16.863h19.435c.623 0 1.126.504 1.126 1.125 0 .62-.504 1.125-1.127 1.125H4.098l4.143 4.14c.44.44.44 1.15 0 1.59-.22.22-.507.33-.795.33-.288 0-.576-.11-.796-.33L0 18.023l6.65-6.82c.44-.44 1.15-.44 1.59 0 .44.438.44 1.15 0 1.59l-4.072 4.07z"/></symbol><symbol id="icon-info" viewBox="0 0 25 25"><path d="M12.7.2C5.8.2.2 5.8.2 12.7s5.6 12.5 12.5 12.5 12.5-5.6 12.5-12.5S19.6.2 12.7.2zm0 22.7C7 22.9 2.5 18.3 2.5 12.7S7 2.4 12.7 2.4 22.9 7 22.9 12.7s-4.6 10.2-10.2 10.2z"/><path d="M13 5.6c-.5 0-.9.2-1.2.5-.3.3-.5.7-.5 1.2s.2.9.5 1.2c.4.3.8.5 1.2.5.5 0 .8-.2 1.2-.5.3-.3.5-.7.5-1.2s-.2-.9-.5-1.2c-.3-.4-.7-.5-1.2-.5zM14.3 19.1c-.2.1-.4.1-.5.1-.3 0-.5-.1-.7-.2-.1-.1-.2-.4-.2-.7 0-.1 0-.3.1-.6 0-.3.1-.5.1-.7l.6-2.6c.1-.2.1-.5.1-.8V13c0-.6-.2-1-.5-1.3s-.8-.5-1.4-.5c-.3 0-.7.1-1 .2-.4.1-.7.3-1.1.5 0 0 .1.7.3.6.2-.1.3-.1.5-.1.3 0 .5.1.7.2s.2.4.2.7c0 .2 0 .4-.1.6 0 .2-.1.5-.1.7l-.6 2.6c-.1.3-.1.5-.1.7v.6c0 .5.2 1 .5 1.3.3.4.8.5 1.4.5.4 0 .7-.1 1-.2.3-.1.7-.3 1.2-.5-.2.1-.2-.6-.4-.5z"/></symbol><symbol id="icon-link-ext" viewBox="0 0 100 100">e&gt;<path d="M83.3 84H15.4V16h34V9H8.5v81.9h81.9V50h-7.1"/><path d="M65.6 0v7h21.7L40.9 53.4l5.5 5.4 46.4-46.4v21.7h7.1V0"/></symbol><symbol id="icon-logo-green" viewBox="0 0 350.854 219"><title>logo-green</title><path d="M106.1 208.53h5.36A11.9 11.9 0 0 1 99.33 219a12.824 12.824 0 1 1-.006-25.647c6.37 0 11.11 4.164 12.13 10.47h-5.36c-.87-3.515-3.22-5.47-6.77-5.47-4.39 0-7.57 3.15-7.57 7.825s3.18 7.822 7.57 7.822c3.55 0 5.9-1.95 6.77-5.47h.007zm20.715 5.217l-1.918 4.746h-5.578l10.61-24.778h4.924l10.57 24.778h-5.54l-1.92-4.746h-11.15zm5.54-13.763l-3.62 9.016h7.276zm41.823 1.41h-5.18c-.326-2.17-1.7-3.62-4.67-3.62-2.57 0-4.272 1.085-4.272 3.006 0 1.666 1.24 2.39 3.48 2.826l3.04.614c4.71 1.015 7.5 2.826 7.5 6.955 0 4.71-3.87 7.825-9.77 7.825-5.94 0-10.35-3.15-10.79-8.658h5.21c.4 2.5 2.58 4.058 5.87 4.058 2.61 0 4.06-.98 4.06-2.646 0-1.01-.58-2.064-3.08-2.535l-4.02-.77c-4.88-.98-7.02-3.41-7.02-7.25 0-4.75 3.76-7.9 9.41-7.9 4.13 0 9.67 1.7 10.25 8.08zm16.7 17.1h-5.252V193.86h5.25v24.633zm34.326 0h-4.055l-12.92-14.96v14.96h-5.25V193.86h3.95l13.035 15.36v-15.36h5.25v24.633h-.014zm37.26-12.316a12.875 12.875 0 1 1-12.888-12.825 12.768 12.768 0 0 1 12.89 12.825zm-5.325 0a7.575 7.575 0 1 0-7.567 7.932 7.647 7.647 0 0 0 7.566-7.932z" fill="#369540"/><path d="M60.99 191.335c-1.44.876-2.883 1.75-4.307 2.648a34.872 34.872 0 0 0 4.308-2.648z" fill="#1f814c"/><path d="M225.533 34.66c.575-2.196 1.192-4.18 1.737-6.012a51.405 51.405 0 0 1 2.362-6.546 14.72 14.72 0 0 1 2.745-4.254 5.847 5.847 0 0 1 3.79-1.74q1.49-.132 1.688 2.112a16.828 16.828 0 0 1-.22 3.974q-.36 2.363-1.01 5.1T235.165 33c-.18.652-.46 1.345-.64 1.982q7.74.273 15.415.827c.53-2.74 1.075-5.52 1.415-8.236a61.21 61.21 0 0 0 .38-13.05 32.147 32.147 0 0 0-1.1-6.17 13.464 13.464 0 0 0-2.35-4.75 9.236 9.236 0 0 0-3.96-2.89 13.09 13.09 0 0 0-5.98-.64 18.908 18.908 0 0 0-8.25 2.62 26.09 26.09 0 0 0-6.63 5.76 39.684 39.684 0 0 0-5.16 8.09 78.73 78.73 0 0 0-3.86 9.53 79.622 79.622 0 0 0-2.388 8.727q6.735-.134 13.45-.046z" fill="#acc762"/><path d="M103.533 107.882l.91-10q.4-4.5.81-8.925t.622-9.21a2.99 2.99 0 0 0-1.833-2.4 11.445 11.445 0 0 0-5.43-.74 7.964 7.964 0 0 0-3.925 1.545A11.75 11.75 0 0 0 91.82 81.3a20.327 20.327 0 0 0-1.97 4.127 39.347 39.347 0 0 0-1.27 4.42 32.38 32.38 0 0 0-.656 3.984l-.272 2.88a169.425 169.425 0 0 1-1.7 19.74q8.565-3.39 17.382-6.38l.19-2.17zm142.744-20.337a5.49 5.49 0 0 1 2.95-1.84 1.652 1.652 0 0 1 1.584.795 4.963 4.963 0 0 1 .74 2.38 2.9 2.9 0 0 1-.29 1.536 8.9 8.9 0 0 1-1.057 1.638l-.033.04q7.095.6 14.133 1.483c.847-1.317 1.664-2.63 2.422-3.94a49.553 49.553 0 0 0 3.414-7.38 16.715 16.715 0 0 0 1.317-7.126 17.95 17.95 0 0 0-1.244-5.35 13.22 13.22 0 0 0-2.465-3.95 9.413 9.413 0 0 0-3.34-2.36 8.153 8.153 0 0 0-3.83-.6 21.38 21.38 0 0 0-6.91 1.72 21.162 21.162 0 0 0-5.09 3.14 41.246 41.246 0 0 0-4.59 4.94c-2.04 2.52-3.75 4.84-5.55 7.3-1.82 2.49-3.2 4.68-5.31 7.77l-2.29 3.25q6.36.196 12.69.62a17.115 17.115 0 0 1 2.77-4.04zm77.75 10.585q.4-4.475 1.024-11.816t.975-11.414q.345-4.07.624-7.262l.437-5.087a6.193 6.193 0 0 0 .082-1.49 3.3 3.3 0 0 0-1.734-2.85 6.7 6.7 0 0 0-3.74-.62 13.056 13.056 0 0 0-3.8.97 14.9 14.9 0 0 0-3.77 2.27 14.69 14.69 0 0 0-3.03 3.41 10.282 10.282 0 0 0-1.6 4.38l-3.32 26.71a41.59 41.59 0 0 1-.74 5.76l-.03.12q9.06 2.236 17.97 4.91c.2-2.71.41-5.39.62-7.96zm-33.05-10.49q.77-7.53 1.23-12.05a45.91 45.91 0 0 1 1.42-7.852 11.09 11.09 0 0 0 .415-2.014 9.2 9.2 0 0 0 .024-1.7 4.386 4.386 0 0 0-2.09-3.67 7.172 7.172 0 0 0-4.31-.86 12.247 12.247 0 0 0-5.74 2.163 11.007 11.007 0 0 0-4.2 5.2q-1.785 4.6-3.09 9.06a60.612 60.612 0 0 0-1.88 12.03l-.51 6.7q8.895 1.32 17.69 3.07l1.03-10.1zM209.81 46.365q-.888 4.77-1.282 8.953l-.66 7.067q-.6 8.382-.79 17.226c-.08 3.93-.1 7.72-.09 11.42q11.595-.4 23.09-.07l4.68-8.58c.35-.79 1.07-2.45 2.14-4.98s2.3-5.64 3.67-9.31 2.78-7.78 4.22-12.31 2.73-9.18 3.87-13.95c.48-2.01.9-4.02 1.28-6.02q-7.68-.554-15.41-.83c-.36 1.3-.73 2.57-1.1 3.8-.55 1.84-1.07 3.56-1.54 5.15s-.73 2.56-1.08 3.98c-.55 2.25-1.17 5.01-1.95 8.26s-1.62 6.72-2.51 10.4-1.79 7.42-2.69 11.2-1.73 7.28-2.49 10.5q-.105-8.6.17-17.52l.49-7.78c.18-2.77.35-5.58.54-8.44s.5-5.76.95-8.7.89-5.66 1.53-8.4c.21-.92.44-1.8.66-2.67q-6.705-.09-13.45.04c-.11.53-.22 1.06-.32 1.59l-1.88 10zm-74.458 54.458c.037-.378.074-.76.11-1.15l.92-9.484a49.706 49.706 0 0 0 .22-7.2c-.1-2.18-.214-3.9-.324-5.17a3.716 3.716 0 0 0-2.31-3.05 10.378 10.378 0 0 0-5.59-.78 12.316 12.316 0 0 0-5.34 1.63c-1.53.91-2.36 1.93-2.49 3.08l-3.03 26.86c2.8-.82 5.61-1.62 8.44-2.38 3.13-.84 6.27-1.64 9.4-2.39z" fill="#85b44f"/><path d="M207.097 90.983c.008 1.858.022 3.7.055 5.5.047 2.82.11 5.51.192 8.085-1.22 1.693-2.57 3.455-4.09 5.3a76.013 76.013 0 0 1-7.21 7.625 52.75 52.75 0 0 1-7.71 5.935 16.72 16.72 0 0 1-7.25 2.718 9.6 9.6 0 0 1-5.72-1.02 12.167 12.167 0 0 1-3.85-3.475 14.1 14.1 0 0 1-2.25-4.85 31.49 31.49 0 0 1-.92-5.22c-.1-1.12-.17-2.51-.23-4.18a34.537 34.537 0 0 1 .27-5.28 61.567 61.567 0 0 1 1.39-6.94c.08-.33.17-.63.25-.94q-8.955 1.26-17.91 2.96c-.43 1.91-.82 3.95-1.17 6.17a41.41 41.41 0 0 0-.56 9.87 35.818 35.818 0 0 0 1.34 7.06c-.29.23-.56.47-.85.69q-2.445 1.89-4.82 3.4a34.7 34.7 0 0 1-4.52 2.49 11.947 11.947 0 0 1-3.68 1.1 2.44 2.44 0 0 1-1.91-.51 4 4 0 0 1-1.11-1.81 14.828 14.828 0 0 1-.62-2.85c-.14-1.1-.27-2.3-.38-3.62a24.043 24.043 0 0 1 .16-3.95l.61-6.36.78-8.05c-3.13.75-6.27 1.55-9.4 2.39-2.84.76-5.65 1.55-8.45 2.37l-1.35 12.01a19.288 19.288 0 0 1-1.24 5.29 13.4 13.4 0 0 1-2.28 3.94 10.67 10.67 0 0 1-2.82 2.66 6.985 6.985 0 0 1-3.09 1.09 2.986 2.986 0 0 1-1.88-.42 4.386 4.386 0 0 1-1.4-1.41 8.168 8.168 0 0 1-.92-2.07 8.832 8.832 0 0 1-.47-2.47c0-.05.05-.75.18-2.12l.48-5.37c.16-1.75.36-3.98.6-6.65q-8.82 2.986-17.39 6.38c-.12.68-.23 1.33-.35 1.94a58.807 58.807 0 0 0-.17 14.2 25.66 25.66 0 0 0 1.55 7.32 13.057 13.057 0 0 0 2.89 4.58 8.776 8.776 0 0 0 3.82 2.28 12.3 12.3 0 0 0 4.39.39 16.3 16.3 0 0 0 5.69-1.65 27.817 27.817 0 0 0 5.62-3.66 45.037 45.037 0 0 0 5.3-5.24 60.062 60.062 0 0 0 4.81-6.45 46.237 46.237 0 0 0 2.12 5.63 18.33 18.33 0 0 0 2.66 4.26 10 10 0 0 0 3.455 2.62 9.158 9.158 0 0 0 4.57.64 23.946 23.946 0 0 0 5.51-1.22 50.292 50.292 0 0 0 5.99-2.47 65.363 65.363 0 0 0 6.03-3.35c1.99-1.24 3.85-2.52 5.6-3.83.6-.45 1.16-.9 1.72-1.36.51.62 1.05 1.22 1.61 1.79a24.385 24.385 0 0 0 8.78 5.66 25.9 25.9 0 0 0 11.6 1.39 23.79 23.79 0 0 0 7.21-1.8 38.094 38.094 0 0 0 6.67-3.62 49.78 49.78 0 0 0 6.01-4.8 69.11 69.11 0 0 0 5.21-5.4c1.272-1.47 2.493-3.01 3.692-4.6.06.86.12 1.66.19 2.39q.27 3.1.75 5.82a15.474 15.474 0 0 0 1.572 4.71 7.728 7.728 0 0 0 2.95 3.07 8.237 8.237 0 0 0 4.874.8 7.265 7.265 0 0 0 3.83-1.39 11.722 11.722 0 0 0 3.05-3.89l17.46-37.81c.294-.65.59-1.25.88-1.81q-6.33-.42-12.69-.61l-3.32 4.69 2.57-4.71q-11.5-.33-23.09.08zm138.228 1.457q-4.04 7.06-7.366 11.834c-1.34 1.92-2.6 3.625-3.8 5.164-.79 1.01-1.556 1.964-2.283 2.81a47.875 47.875 0 0 1-5.065 5.172 50.472 50.472 0 0 1-4.34 3.343c.34-5.12.68-10.007 1.04-14.708q-8.91-2.685-17.97-4.91a39.71 39.71 0 0 1-1.89 6.662 22.31 22.31 0 0 1-3.17 5.755 6.35 6.35 0 0 1-4.5 2.67 4.24 4.24 0 0 1-2.74-.584 5.84 5.84 0 0 1-1.87-1.977 10.142 10.142 0 0 1-1.14-2.89 21.86 21.86 0 0 1-.55-3.41 41.687 41.687 0 0 1 .15-7.81c.06-.57.12-1.19.19-1.85q-8.8-1.754-17.7-3.07l-.46 6.02a62.917 62.917 0 0 0-.08 7.93c-.66.93-1.34 1.85-2.05 2.76q-1.62 2.086-3.23 3.81a21.028 21.028 0 0 1-3.18 2.83 6.134 6.134 0 0 1-2.97 1.23 5.592 5.592 0 0 1-3.92-.77 4.74 4.74 0 0 1-1.55-3.57 14.143 14.143 0 0 1 .87-6.11 40.867 40.867 0 0 1 2.98-6.33c1.22-2.14 2.56-4.29 4.02-6.43.55-.82 1.08-1.63 1.61-2.45q-7.05-.884-14.14-1.48c-.46.59-1 1.24-1.63 1.98a18.18 18.18 0 0 0-1.99 2.6 78.573 78.573 0 0 0-4.56 8.11 48.956 48.956 0 0 0-2.47 6.87 30.358 30.358 0 0 0-1 5.52 25.35 25.35 0 0 0-.03 4.07 18.218 18.218 0 0 0 1.1 4.88 9.9 9.9 0 0 0 2.86 4.06 12.833 12.833 0 0 0 5.27 2.6 24.882 24.882 0 0 0 8.33.43 32.4 32.4 0 0 0 7.93-1.75 42.433 42.433 0 0 0 7.8-3.61 41.9 41.9 0 0 0 5.09-3.54 18.66 18.66 0 0 0 1.7 1.74 16.96 16.96 0 0 0 5.99 3.43 16.554 16.554 0 0 0 6.67.8 17.772 17.772 0 0 0 7.77-2.74 37.045 37.045 0 0 0 7.41-6.06l-.8 8.61q-4.08 4.246-6.97 7.88c-1.93 2.43-4.37 5.62-7.31 9.6a51.44 51.44 0 0 0-4.18 6.36l-.32.6c-1.13 2.07-1.98 3.7-2.52 4.84-.6 1.25-1.63 3.5-3.08 6.73q-3.9 8.67-2.7 16.05a16.36 16.36 0 0 0 2.48 6.66 13.08 13.08 0 0 0 4.52 4.23 18.61 18.61 0 0 0 5.78 2 26.19 26.19 0 0 0 6.68.23 22.913 22.913 0 0 0 7.99-2.11 20.52 20.52 0 0 0 6-4.24 27.94 27.94 0 0 0 4.31-5.92 36.746 36.746 0 0 0 2.93-6.79 55.31 55.31 0 0 0 1.68-7.35c.24-1.52.42-2.93.55-4.25.09-.98.17-1.92.2-2.79l.25-6.45q-.03-1.394.15-4.02.135-9.104.55-12.5t2.23-4.82q7.418-5.954 8.71-7.26 4.3-4.08 4.76-4.472 1.44-1.245 4.67-4.752c1.09-1.21 2.22-2.38 3.18-3.65a13.62 13.62 0 0 0 .9-1.34 38.65 38.65 0 0 0 2.84-4.662c3.62-6.73-4.73-15.305-4.73-15.305zm-38.752 69.622q-.792 3.885-1.326 6.225t-1.282 4.775a22.134 22.134 0 0 1-1.466 3.8 13.818 13.818 0 0 1-1.755 2.556 6.24 6.24 0 0 1-2.32 1.72 10.06 10.06 0 0 1-2.978.686q-4.623.405-2.9-6.527a80.718 80.718 0 0 1 6.21-16.362c.24-.477.484-.93.727-1.387a36.68 36.68 0 0 1 7.978-10.677c-.02.66-.074 2.17-.15 4.53s-.15 4.38-.206 6.06c-.03.78-.09 1.52-.17 2.24a23.24 23.24 0 0 1-.38 2.38z" fill="#369540"/><path d="M197.817 84.21a14.487 14.487 0 0 0-2.014-6.284 15.754 15.754 0 0 0-4.477-4.8 18.96 18.96 0 0 0-6.48-2.858 24.437 24.437 0 0 0-7.97-.538 21.5 21.5 0 0 0-8.51 2.476 26.174 26.174 0 0 0-6.74 5.25 32.615 32.615 0 0 0-5.04 7.26 47.68 47.68 0 0 0-3.37 8.452c-.36 1.247-.7 2.6-1.02 4.02q8.97-1.713 17.91-2.96a27.565 27.565 0 0 1 2.03-5.54 12.5 12.5 0 0 1 3.14-3.88 8.587 8.587 0 0 1 4.77-1.792 1.467 1.467 0 0 1 1.63.988 9.59 9.59 0 0 1 .6 2.773 14.608 14.608 0 0 1 .15 2.53 25.23 25.23 0 0 1-.45 3.464c-.17.86-.32 1.46-.35 1.84-.29 1.44.2 3.02 1.5 4.75q1.185 1.666 4.73 1.35a7.927 7.927 0 0 0 4.11-1.49 12.947 12.947 0 0 0 3.46-4.57 28.223 28.223 0 0 0 1.41-3.13 15.36 15.36 0 0 0 .76-2.53 16.22 16.22 0 0 0 .28-4.76z" fill="#85b44f"/><path d="M77.09 50.144c.573-3.57 1.136-7.187 1.99-10.7.89-3.686 1.923-7.8 4.58-10.64 2.36-2.53 5.564-4.712 9.266-3.933 2.5.52 2.695 3.25 2.43 5.35-.508 3.99-2.06 8.01-3.49 11.75a88.83 88.83 0 0 1-7.346 15.24q10.43-3.554 21.155-6.6c.32-.66.636-1.32.948-1.99 3.42-7.25 6.7-14.64 5.76-22.86a20 20 0 0 0-4.11-10.51 18.1 18.1 0 0 0-9.61-5.89 30.916 30.916 0 0 0-23.62 3.41c-6.77 4.16-11.23 11.61-13.61 19.04-2.57 8.09-3.03 16.38-3.39 24.79-.15 3.57-.18 7.16-.29 10.75q9.225-3.87 18.7-7.32a74.676 74.676 0 0 1 .66-9.92z" fill="#acc762"/><path d="M56.055 80.934c-.85 1.687-2.393 2.674-3.84 3.81-2.434 1.916-4.873 3.83-7.24 5.826-3.43 2.894-6.823 6-10 9.17a68.117 68.117 0 0 0-11.733 14.733c-2.537 4.524-2.616 9.364.3 13.73a19.13 19.13 0 0 0 5.29 5.318c7.51-12.73 16.03-26.15 28.57-34.47-.74 10.5-1.61 20.99-2.53 31.47q10.35-5.28 21.14-9.94l.36-6.36c.36-6.35.62-12.71 1.17-19.04l.56-6.56.15-1.77a2.06 2.06 0 0 1 .78-.91c.84-.82 1.71-1.62 2.58-2.41 5.58-5.06 9.99-11.04 14.54-17.02a84.692 84.692 0 0 0 9.53-15.9q-10.725 3.046-21.16 6.6a51.47 51.47 0 0 1-4.76 6.53 30.868 30.868 0 0 1-3.59 3.55c.07-1.83.13-3.66.2-5.49.02-.58.03-1.16.05-1.74q-9.48 3.45-18.7 7.32c-.1 3.08-.24 6.16-.58 9.22a12.658 12.658 0 0 1-1.13 4.36z" fill="#85b44f"/><path d="M76.4 61.786c-.104 2.867.106-2.865 0 0z" fill="#1f814c"/><path d="M155.503 137.646c-2.47 1.1-4.594 3.023-6.7 4.668a91.23 91.23 0 0 1-10.22 7.088 64.714 64.714 0 0 1-15.354 6.427 62.538 62.538 0 0 1-10.143 1.98 96.657 96.657 0 0 1-10.214.15c-.8-.01-1.724-.02-.113 0-9.53-.07-18.97-2.76-28.23-4.81-.86-.19-.57-.47-.51-1.35l.36-5.36.81-11.93c.09-1.27.11-2.53.15-3.8.08-2.77.44-5.51.59-8.26l.11-1.9q-10.785 4.65-21.14 9.94-.78 8.94-1.59 17.87l-.11 1.27c-.06.62-.27.42-.81.44-.83.03-1.66.07-2.48.11-2.07.1-4.15.23-6.22.36a98.955 98.955 0 0 0-12.5 1.51 63.747 63.747 0 0 0-19.51 6.87c-5.63 3.21-10.6 7.57-11.54 14.34-1.14 8.15 5.09 16.03 11.62 20.11 10.07 6.28 23.36 6.96 34.68 4.32a43.805 43.805 0 0 0 10.28-3.74c1.42-.9 2.87-1.77 4.31-2.65.57-.41 1.13-.84 1.67-1.29a24.317 24.317 0 0 0 6.44-7.85 22.013 22.013 0 0 0 1.85-8.15c.11-1.32-.05-4.46 1.33-5.25a4.813 4.813 0 0 1 2.91-.12c2.09.31 4.16.81 6.23 1.21 4.87.92 9.74 1.34 14.64 2.02.69.09 1.4.15 2.1.23 9.21.97 18.98.06 28.03-1.51 6.12-1.06 12.33-2.57 17.9-5.38a18.308 18.308 0 0 0 9.37-11.03c.07-.19.15-.38.21-.58a44.127 44.127 0 0 0 1.83-16zm-103.78 27.67c.017-.142.012-.1 0 .008-.425 3.894-.55 8.254-2.99 11.68-2.794 3.918-7.533 6.028-12.243 6.375a17.292 17.292 0 0 1-13.32-4.5c-1.367-1.34-2.6-3.11-2.363-5.13.426-3.57 4.838-5.39 7.738-6.41a57.287 57.287 0 0 1 23.272-2.91c-.043.48-.1.96-.155 1.44l.062-.57v.016zM344.983 26.033a13.2 13.2 0 1 1-13.2-12.94 13.14 13.14 0 0 1 13.2 12.94zm-2.953 0a10.292 10.292 0 1 0-10.334 10.16 10.34 10.34 0 0 0 10.334-10.16zm-7.9 1.563l3.213 4.168h-2.692l-2.952-3.908h-2.084v3.908h-2.084V19.78h5.035c2.605 0 4.6 1.65 4.6 4.082a4.18 4.18 0 0 1-3.038 3.738zm-1.737-1.737a2.158 2.158 0 0 0 2.432-2.085c0-1.216-.955-2-2.432-2h-2.868v4.082h2.866z" fill="#369540"/></symbol><symbol id="icon-logo-horisontal" viewBox="0 0 731 228"><style>.st0{fill:#1F814C;} .st1{fill:#ACC762;} .st2{fill:#85B44F;} .st3{fill:#369540;}</style><path class="st0" d="M87.8 187c-1.4.7-2.8 1.3-4.1 2 1.4-.5 2.8-1.2 4.1-2z"/><path class="st1" d="M250.7 58.6c.7-1.9 1.4-3.7 2.1-5.4.9-2.3 1.8-4.2 2.7-5.7.9-1.6 1.9-2.8 2.9-3.6s2.2-1.3 3.6-1.3c.9 0 1.4.7 1.4 2.1 0 1-.2 2.2-.5 3.6-.4 1.4-.8 2.9-1.4 4.6-.5 1.6-1.2 3.3-1.8 5.1-.2.6-.4 1.1-.7 1.7 4.7.6 9.3 1.3 13.9 2.1.7-2.4 1.3-4.9 1.9-7.3.9-4.2 1.4-8.2 1.4-11.8 0-2-.1-3.9-.5-5.7-.3-1.7-.9-3.3-1.7-4.5-.8-1.3-1.9-2.3-3.4-3-1.4-.7-3.2-1.1-5.4-1.1-2.8 0-5.4.5-7.7 1.7-2.4 1.1-4.5 2.7-6.5 4.7s-3.8 4.3-5.4 6.9c-1.6 2.6-3 5.4-4.3 8.3-1.1 2.5-2 5-2.8 7.7 4.1.1 8.1.4 12.2.9z"/><path class="st2" d="M133.7 114.7c.6-3.3 1.2-6.3 1.7-9s1-5.4 1.5-8c.5-2.7.9-5.4 1.3-8.3 0-.9-.5-1.7-1.5-2.3-1-.6-2.6-1-4.9-1.1-1.4 0-2.6.4-3.7 1.1-1.1.7-2.1 1.6-2.9 2.6-.8 1.1-1.5 2.3-2.1 3.6-.6 1.3-1.1 2.6-1.5 3.9s-.7 2.5-.9 3.6c-.2 1.1-.4 2-.5 2.6-1 7.6-2.1 13.5-3.2 17.8 5.4-1.6 10.8-3 16.3-4.3.1-.8.2-1.5.4-2.2zM265.2 108.3c1.2-1 2.1-1.4 2.8-1.4.6 0 1.1.3 1.4.9s.5 1.3.5 2.2c0 .5-.1.9-.4 1.4-.3.4-.6.9-1.1 1.4 4.3.8 8.5 1.6 12.7 2.5.9-1.1 1.7-2.3 2.5-3.4 1.3-1.8 2.5-4 3.7-6.4 1.2-2.5 1.8-4.6 1.8-6.4s-.2-3.5-.7-5-1.1-2.8-1.9-3.8-1.8-1.9-2.8-2.4c-1.1-.6-2.2-.9-3.4-.9-2.4 0-4.5.3-6.4 1s-3.6 1.5-4.9 2.4c-.9.6-2.5 2-4.6 4.1s-3.8 4.1-5.7 6.2c-1.9 2.1-3.3 4-5.5 6.6l-2.4 2.8c3.8.5 7.7 1 11.5 1.6 1-1.5 2-2.6 2.9-3.4zM335 124.5c.5-2.7 1.1-6.2 1.9-10.7.8-4.4 1.4-7.8 1.9-10.3.4-2.4.8-4.6 1.2-6.5.3-1.9.6-3.4.8-4.6.1-.5.2-1 .2-1.3 0-1.2-.4-2.2-1.3-2.7-.9-.6-2-.9-3.3-.9-1.1 0-2.3.2-3.5.6s-2.4 1-3.6 1.7c-1.2.8-2.2 1.7-3 2.8-.9 1.2-1.5 2.4-1.8 3.8l-5.3 24c-.2 1.4-.6 3.1-1.2 5.2v.1c5.4 1.9 10.7 3.9 15.9 6 .3-2.4.7-4.8 1.1-7.2zM305.8 112.2c.9-4.5 1.6-8.1 2.1-10.8.5-2.7 1.2-5.1 2-7 .3-.6.4-1.2.5-1.8.1-.6.2-1.1.2-1.5 0-1.6-.5-2.8-1.6-3.5-1.1-.8-2.3-1.1-3.8-1.1-1.8 0-3.6.5-5.4 1.5s-3.3 2.5-4.3 4.4c-1.3 2.7-2.5 5.3-3.6 8-1 2.6-2 6.2-2.7 10.8-.4 2.2-.7 4.2-1 6.1 5.3 1.3 10.6 2.7 15.8 4.3.5-2.7 1.1-5.7 1.8-9.4zM235.5 67.8c-.8 2.8-1.4 5.5-1.9 8s-.9 4.6-1.2 6.4c-.8 5-1.6 10.2-2.2 15.6-.4 3.6-.8 7-1 10.4 7 .4 14.1 1 21 1.9l5-7.4c.4-.7 1.2-2.1 2.4-4.4 1.2-2.2 2.6-4.9 4.1-8.2 1.6-3.2 3.2-6.8 4.9-10.8 1.7-4 3.3-8.1 4.7-12.4.6-1.8 1.2-3.6 1.7-5.4-4.6-.8-9.3-1.5-13.9-2.1-.4 1.1-.9 2.3-1.3 3.4-.7 1.6-1.3 3.1-1.8 4.6-.6 1.4-.9 2.3-1.3 3.5-.7 2-1.5 4.5-2.5 7.3-1 2.9-2 6-3.2 9.2-1.1 3.3-2.3 6.6-3.4 10-1.1 3.4-2.2 6.5-3.2 9.3.4-5.2 1-10.5 1.6-15.9.3-2.2.7-4.5 1.1-7 .4-2.5.8-5 1.2-7.6s.9-5.2 1.6-7.8c.7-2.6 1.3-5.1 2.1-7.5.3-.8.5-1.6.8-2.4-4.1-.4-8.1-.8-12.2-1.1-.1.5-.3.9-.4 1.4-1 3.2-1.9 6.2-2.7 9zM163.2 111c.1-.3.1-.7.2-1 .6-3.3 1.2-6.2 1.6-8.5.5-2.4.7-4.5.8-6.5s.1-3.6.1-4.7c0-1.2-.6-2.2-1.8-3s-2.9-1.2-5-1.2c-1.9 0-3.5.3-5 1s-2.3 1.6-2.5 2.6l-5 24.2c2.6-.5 5.2-1 7.9-1.4 2.9-.6 5.8-1.1 8.7-1.5z"/><path class="st3" d="M229.2 108.2c-.2 1.7-.3 3.4-.4 5-.2 2.6-.4 5-.5 7.4-1.2 1.4-2.6 2.9-4.2 4.5-2.3 2.3-4.7 4.4-7.2 6.3s-5 3.5-7.5 4.7c-2.5 1.3-4.8 1.9-6.8 1.9-2.1 0-3.8-.5-5.1-1.4s-2.4-2.1-3.2-3.5-1.4-2.9-1.6-4.6c-.3-1.7-.4-3.3-.4-4.8 0-1 .1-2.3.1-3.8.1-1.5.3-3.1.7-4.8.4-1.7 1-3.7 1.9-6.2.1-.3.2-.6.3-.8-5.5.3-11 .6-16.5 1.2-.6 1.7-1.1 3.5-1.6 5.5-.9 3.5-1.3 6.4-1.3 8.9 0 2.2.2 4.4.6 6.5-.3.2-.5.4-.8.6-1.6 1-3.1 1.9-4.7 2.7-1.5.8-3 1.4-4.3 1.9-1.4.5-2.5.7-3.4.7-.7 0-1.3-.2-1.7-.6-.4-.4-.7-1-.9-1.7-.2-.8-.3-1.6-.3-2.6v-3.3c0-.7.2-1.9.5-3.6.3-1.6.7-3.5 1.1-5.7.4-2 .8-4.4 1.4-7.3-2.9.4-5.8.9-8.7 1.4-2.6.4-5.3.9-7.9 1.4l-2.2 10.8c-.4 1.8-.9 3.4-1.6 4.7-.7 1.4-1.5 2.5-2.4 3.4-.9 1-1.8 1.7-2.8 2.2s-2 .7-2.9.7c-.6 0-1.2-.2-1.7-.5-.5-.4-.9-.8-1.2-1.4-.3-.6-.5-1.2-.7-2-.1-.7-.3-1.7-.2-2.3 0 0 .1-.7.3-1.9.2-1.2.5-2.8.9-4.8.3-1.6.7-3.6 1.1-6-5.5 1.3-11 2.8-16.3 4.3-.2.6-.3 1.2-.5 1.7-.8 3-1.3 7.3-1.4 12.9 0 2.7.3 5 .8 6.8s1.3 3.3 2.2 4.4c1 1.1 2 1.9 3.3 2.4 1.2.5 2.6.7 4 .7 1.7 0 3.5-.3 5.3-1s3.6-1.6 5.4-2.9c1.8-1.2 3.5-2.7 5.3-4.3 1.7-1.7 3.4-3.5 4.9-5.5.4 1.9.9 3.7 1.5 5.3s1.2 3 2.1 4.1c.8 1.1 1.8 2 2.9 2.7 1.1.6 2.5 1 4.1 1s3.3-.2 5.1-.6c1.8-.4 3.7-1 5.7-1.7 1.9-.7 3.9-1.6 5.8-2.5 1.9-1 3.7-2 5.4-3 .6-.4 1.1-.7 1.7-1.1.4.6.8 1.2 1.3 1.8 2 2.5 4.5 4.4 7.5 5.9s6.5 2.2 10.4 2.2c2.3 0 4.5-.3 6.7-1s4.3-1.6 6.4-2.7c2-1.1 4-2.4 5.9-3.9 1.9-1.4 3.6-2.9 5.2-4.5 1.3-1.2 2.5-2.5 3.7-3.9v2.2c0 1.9.1 3.7.2 5.3.1 1.7.5 3.1 1 4.4.5 1.3 1.4 2.3 2.4 3 1.1.8 2.5 1.1 4.4 1.1 1.4 0 2.6-.3 3.6-.9 1-.6 2.1-1.7 3.1-3.3l19.1-32.9c.3-.6.6-1.1 1-1.6-3.8-.6-7.6-1.2-11.5-1.6l-3.4 4 2.7-4.1c-7.2-1-14.2-1.6-21.2-2zM354.7 121.2c-2.8 4.1-5.4 7.4-7.7 10.1-1.4 1.6-2.7 3.1-3.9 4.4-.8.9-1.6 1.7-2.3 2.4-1.9 1.8-3.5 3.2-5 4.3s-2.9 2-4.2 2.7c.7-4.6 1.5-9 2.2-13.3-5.2-2.1-10.6-4.1-15.9-6-.6 2-1.3 4-2.3 5.9s-2.1 3.6-3.4 5-2.7 2.1-4.3 2c-1 0-1.8-.3-2.4-.8s-1.2-1.2-1.5-2c-.4-.8-.6-1.7-.8-2.7-.1-1-.2-2.1-.2-3.1 0-2.1.3-4.4.8-7.1.1-.5.2-1.1.3-1.7-5.2-1.6-10.5-3-15.8-4.3-.3 2-.7 3.8-.9 5.4-.4 2.2-.6 4.6-.7 7.2-.7.8-1.4 1.6-2.1 2.3-1.1 1.2-2.2 2.2-3.3 3.2-1.1 1-2.1 1.7-3.1 2.3s-1.9.9-2.8.9c-1.6 0-2.8-.4-3.5-1-.7-.7-1.1-1.8-1.1-3.4 0-1.8.5-3.7 1.3-5.5.9-1.8 1.9-3.7 3.2-5.5 1.3-1.8 2.7-3.7 4.2-5.5.6-.7 1.1-1.4 1.7-2.1-4.2-.9-8.5-1.8-12.7-2.5-.5.5-1 1-1.6 1.7-.6.6-1.4 1.3-2 2.2-1.9 2.6-3.6 4.8-4.8 7-1.2 2.2-2.2 4.2-2.8 6-.7 1.8-1.1 3.5-1.4 4.9-.2 1.5-.4 2.7-.4 3.7 0 1.6.2 3.1.6 4.5.4 1.5 1.1 2.8 2.3 3.9 1.1 1.2 2.6 2.1 4.6 2.8 1.9.7 4.5 1.1 7.5 1.1 2.4 0 4.8-.3 7.4-.9 2.6-.6 5-1.5 7.4-2.6 1.7-.8 3.4-1.8 4.9-2.8.4.6.9 1.2 1.4 1.7 1.5 1.6 3.2 2.8 5.2 3.6 1.9.8 3.9 1.3 6 1.3 2.4 0 4.8-.6 7.3-1.8s4.9-2.9 7.3-4.9l-1.5 7.8c-2.7 2.3-5 4.5-7 6.6-2 2-4.5 4.7-7.5 8.1-1.5 1.6-3 3.4-4.3 5.4-.1.2-.2.3-.3.5-1.2 1.8-2.1 3.2-2.7 4.2-.6 1.1-1.8 3-3.4 5.9-2.9 5-4.1 9.8-3.8 14.4.2 2.4.7 4.5 1.7 6.3s2.2 3.2 3.8 4.2c1.5 1 3.2 1.8 5.1 2.3s3.9.8 6.1.8c2.7 0 5.2-.4 7.4-1.2 2.3-.8 4.2-2 5.8-3.3 1.6-1.4 3.1-3.1 4.4-5 1.3-2 2.4-3.9 3.2-5.9.8-2 1.5-4.2 2.2-6.5.4-1.4.6-2.6.9-3.8.2-.9.3-1.7.4-2.5.2-1.9.5-3.8.8-5.8.1-.9.2-2.1.5-3.6.6-5.5 1.1-9.3 1.6-11.3.4-2 1.3-3.4 2.4-4.2 4.8-3.2 7.7-5.1 8.5-5.9 2.8-2.2 4.4-3.4 4.7-3.7.9-.7 2.5-2 4.6-3.9 1.1-1 2.2-2 3.2-3 .3-.4.6-.7.9-1.1.2-.3 1-1 3-4 3.5-6.3-3.4-14.8-3.4-14.8zm-41.1 60c-.7 2.3-1.3 4.2-1.7 5.5-.5 1.4-1 2.8-1.6 4.2s-1.1 2.5-1.7 3.3c-.5.8-1.1 1.5-1.8 2.2-.7.7-1.4 1.1-2.3 1.4-.8.3-1.7.4-2.8.4-2.8 0-3.5-2.1-2.1-6.2 1.7-4.9 4.1-9.7 7-14.3.3-.4.5-.8.8-1.2 2.7-4.1 5.4-7.1 8.2-9-.1.6-.3 2-.5 4.1-.3 2.1-.5 4-.7 5.5-.1.7-.2 1.4-.3 2-.1.7-.3 1.4-.5 2.1z"/><path class="st2" d="M221.3 101.2c0-2.1-.4-4.1-1.3-5.9-.9-1.8-2.1-3.4-3.7-4.7-1.6-1.3-3.4-2.4-5.7-3.1-2.2-.8-4.6-1.2-7.2-1.2-2.9 0-5.5.5-8 1.5-2.4 1-4.6 2.4-6.6 4.2-2 1.8-3.7 3.8-5.2 6.2-1.5 2.3-2.8 4.8-3.8 7.4-.4 1.1-.9 2.3-1.3 3.6 5.5-.5 11-.9 16.5-1.2.8-2 1.5-3.7 2.3-4.9.9-1.3 1.9-2.4 3.2-3.3 1.2-.8 2.7-1.2 4.5-1.2.7 0 1.2.4 1.4 1 .2.7.3 1.5.3 2.6 0 1.2 0 1.9-.1 2.3-.2 1.3-.5 2.3-.7 3.1-.2.8-.4 1.3-.5 1.6-.4 1.3-.1 2.8 1 4.4.6 1.1 2 1.6 4.2 1.6 1.4 0 2.7-.3 3.9-1 1.1-.7 2.3-2 3.5-3.9.6-1 1.1-1.9 1.6-2.7.4-.8.7-1.6.9-2.2.6-1.3.8-2.7.8-4.2z"/><path class="st1" d="M114.4 60c.8-3.2 1.6-6.4 2.7-9.6 1.1-3.3 2.4-6.9 5.1-9.3 2.4-2.1 5.5-3.8 8.8-2.8 2.2.7 2.2 3.2 1.8 5.1-.8 3.6-2.5 7.1-4.2 10.4-2.2 4.6-4.8 9.1-8 13.2 6.5-1.6 13.1-3 19.8-4.2.3-.6.7-1.1 1-1.7 3.7-6.3 7.3-12.7 7.2-20.3-.1-3.5-.9-7-2.8-9.9-2-3-4.9-4.9-8.2-6.2-6.9-2.6-15.2-2.2-21.8 1.1-6.5 3.2-11.2 9.6-14 16.2-3 7.1-4.1 14.6-5.2 22.2-.4 3.2-.8 6.5-1.2 9.8 5.8-1.8 11.7-3.5 17.6-5.1.3-2.9.7-5.9 1.4-8.9z"/><path class="st2" d="M92.7 86.3c-.9 1.5-2.4 2.2-3.8 3.1-2.4 1.5-4.8 3.1-7.1 4.7-3.4 2.3-6.7 4.9-9.9 7.5-4.5 3.7-8.6 7.6-11.9 12.4-2.7 3.9-3.2 8.3-.9 12.5 1.1 2 2.6 3.9 4.4 5.3 7.9-10.9 16.8-22.4 28.9-28.9-1.6 9.5-3.2 18.9-5 28.4 6.6-2.6 13.3-5 20.1-7.3.3-1.9.6-3.8.9-5.8.9-5.7 1.6-11.5 2.7-17.2.4-2 .7-3.9 1.1-5.9.1-.5.2-1.1.3-1.6.1-.3.5-.6.8-.8.8-.7 1.7-1.3 2.6-2 5.5-4.1 10-9.2 14.7-14.2 3.9-4.1 7.1-8.8 10-13.6-6.7 1.2-13.3 2.6-19.8 4.2-1.5 2-3.1 3.8-4.9 5.5-1.1 1.1-2.3 2.1-3.6 2.9.2-1.7.4-3.3.6-5 .1-.5.1-1.1.2-1.6-5.9 1.6-11.8 3.2-17.6 5.1-.3 2.8-.7 5.6-1.3 8.3-.4 1.4-.8 2.8-1.5 4z"/><path class="st0" d="M112.8 70.6c-.4 2.6.3-2.6 0 0z"/><path class="st3" d="M178.3 146.2c-2.3.8-4.4 2.4-6.5 3.7-3.2 2-6.4 4-9.9 5.6-4.6 2.1-9.5 3.7-14.5 4.5-3.1.5-6.3.9-9.4.9-3.1 0-6.2-.4-9.3-.7-.7-.1-1.6-.2-.1 0-8.7-.9-17-4.1-25.3-6.8-.8-.2-.5-.5-.4-1.3.3-1.6.5-3.2.8-4.8.6-3.6 1.2-7.2 1.7-10.8.2-1.1.3-2.3.5-3.4.3-2.5.9-5 1.2-7.5.1-.6.2-1.1.3-1.7-6.8 2.2-13.5 4.6-20.1 7.3-1 5.4-2 10.7-3 16.1-.1.4-.1.8-.2 1.2-.1.6-.3.4-.8.3-.8 0-1.5-.1-2.3-.1-1.9-.1-3.8-.1-5.7-.2-3.8-.1-7.7-.1-11.5.3-6.3.6-12.6 2-18.3 4.6-5.4 2.4-10.3 6-11.7 12.1-1.7 7.3 3.3 15 8.9 19.3 8.6 6.6 20.6 8.3 31.2 6.9 3.3-.5 6.6-1.3 9.7-2.5 1.4-.7 2.8-1.4 4.1-2 .6-.3 1.1-.7 1.6-1 2.5-1.7 4.9-3.9 6.5-6.6 1.4-2.2 1.9-4.7 2.4-7.3.2-1.2.3-4.1 1.7-4.7.8-.4 1.9-.1 2.7.1 1.9.5 3.7 1.1 5.6 1.6 4.3 1.3 8.7 2 13.1 3.1.6.1 1.3.3 1.9.4 8.3 1.7 17.3 1.7 25.6 1 5.7-.4 11.4-1.3 16.7-3.4 4.5-1.8 7.5-4.9 9.5-9.2.1-.2.2-.3.2-.5 2-4.6 2.9-9.6 3.1-14.5zm-96.7 16.4c0-.1 0-.1 0 0-.7 3.5-1.2 7.5-3.7 10.4-2.9 3.3-7.4 4.8-11.7 4.8-4.4-.1-8.9-1.8-11.7-5.2-1.1-1.3-2.1-3-1.7-4.9.7-3.2 4.9-4.5 7.6-5.2 6.8-1.7 14.5-1.9 21.4-.7-.1.4-.2.9-.3 1.3 0-.2 0-.3.1-.5zM398.1 125.9h14.4c-1.8 13.6-13.6 22.9-28.2 22.9-17.3 0-30.5-13-30.5-30.1 0-17.2 13.3-30.2 30.5-30.2 14.6 0 26.4 9.4 28.2 22.9h-14.4c-1.3-6.1-6.7-10.1-13.9-10.1-10 0-16.6 7.7-16.6 17.4s6.6 17.4 16.6 17.4c7.2 0 12.6-4 13.9-10.2zM478.4 147.4h-14v-4c-4.7 3.4-10.7 5.4-17.6 5.4-16.1 0-29-13.4-29-30.1 0-16.8 12.9-30.2 29-30.2 6.9 0 12.9 1.9 17.6 5.4v-4h14v57.5zm-14-19v-19.6c-4-6-9.6-8.2-15.6-8.2-9.9 0-17 8.4-17 18 0 9.5 7.2 17.9 17 17.9 6 .1 11.6-2.1 15.6-8.1zM499.1 128c1.2 6.8 6.3 9.7 14.1 9.7 6.8 0 11.6-2.4 11.6-6.3 0-3-2.4-5.2-6.9-6.1l-12.5-2.1c-8.8-1.6-17-6.1-17-16.6 0-11.6 9.9-18.5 24.2-18.5 9.9 0 24.1 3.4 25.4 19.1l-13 .1c-.5-5.8-5.8-8.4-12.4-8.4-6.8 0-10.3 2.8-10.3 6.2 0 2.8 1.9 5.5 8.2 6.6l10.7 1.7c8.8 1.6 17.2 5.5 17.2 16.7 0 12.3-10.8 19-25.3 19-13.1 0-25.3-5.5-26.7-21.3l12.7.2zM546.2 69c0-5 3.9-8.6 8.8-8.6s8.8 3.7 8.8 8.6c0 4.7-3.9 8.4-8.8 8.4s-8.8-3.6-8.8-8.4zm15.9 78.4h-14V89.8h14v57.6zM631.7 115.6v31.8h-14v-30.9c0-10.1-5.4-15.7-14.1-15.7-5 0-10.5 2.9-14.8 8.3v38.3h-14.1V89.8h14.1v4.7c5-4.1 10.8-6.6 17.8-6.6 15 .1 25.1 11.1 25.1 27.7zM700.1 118.7c0 17.5-13.1 30.5-30.5 30.5-17.5 0-30.7-13-30.7-30.5 0-17.4 13.1-30.2 30.7-30.2 17.3 0 30.5 12.8 30.5 30.2zm-14 0c0-9.7-6.7-17.4-16.6-17.4-10 0-16.7 7.7-16.7 17.4 0 9.9 6.7 17.8 16.7 17.8 9.9-.1 16.6-8 16.6-17.8z"/><g><path class="st3" d="M721 69c0 8.5-7 14.8-15.2 14.8-8.3 0-15.2-6.3-15.2-14.8s7-14.9 15.2-14.9c8.2.1 15.2 6.5 15.2 14.9zm-3.4 0c0-6.6-5.5-11.8-11.9-11.8-6.3 0-11.8 5.2-11.8 11.8 0 6.6 5.5 11.7 11.8 11.7 6.4 0 11.9-5.1 11.9-11.7zm-9.1 1.8l3.7 4.8h-3.1l-3.4-4.5h-2.4v4.5h-2.4V61.8h5.8c3 0 5.3 1.9 5.3 4.7-.2 2.1-1.5 3.7-3.5 4.3zm-2-2c1.6 0 2.8-.9 2.8-2.4 0-1.4-1.1-2.3-2.8-2.3h-3.3v4.7h3.3z"/></g></symbol><symbol id="icon-logo-rainbow" viewBox="0 0 351 220"><g fill="#86b652"><path d="M106.137 208.53h5.36c-1.016 6.303-5.758 10.47-12.13 10.47-7.17 0-12.857-5.362-12.857-12.823 0-7.463 5.686-12.824 12.856-12.824 6.373 0 11.115 4.164 12.13 10.47h-5.36c-.87-3.516-3.222-5.472-6.77-5.472-4.383 0-7.57 3.152-7.57 7.827 0 4.67 3.187 7.824 7.57 7.824 3.548 0 5.9-1.955 6.77-5.47zM126.85 213.747l-1.918 4.745h-5.578l10.61-24.778h4.924l10.574 24.78h-5.54l-1.92-4.747H126.85zm5.54-13.764l-3.62 9.02h7.276l-3.656-9.02zM174.213 201.394h-5.18c-.325-2.172-1.7-3.62-4.67-3.62-2.568 0-4.27 1.084-4.27 3.005 0 1.665 1.23 2.39 3.474 2.825l3.04.615c4.71 1.014 7.498 2.826 7.498 6.955 0 4.71-3.876 7.825-9.777 7.825-5.937 0-10.356-3.152-10.79-8.66h5.212c.4 2.503 2.573 4.06 5.868 4.06 2.605 0 4.056-.98 4.056-2.646 0-1.012-.58-2.065-3.08-2.535l-4.02-.763c-4.887-.976-7.02-3.406-7.02-7.246 0-4.743 3.763-7.896 9.412-7.896 4.127 0 9.668 1.704 10.247 8.08zM190.908 218.493h-5.25V193.86h5.25v24.632zM225.234 218.493h-4.054l-12.93-14.96v14.96H203V193.86h3.95l13.033 15.36v-15.36h5.25v24.632zM262.498 206.177c0 7.136-5.686 12.823-12.892 12.823-7.17 0-12.856-5.687-12.856-12.823 0-7.137 5.685-12.824 12.856-12.824 7.206 0 12.892 5.687 12.892 12.824zm-5.326 0c0-4.35-3.183-7.935-7.566-7.935-4.346 0-7.568 3.585-7.568 7.935 0 4.346 3.222 7.933 7.568 7.933 4.383 0 7.566-3.588 7.566-7.933z"/></g><path d="M292.59 175.296c-1.153 4.62-.186 6.797 2.896 6.527 1.122-.098 2.114-.33 2.976-.685.865-.357 1.638-.935 2.322-1.72.683-.792 1.268-1.644 1.753-2.557.484-.912.975-2.177 1.467-3.8.495-1.623.92-3.212 1.278-4.774.357-1.56.798-3.635 1.325-6.224.162-.75.283-1.548.376-2.38-2.475-.742-4.96-1.454-7.456-2.134-.243.456-.487.91-.727 1.387-2.735 5.416-4.805 10.87-6.21 16.36z" fill="none"/><path d="M51.76 165.314c0 .004 0 .007-.002.01.012-.11.016-.15 0-.01z" fill="#845e9c"/><path d="M225.596 34.68c.575-2.194 1.174-4.218 1.72-6.052.753-2.554 1.54-4.737 2.36-6.546.824-1.81 1.736-3.226 2.746-4.254 1.01-1.028 2.273-1.608 3.788-1.74.995-.088 1.558.616 1.69 2.11.093 1.077.02 2.4-.226 3.976-.242 1.574-.58 3.277-1.016 5.104-.434 1.828-.92 3.73-1.46 5.707-.18.653-.36 1.285-.54 1.923 5.153.183 10.29.462 15.41.836.527-2.74.974-5.47 1.322-8.185.6-4.7.726-9.046.376-13.045-.195-2.234-.563-4.286-1.102-6.163-.54-1.874-1.326-3.457-2.358-4.75-1.03-1.292-2.35-2.255-3.96-2.887-1.608-.634-3.603-.846-5.984-.638-3.04.266-5.79 1.143-8.25 2.626-2.464 1.484-4.674 3.402-6.635 5.757-1.96 2.355-3.68 5.055-5.157 8.095-1.477 3.04-2.765 6.218-3.866 9.53-.933 2.81-1.695 5.69-2.304 8.633 4.49-.084 8.974-.1 13.446-.038z" fill="#c63443"/><path d="M103.687 107.843c.332-3.67.636-7.002.908-9.998.272-2.997.54-5.974.81-8.925.27-2.954.48-6.023.624-9.212-.09-1.01-.7-1.81-1.835-2.4-1.135-.59-2.944-.837-5.43-.74-1.492.18-2.8.694-3.925 1.545-1.126.852-2.082 1.9-2.866 3.147-.786 1.246-1.442 2.62-1.97 4.127-.528 1.506-.952 2.978-1.273 4.42-.32 1.44-.54 2.77-.653 3.984l-.272 2.876c-.337 8.365-.904 14.942-1.7 19.734 5.712-2.263 11.507-4.392 17.384-6.38.062-.698.128-1.418.197-2.177zM246.43 87.504c1.17-1.157 2.15-1.77 2.947-1.84.653-.056 1.183.21 1.587.796.402.59.65 1.382.738 2.38.046.524-.05 1.037-.29 1.536-.24.5-.59 1.047-1.057 1.638l-.034.04c4.73.403 9.442.896 14.134 1.483.847-1.316 1.664-2.63 2.423-3.94 1.226-2.12 2.363-4.58 3.414-7.38 1.05-2.8 1.49-5.175 1.32-7.126-.175-1.994-.59-3.78-1.245-5.352-.656-1.57-1.478-2.89-2.466-3.954-.987-1.062-2.105-1.853-3.348-2.367-1.245-.514-2.523-.714-3.83-.6-2.57.226-4.874.8-6.91 1.72-2.038.92-3.736 1.967-5.09 3.14-.878.75-2.564 2.442-4.594 4.94-2.045 2.518-3.75 4.84-5.55 7.297-1.822 2.484-3.205 4.675-5.312 7.772l-2.296 3.245c4.24.133 8.472.337 12.69.617.925-1.776 1.85-3.125 2.77-4.043zM324.18 98.09c.266-2.983.607-6.92 1.023-11.816.415-4.895.74-8.7.974-11.414.232-2.713.442-5.134.625-7.262.182-2.128.33-3.824.438-5.087.09-.573.118-1.07.082-1.492-.118-1.355-.697-2.306-1.733-2.853-1.04-.544-2.286-.754-3.736-.627-1.216.106-2.484.428-3.803.968-1.32.54-2.573 1.297-3.763 2.27-1.187.977-2.194 2.113-3.025 3.41-.873 1.35-1.402 2.807-1.597 4.378l-3.32 26.706c-.055 1.522-.302 3.44-.734 5.754l-.024.12c6.04 1.484 12.03 3.12 17.97 4.91.205-2.716.412-5.388.624-7.965zM291.13 87.6c.513-5.02.926-9.036 1.232-12.05.308-3.01.78-5.63 1.417-7.852.214-.725.352-1.396.415-2.014.06-.618.07-1.185.024-1.7-.153-1.73-.85-2.952-2.09-3.668-1.237-.716-2.673-1.003-4.305-.86-1.917.167-3.828.89-5.742 2.163-1.91 1.274-3.313 3.008-4.2 5.205-1.192 3.07-2.22 6.093-3.09 9.064-.87 2.97-1.496 6.983-1.883 12.03-.184 2.423-.355 4.654-.512 6.705 5.934.88 11.835 1.902 17.697 3.07.275-2.693.62-6.05 1.035-10.094zM209.963 46.325c-.593 3.18-1.022 6.164-1.284 8.953l-.67 7.067c-.403 5.588-.666 11.33-.786 17.226-.08 3.924-.11 7.72-.093 11.413 7.727-.275 15.427-.298 23.09-.077l4.674-8.578c.353-.79 1.068-2.452 2.14-4.987 1.073-2.534 2.295-5.64 3.67-9.314 1.37-3.675 2.78-7.78 4.217-12.314 1.442-4.533 2.73-9.184 3.865-13.954.48-2.01.9-4.015 1.283-6.014-5.12-.374-10.257-.653-15.41-.836-.365 1.295-.73 2.57-1.103 3.8-.552 1.84-1.07 3.555-1.545 5.15-.48 1.597-.73 2.556-1.08 3.98-.557 2.25-1.17 5.01-1.955 8.258l-2.515 10.398c-.89 3.686-1.79 7.42-2.695 11.2-.906 3.784-1.736 7.284-2.49 10.504-.076-5.734-.022-11.576.164-17.527.15-2.416.313-5.008.487-7.776.175-2.767.35-5.58.533-8.44.186-2.86.5-5.762.95-8.707.453-2.943.888-5.662 1.523-8.4.214-.92.437-1.803.663-2.667-4.472-.06-8.955-.046-13.446.038-.11.53-.224 1.056-.322 1.59-.653 3.5-1.275 6.84-1.865 10.017zM135.505 100.782l.11-1.15.92-9.483c.253-2.614.327-5.01.22-7.192-.106-2.18-.214-3.902-.324-5.164-.114-1.308-.883-2.324-2.31-3.05-1.428-.72-3.292-.982-5.59-.78-2.03.177-3.812.723-5.345 1.633-1.534.91-2.364 1.938-2.492 3.08l-3.03 26.864c2.798-.82 5.612-1.614 8.443-2.373 3.132-.84 6.265-1.633 9.4-2.385z" fill="#eec44e"/><path d="M207.13 90.983c.008 1.858.023 3.697.055 5.496.048 2.82.113 5.512.193 8.086-1.213 1.692-2.565 3.455-4.086 5.303-2.256 2.74-4.658 5.28-7.206 7.622-2.55 2.342-5.118 4.32-7.705 5.935-2.59 1.616-5.004 2.522-7.245 2.72-2.28.198-4.183-.14-5.714-1.02-1.53-.878-2.812-2.037-3.85-3.476-1.042-1.438-1.792-3.056-2.254-4.853-.462-1.796-.766-3.535-.913-5.217-.097-1.12-.174-2.515-.225-4.183-.052-1.665.04-3.43.275-5.286.237-1.856.7-4.168 1.396-6.938.083-.333.17-.63.257-.945-5.965.834-11.934 1.82-17.906 2.96-.43 1.907-.823 3.95-1.17 6.167-.61 3.868-.795 7.157-.558 9.865.213 2.433.68 4.777 1.348 7.054-.286.227-.56.462-.85.686-1.632 1.252-3.24 2.385-4.82 3.397-1.585 1.015-3.088 1.845-4.514 2.49-1.426.643-2.655 1.01-3.68 1.1-.81.07-1.445-.098-1.91-.507-.462-.407-.83-1.013-1.104-1.817-.273-.802-.48-1.754-.615-2.853-.138-1.098-.263-2.304-.378-3.62-.073-.812-.02-2.13.157-3.948l.618-6.367.78-8.053c-3.134.752-6.267 1.546-9.4 2.385-2.83.76-5.644 1.553-8.44 2.374l-1.355 12.008c-.204 1.985-.618 3.746-1.24 5.286-.616 1.587-1.375 2.902-2.277 3.94-.845 1.127-1.785 2.01-2.813 2.653-1.03.642-2.063 1.008-3.093 1.097-.704.06-1.33-.078-1.88-.416-.55-.34-1.014-.813-1.4-1.41-.382-.597-.69-1.288-.922-2.07-.234-.78-.5-1.826-.465-2.473.002-.048.055-.754.18-2.12.122-1.365.285-3.155.485-5.37.16-1.755.36-3.976.604-6.646-5.878 1.988-11.672 4.117-17.384 6.38-.112.68-.23 1.324-.35 1.932-.6 3.346-.658 8.083-.17 14.205.256 2.94.774 5.38 1.552 7.312.777 1.93 1.745 3.46 2.897 4.58 1.153 1.126 2.427 1.885 3.822 2.28 1.394.397 2.86.526 4.394.39 1.87-.163 3.765-.71 5.687-1.648 1.922-.933 3.795-2.153 5.62-3.66 1.822-1.51 3.59-3.255 5.302-5.24 1.71-1.984 3.313-4.134 4.806-6.448.645 2.08 1.353 3.956 2.124 5.628.77 1.673 1.66 3.094 2.662 4.26 1.004 1.165 2.157 2.038 3.457 2.62 1.3.584 2.82.798 4.566.646 1.713-.15 3.553-.553 5.516-1.215 1.964-.66 3.962-1.482 5.992-2.476 2.032-.99 4.04-2.108 6.026-3.35 1.985-1.242 3.85-2.52 5.596-3.833.603-.455 1.16-.905 1.726-1.357.51.62 1.042 1.223 1.606 1.793 2.44 2.47 5.368 4.36 8.774 5.66 3.406 1.3 7.273 1.764 11.6 1.385 2.467-.216 4.87-.814 7.208-1.797 2.337-.98 4.56-2.188 6.67-3.62 2.113-1.433 4.114-3.03 6.006-4.798 1.894-1.766 3.63-3.568 5.212-5.4 1.275-1.467 2.497-3.016 3.694-4.603.062.863.124 1.664.188 2.397.18 2.067.432 4.006.756 5.816.323 1.81.848 3.382 1.577 4.71.73 1.335 1.712 2.356 2.95 3.068 1.24.71 2.865.978 4.87.802 1.496-.13 2.774-.593 3.834-1.388 1.06-.793 2.078-2.09 3.05-3.887l17.45-37.805c.294-.648.588-1.25.882-1.813-4.218-.28-8.45-.484-12.69-.616l-3.315 4.687 2.566-4.71c-7.663-.222-15.363-.2-23.09.076zM345.36 92.442c-2.694 4.705-5.15 8.65-7.367 11.83-1.338 1.92-2.598 3.626-3.797 5.166-.788 1.01-1.556 1.963-2.283 2.81-1.84 2.137-3.527 3.86-5.065 5.172-1.54 1.312-2.982 2.426-4.332 3.343.337-5.12.684-10.006 1.04-14.71-5.94-1.787-11.93-3.424-17.97-4.91-.433 2.274-1.06 4.495-1.888 6.664-.844 2.21-1.898 4.127-3.167 5.754-1.27 1.63-2.77 2.52-4.496 2.67-1.074.095-1.986-.1-2.734-.583-.75-.48-1.37-1.138-1.868-1.976-.495-.836-.875-1.8-1.136-2.897-.26-1.096-.442-2.233-.545-3.416-.198-2.266-.147-4.87.155-7.813.06-.573.122-1.196.19-1.848-5.862-1.17-11.763-2.192-17.697-3.07l-.463 6.022c-.19 2.48-.213 5.126-.082 7.93-.663.928-1.343 1.85-2.052 2.76-1.077 1.39-2.156 2.66-3.232 3.808-1.076 1.15-2.135 2.09-3.175 2.83-1.043.737-2.03 1.148-2.964 1.23-1.728.15-3.036-.106-3.915-.77-.885-.668-1.4-1.857-1.55-3.57-.174-1.997.12-4.036.876-6.116.763-2.08 1.754-4.19 2.98-6.333 1.223-2.145 2.565-4.288 4.025-6.43.56-.817 1.084-1.634 1.61-2.45-4.693-.587-9.404-1.08-14.133-1.483-.46.584-1 1.24-1.626 1.975-.64.75-1.355 1.54-1.99 2.596-1.79 2.985-3.46 5.596-4.558 8.11-1.098 2.516-1.922 4.804-2.472 6.864-.55 2.06-.882 3.9-1 5.515-.117 1.616-.127 2.97-.03 4.065.148 1.696.51 3.32 1.097 4.872.58 1.55 1.534 2.905 2.86 4.064 1.323 1.155 3.083 2.02 5.276 2.596 2.19.575 4.967.718 8.33.423 2.57-.225 5.213-.806 7.932-1.748 2.718-.943 5.318-2.15 7.803-3.62 1.81-1.072 3.506-2.253 5.096-3.54.538.62 1.096 1.215 1.7 1.744 1.787 1.564 3.78 2.708 5.985 3.432 2.204.727 4.428.99 6.672.795 2.568-.224 5.158-1.14 7.773-2.742 2.612-1.603 5.083-3.626 7.412-6.067l-.8 8.608c-2.72 2.824-5.044 5.45-6.972 7.877-1.93 2.428-4.37 5.625-7.315 9.6-1.48 1.917-2.872 4.035-4.173 6.36-.117.212-.214.395-.324.597-1.128 2.07-1.976 3.7-2.522 4.84-.594 1.25-1.624 3.493-3.08 6.724-2.602 5.78-3.5 11.127-2.694 16.044.415 2.596 1.243 4.813 2.486 6.66 1.24 1.842 2.75 3.248 4.526 4.226 1.776.972 3.7 1.637 5.776 1.997 2.074.36 4.3.436 6.678.228 2.938-.256 5.6-.96 7.99-2.11 2.388-1.155 4.39-2.565 6.005-4.24 1.614-1.67 3.053-3.643 4.31-5.92 1.255-2.277 2.232-4.542 2.93-6.792.695-2.254 1.257-4.705 1.682-7.356.244-1.52.423-2.93.553-4.25.096-.982.168-1.92.202-2.79l.252-6.453c-.016-.935.037-2.272.155-4.02.09-6.076.272-10.246.55-12.507.28-2.26 1.02-3.868 2.226-4.82 4.943-3.964 7.846-6.382 8.71-7.258 2.87-2.72 4.46-4.212 4.766-4.473.96-.832 2.518-2.418 4.666-4.758 1.09-1.21 2.226-2.377 3.18-3.65.326-.432.63-.875.902-1.338.187-.316.998-1.246 2.84-4.668 3.625-6.73-4.727-15.304-4.727-15.304zm-38.753 69.62c-.527 2.59-.968 4.663-1.325 6.224-.358 1.562-.783 3.15-1.278 4.775-.492 1.623-.983 2.888-1.467 3.8-.485.914-1.07 1.766-1.753 2.557-.684.786-1.457 1.364-2.322 1.72-.862.357-1.854.588-2.976.686-3.082.27-4.05-1.906-2.896-6.527 1.405-5.492 3.476-10.945 6.21-16.36.24-.478.483-.932.727-1.388 2.52-4.717 5.178-8.284 7.978-10.678-.022.656-.074 2.16-.15 4.524-.08 2.355-.15 4.373-.206 6.056-.028.777-.087 1.516-.167 2.23-.093.834-.214 1.633-.376 2.382z" fill="#86b652"/><path d="M197.85 84.212c-.2-2.29-.87-4.385-2.013-6.286-1.144-1.903-2.636-3.5-4.478-4.8-1.84-1.298-4.003-2.25-6.486-2.858-2.48-.606-5.14-.786-7.97-.538-3.147.275-5.984 1.1-8.513 2.476-2.53 1.374-4.777 3.126-6.745 5.25-1.967 2.127-3.647 4.548-5.044 7.26-1.394 2.71-2.52 5.528-3.376 8.452-.365 1.247-.702 2.6-1.023 4.02 5.973-1.142 11.942-2.127 17.907-2.96.626-2.307 1.297-4.172 2.023-5.54.824-1.555 1.87-2.848 3.14-3.878 1.27-1.03 2.857-1.626 4.765-1.794.79-.07 1.335.262 1.632.987.297.727.496 1.653.594 2.774.16 1.305.176 2.13.15 2.53-.086 1.43-.273 2.578-.446 3.464-.166.852-.318 1.46-.353 1.832-.297 1.44.2 3.02 1.493 4.744.79 1.108 2.368 1.558 4.73 1.35 1.567-.136 2.936-.632 4.11-1.488 1.172-.856 2.323-2.38 3.457-4.576.58-1.123 1.05-2.165 1.416-3.128.35-.918.605-1.765.76-2.536.323-1.582.414-3.167.275-4.757z" fill="#eec44e"/><path d="M61.026 191.335c-1.442.875-2.884 1.75-4.308 2.647 1.497-.78 2.94-1.657 4.308-2.647z" fill="#1f824c"/><path d="M77.146 50.122c.575-3.57 1.14-7.187 1.99-10.7.893-3.686 1.925-7.796 4.58-10.64 2.362-2.53 5.565-4.712 9.268-3.933 2.5.524 2.695 3.25 2.43 5.35-.508 3.994-2.06 8.012-3.49 11.752-1.985 5.192-4.353 10.446-7.346 15.245 6.955-2.37 14.006-4.575 21.154-6.6.32-.66.637-1.32.95-1.983 3.417-7.25 6.692-14.636 5.756-22.856-.434-3.807-1.676-7.508-4.11-10.51-2.456-3.028-5.887-4.883-9.614-5.885-7.787-2.094-16.766-.808-23.624 3.41-6.77 4.165-11.233 11.61-13.614 19.042-2.575 8.092-3.03 16.38-3.39 24.793-.15 3.574-.187 7.167-.296 10.755 6.147-2.577 12.38-5.02 18.698-7.32.09-3.312.13-6.65.658-9.92z" fill="#c63443"/><path d="M56.09 80.934c-.85 1.687-2.393 2.674-3.84 3.812-2.434 1.914-4.873 3.827-7.24 5.824-3.43 2.895-6.824 5.998-10.004 9.17-4.498 4.488-8.624 9.188-11.733 14.732-2.537 4.524-2.616 9.365.296 13.732 1.376 2.067 3.218 3.94 5.293 5.317 7.51-12.734 16.035-26.154 28.574-34.475-.735 10.5-1.61 20.985-2.53 31.468 6.903-3.526 13.95-6.843 21.138-9.946.12-2.12.24-4.24.362-6.36.36-6.35.626-12.708 1.172-19.044l.564-6.56c.05-.59.103-1.18.153-1.772.033-.376.54-.665.788-.908.843-.823 1.71-1.622 2.583-2.413 5.58-5.053 9.987-11.037 14.537-17.01 3.855-4.855 6.834-10.332 9.528-15.904-7.15 2.026-14.2 4.23-21.154 6.6-1.436 2.3-3 4.504-4.758 6.53-1.105 1.272-2.295 2.474-3.59 3.552.07-1.83.136-3.66.202-5.492.022-.58.038-1.16.054-1.742-6.32 2.3-12.55 4.742-18.698 7.32-.095 3.08-.242 6.16-.575 9.217-.163 1.497-.44 3-1.124 4.354z" fill="#eec44e"/><path d="M76.434 61.786c-.103 2.867.107-2.865 0 0z" fill="#1f824c"/><path d="M155.537 137.645c-2.47 1.096-4.594 3.023-6.703 4.67-3.274 2.553-6.626 5-10.22 7.087-4.816 2.797-9.985 4.95-15.355 6.426-3.31.907-6.724 1.645-10.142 1.982-3.4.337-6.806.18-10.213.15-.8-.005-1.725-.013-.113 0-9.537-.068-18.976-2.76-28.24-4.81-.865-.19-.576-.468-.517-1.348.122-1.787.242-3.574.363-5.362.27-3.974.538-7.948.806-11.923.086-1.263.107-2.528.143-3.794.078-2.772.434-5.507.59-8.26l.108-1.896c-7.188 3.103-14.235 6.42-21.137 9.946-.52 5.958-1.052 11.916-1.587 17.875-.037.426-.075.854-.114 1.28-.055.617-.265.42-.81.444-.828.035-1.656.074-2.483.115-2.075.104-4.148.224-6.22.357-4.2.27-8.373.708-12.507 1.51-6.77 1.312-13.5 3.442-19.514 6.868-5.624 3.204-10.59 7.563-11.537 14.333-1.138 8.15 5.088 16.035 11.623 20.112 10.068 6.28 23.356 6.963 34.682 4.319 3.545-.828 7.038-2.054 10.278-3.744 1.424-.898 2.866-1.772 4.308-2.647.57-.413 1.128-.84 1.67-1.29 2.6-2.16 4.952-4.794 6.44-7.853 1.258-2.58 1.63-5.328 1.852-8.157.103-1.318-.056-4.46 1.328-5.25.828-.47 2.024-.246 2.907-.115 2.09.31 4.154.814 6.23 1.21 4.865.926 9.738 1.342 14.636 2.028.69.097 1.394.156 2.092.23 9.212.978 18.985.064 28.037-1.504 6.12-1.06 12.326-2.57 17.903-5.378 4.75-2.39 7.67-6.09 9.373-11.03.068-.197.148-.383.212-.586 1.617-5.074 2.168-10.68 1.83-15.995zM51.76 165.315c.014-.142.01-.1-.002.01-.425 3.893-.55 8.252-2.99 11.68-2.794 3.917-7.533 6.026-12.243 6.374-4.793.352-9.84-1.084-13.32-4.5-1.367-1.34-2.604-3.11-2.363-5.127.426-3.57 4.838-5.386 7.738-6.402 7.294-2.552 15.578-3.557 23.272-2.91-.043.482-.104.962-.155 1.443l.062-.57z" fill="#86b652"/><path d="M51.758 165.324v-.01c-.134 1.234-.035.33 0 .01zM102.792 157.96h.113c.723.006 1.344.01-.113 0zM102.905 157.96h-.113c-1.612-.013-.687-.005.113 0z" fill="#1f824c"/></symbol><symbol id="icon-menu-hamburger" viewBox="0 0 35 29"><path d="M0 0h35v4H0zM0 12h35v4H0zM0 25h35v4H0z"/></symbol><symbol id="icon-search" viewBox="0 0 128 128"><path d="M123.908 119.375c-.002-1.338-.49-2.496-1.46-3.475L86.723 79.898c6.952-8.32 10.427-18.097 10.426-29.33 0-12.882-4.565-23.887-13.693-33.015C74.424 8.52 63.467 4.003 50.582 4c-12.88.005-23.886 4.522-33.014 13.553-9.03 9.13-13.55 20.134-13.554 33.014.003 12.884 4.52 23.842 13.554 32.875C26.696 92.57 37.7 97.134 50.582 97.134c11.22.002 20.973-3.45 29.26-10.356l35.725 36.003c.98.974 2.137 1.46 3.475 1.46 1.34.002 2.475-.485 3.406-1.46.973-.928 1.46-2.063 1.46-3.405zm-47.332-94.94c7.228 7.227 10.842 15.938 10.842 26.132-.002 10.148-3.57 18.79-10.703 25.925l-.21.208c-7.133 7.134-15.775 10.702-25.923 10.704-10.194 0-18.905-3.614-26.134-10.843-7.138-7.137-10.706-15.802-10.703-25.993-.005-10.195 3.563-18.906 10.703-26.133 7.228-7.14 15.94-10.708 26.134-10.704 10.19-.003 18.855 3.565 25.994 10.704z" fill-rule="evenodd"/></symbol><symbol id="icon-slot" viewBox="0 0 106 100"><rect width="91" height="100" fill="#f9cb00" rx="1" ry="1"/><rect x="35.843" y="32.602" width="36.343" height="25" fill="#088448" rx="5" ry="5"/><path d="M84 58.19c0 .445-.608.81-1.35.81H8.35C7.61 59 7 58.635 7 58.19V11.814c0-.45.608-.814 1.35-.814h74.3c.742 0 1.35.365 1.35.814V58.19z" fill="#fff"/><path d="M55.517 69C60.757 69 65 73.25 65 78.498 65 83.745 60.756 88 55.517 88H19.484C14.244 88 10 83.745 10 78.498 10 73.25 14.244 69 19.484 69h36.033z" fill="#ed4542"/><path d="M58 78.998C58 80.1 56.672 81 55.034 81H20.966C19.328 81 18 80.1 18 78.998 18 77.895 19.328 77 20.966 77h34.068c1.638 0 2.966.895 2.966 1.998z" fill="#055e33"/><path d="M17 25v4.74h2.7s.258-2.14 3.273-2.11h5.375S20.664 36 19.988 47h5.893c.156-2.22.553-5.117 1.253-8.358C28.18 33.81 30.473 29.654 32 27.13V25H17zM39 25v4.74h2.7s.258-2.14 3.273-2.11h5.375S42.664 36 41.988 47h5.892c.156-2.22.552-5.117 1.253-8.358C50.18 33.81 52.473 29.654 54 27.13V25H39zM61 25v4.74h2.7s.258-2.14 3.273-2.11h5.375S64.664 36 63.988 47h5.893c.156-2.22.553-5.117 1.253-8.358C72.18 33.81 74.473 29.654 76 27.13V25H61z" fill="#088448"/><path d="M102 29h-7v52h7V29z" fill="#fff"/><path d="M106 29.5c0 4.142-3.358 7.5-7.5 7.5-4.142 0-7.5-3.358-7.5-7.5 0-4.14 3.358-7.5 7.5-7.5 4.142 0 7.5 3.36 7.5 7.5z" fill="#ed4542"/><path d="M91 66v26c6.075-.002 11-5.823 11-13s-4.925-12.998-11-13z" fill="#facc00"/><path d="M75.502 87C74.122 87 73 86.504 73 85.89V73.112C73 72.498 74.123 72 75.502 72 76.88 72 78 72.498 78 73.113V85.89c0 .614-1.12 1.11-2.498 1.11z" fill="#560625"/></symbol></svg>